<svg xmlns="http://www.w3.org/2000/svg" xmlns:xlink="http://www.w3.org/1999/xlink" viewBox="0 0 383.81 363.34"><defs><style>.cls-1{isolation:isolate;}.cls-2{fill:url(#linear-gradient);}.cls-20,.cls-22,.cls-3,.cls-30,.cls-31,.cls-37{fill:none;}.cls-3{stroke:#ebe1ff;stroke-linecap:round;stroke-linejoin:round;stroke-width:3px;}.cls-4{fill:url(#linear-gradient-2);}.cls-5{fill:url(#linear-gradient-3);}.cls-6{fill:url(#linear-gradient-4);}.cls-7{fill:#ebe1ff;}.cls-34,.cls-8{fill:#fff;}.cls-35,.cls-9{fill:#ff3162;}.cls-10,.cls-9{opacity:0.05;}.cls-11{fill:#2b144f;}.cls-12{fill:url(#linear-gradient-5);}.cls-13,.cls-24{opacity:0.15;}.cls-13,.cls-21,.cls-24,.cls-34{mix-blend-mode:overlay;}.cls-14{fill:url(#linear-gradient-6);}.cls-15{fill:url(#linear-gradient-7);}.cls-16{fill:url(#linear-gradient-8);}.cls-17{fill:url(#linear-gradient-9);}.cls-18{fill:url(#linear-gradient-10);}.cls-19{fill:url(#linear-gradient-11);}.cls-20{stroke:#000;}.cls-20,.cls-22,.cls-30,.cls-31,.cls-37{stroke-miterlimit:10;}.cls-21{opacity:0.25;}.cls-22{stroke:#2b144f;}.cls-23{fill:#ffc5c5;}.cls-25{fill:url(#linear-gradient-12);}.cls-26{fill:url(#linear-gradient-13);}.cls-27{fill:url(#linear-gradient-14);}.cls-28{fill:url(#linear-gradient-15);}.cls-29{fill:url(#linear-gradient-16);}.cls-30{stroke:url(#linear-gradient-17);}.cls-31{stroke:url(#linear-gradient-18);}.cls-32{fill:url(#linear-gradient-19);}.cls-33{fill:url(#linear-gradient-20);}.cls-36{fill:url(#linear-gradient-21);}.cls-37{stroke:#fff;}.cls-38{fill:url(#linear-gradient-22);}</style><linearGradient id="linear-gradient" x1="80.53" y1="282.49" x2="198.19" y2="385.95" gradientUnits="userSpaceOnUse"><stop offset="0" stop-color="#faf8ff"/><stop offset="1" stop-color="#eee9ff"/></linearGradient><linearGradient id="linear-gradient-2" x1="521.97" y1="101.12" x2="639.63" y2="204.58" gradientTransform="matrix(-1, 0, 0, 1, 921.77, 0)" xlink:href="#linear-gradient"/><linearGradient id="linear-gradient-3" x1="536.28" y1="356.64" x2="653.94" y2="460.09" gradientTransform="matrix(-0.77, -0.64, -0.64, 0.77, 1061.25, 409.78)" xlink:href="#linear-gradient"/><linearGradient id="linear-gradient-4" x1="1050.5" y1="383.08" x2="1136.83" y2="458.98" gradientTransform="matrix(1, 0.02, -0.02, 1, -917.47, -322.92)" xlink:href="#linear-gradient"/><linearGradient id="linear-gradient-5" x1="206.89" y1="295.05" x2="192.98" y2="181.98" gradientUnits="userSpaceOnUse"><stop offset="0" stop-color="#ff5a5a"/><stop offset="1" stop-color="#ff8585"/></linearGradient><linearGradient id="linear-gradient-6" x1="193.98" y1="187.24" x2="151.95" y2="171.56" gradientUnits="userSpaceOnUse"><stop offset="0" stop-color="#ffc5c5"/><stop offset="1" stop-color="#f7adad"/></linearGradient><linearGradient id="linear-gradient-7" x1="188.44" y1="204.42" x2="176.21" y2="191.79" xlink:href="#linear-gradient-6"/><linearGradient id="linear-gradient-8" x1="268.51" y1="179.76" x2="244.39" y2="195.15" xlink:href="#linear-gradient-6"/><linearGradient id="linear-gradient-9" x1="173" y1="302.49" x2="151.89" y2="263.22" xlink:href="#linear-gradient-6"/><linearGradient id="linear-gradient-10" x1="171.81" y1="369.26" x2="192.88" y2="369.26" gradientUnits="userSpaceOnUse"><stop offset="0" stop-color="#c3abff"/><stop offset="1" stop-color="#dfcfff"/></linearGradient><linearGradient id="linear-gradient-11" x1="211.09" y1="384.41" x2="230.75" y2="384.41" xlink:href="#linear-gradient-10"/><linearGradient id="linear-gradient-12" x1="310.35" y1="188.77" x2="371.56" y2="188.77" gradientTransform="translate(-41.85 70.94) rotate(-9.59)" xlink:href="#linear-gradient-6"/><linearGradient id="linear-gradient-13" x1="394.38" y1="182.72" x2="428.52" y2="154.3" gradientTransform="translate(-41.85 70.94) rotate(-9.59)" xlink:href="#linear-gradient-6"/><linearGradient id="linear-gradient-14" x1="396.77" y1="262.79" x2="435.77" y2="262.79" gradientTransform="translate(-41.85 70.94) rotate(-9.59)" xlink:href="#linear-gradient-6"/><linearGradient id="linear-gradient-15" x1="276.58" y1="331.39" x2="388.18" y2="199.36" gradientTransform="translate(-41.85 70.94) rotate(-9.59)" xlink:href="#linear-gradient-10"/><linearGradient id="linear-gradient-16" x1="280.01" y1="334.29" x2="391.61" y2="202.27" gradientTransform="translate(-41.85 70.94) rotate(-9.59)" xlink:href="#linear-gradient-10"/><linearGradient id="linear-gradient-17" x1="301.63" y1="335.1" x2="312.63" y2="335.1" gradientTransform="translate(-41.85 70.94) rotate(-9.59)" xlink:href="#linear-gradient-5"/><linearGradient id="linear-gradient-18" x1="258.43" y1="356.33" x2="270.8" y2="356.33" gradientTransform="translate(-41.85 70.94) rotate(-9.59)" xlink:href="#linear-gradient-5"/><linearGradient id="linear-gradient-19" x1="436.15" y1="182.61" x2="432.3" y2="126.07" gradientTransform="translate(504.87 -307.83) rotate(80.75)" xlink:href="#linear-gradient-5"/><linearGradient id="linear-gradient-20" x1="112.47" y1="198.47" x2="118.39" y2="238.44" gradientTransform="translate(18.99 -8.78) rotate(4.68)" xlink:href="#linear-gradient"/><linearGradient id="linear-gradient-21" x1="109.43" y1="227.02" x2="105.58" y2="170.47" gradientTransform="matrix(0.71, 0.7, -0.7, 0.71, 175.14, -36.41)" xlink:href="#linear-gradient-5"/><linearGradient id="linear-gradient-22" x1="453.22" y1="172.82" x2="447" y2="217.52" gradientTransform="matrix(0.99, 0.12, -0.12, 0.99, 19.26, -68.68)" xlink:href="#linear-gradient"/></defs><title>2</title><g class="cls-1"><g id="OBJECTS"><path class="cls-2" d="M181.86,400.76c-12.18-14.9-95.26-49.95-109-91.47s8.84-57.37,34.52-46.44,32.4,76.19,56.74,97.86,35,14.7,35,14.7" transform="translate(-68.74 -66.55)"/><path class="cls-3" d="M82.17,261.53S141,366.24,180.53,388.59" transform="translate(-68.74 -66.55)"/><path class="cls-3" d="M77,318.33s24.5-8.25,37.67-4.44c2.22-22.84,10.82-31,10.82-31" transform="translate(-68.74 -66.55)"/><path class="cls-3" d="M109,351.62a46.16,46.16,0,0,1,28.18-6.32c-1-11.62,5.48-21.32,5.48-21.32" transform="translate(-68.74 -66.55)"/><path class="cls-3" d="M135.65,370s13.17-6.23,18.51-4.25c-2.36-6.89,2.22-14.11,2.22-14.11" transform="translate(-68.74 -66.55)"/><path class="cls-4" d="M298.47,219.38c12.19-14.89,95.26-49.94,109-91.47s-8.83-57.36-34.52-46.43-32.4,76.18-56.74,97.86-35,14.7-35,14.7" transform="translate(-68.74 -66.55)"/><path class="cls-3" d="M398.17,80.16s-58.86,104.71-98.36,127.06" transform="translate(-68.74 -66.55)"/><path class="cls-3" d="M403.35,137s-24.49-8.25-37.67-4.44c-2.22-22.84-10.82-31-10.82-31" transform="translate(-68.74 -66.55)"/><path class="cls-3" d="M371.37,170.25a46.18,46.18,0,0,0-28.19-6.32c1-11.62-5.47-21.33-5.47-21.33" transform="translate(-68.74 -66.55)"/><path class="cls-3" d="M344.69,188.61s-13.18-6.24-18.52-4.25c2.36-6.89-2.21-14.11-2.21-14.11" transform="translate(-68.74 -66.55)"/><path class="cls-5" d="M267.14,371.76c18.87-3.77,105.3,21.9,142.26-1.47s29.6-49.93,2.81-57.79-73.4,38.28-106,39.57-36.4-10.88-36.4-10.88" transform="translate(-68.74 -66.55)"/><path class="cls-3" d="M432.56,327.51s-112,43.52-156.67,35.7" transform="translate(-68.74 -66.55)"/><path class="cls-3" d="M400.5,374.68s-13.69-21.93-26.28-27.35c12.78-19.05,11.29-30.79,11.29-30.79" transform="translate(-68.74 -66.55)"/><path class="cls-3" d="M354.65,380.09a46.13,46.13,0,0,0-17.76-22.78c8.18-8.32,9.31-19.95,9.31-19.95" transform="translate(-68.74 -66.55)"/><path class="cls-3" d="M322.38,377.33s-6.22-13.18-11.61-15C317,358.47,318,350,318,350" transform="translate(-68.74 -66.55)"/><path class="cls-6" d="M196.73,171.8c-8.69-11.12-69.06-38.19-78.44-68.87S125.7,61,144.37,69.43s22.52,56.41,40,72.71,25.46,11.35,25.46,11.35" transform="translate(-68.74 -66.55)"/><path class="cls-3" d="M125.87,68.05s41.47,77.77,70.08,94.81" transform="translate(-68.74 -66.55)"/><path class="cls-3" d="M121.14,109.63s18.1-5.65,27.7-2.65c2-16.71,8.45-22.53,8.45-22.53" transform="translate(-68.74 -66.55)"/><path class="cls-3" d="M144.06,134.57a33.82,33.82,0,0,1,20.78-4.17c-.58-8.55,4.36-15.56,4.36-15.56" transform="translate(-68.74 -66.55)"/><path class="cls-3" d="M163.33,148.47s9.77-4.35,13.65-2.81c-1.62-5.09,1.86-10.32,1.86-10.32" transform="translate(-68.74 -66.55)"/><rect class="cls-7" x="98.25" y="15.82" width="178.61" height="347.51" rx="11.64"/><rect class="cls-8" x="104.39" y="26.48" width="166.33" height="326.2" rx="10.88"/><path class="cls-9" d="M287.54,115.45H186.12a1.22,1.22,0,0,0-.86,2.08l7.62,7.62v20.26a3.33,3.33,0,0,0,3.34,3.34h91.32a3.34,3.34,0,0,0,3.35-3.34V118.8A3.35,3.35,0,0,0,287.54,115.45Z" transform="translate(-68.74 -66.55)"/><path class="cls-10" d="M272.78,123.39h-60.7a.54.54,0,0,1-.54-.54h0a.54.54,0,0,1,.54-.54h60.7a.54.54,0,0,1,.54.54h0A.54.54,0,0,1,272.78,123.39Z" transform="translate(-68.74 -66.55)"/><path class="cls-10" d="M272.78,129.2h-60.7a.54.54,0,0,1-.54-.54h0a.54.54,0,0,1,.54-.54h60.7a.54.54,0,0,1,.54.54h0A.54.54,0,0,1,272.78,129.2Z" transform="translate(-68.74 -66.55)"/><path class="cls-10" d="M272.78,135h-60.7a.54.54,0,0,1-.54-.54h0a.54.54,0,0,1,.54-.54h60.7a.54.54,0,0,1,.54.54h0A.54.54,0,0,1,272.78,135Z" transform="translate(-68.74 -66.55)"/><path class="cls-10" d="M272.78,140.82h-60.7a.54.54,0,0,1-.54-.54h0a.54.54,0,0,1,.54-.54h60.7a.54.54,0,0,1,.54.54h0A.54.54,0,0,1,272.78,140.82Z" transform="translate(-68.74 -66.55)"/><path class="cls-9" d="M287.54,242.58H186.12a1.21,1.21,0,0,0-.86,2.07l7.62,7.62v20.26a3.34,3.34,0,0,0,3.34,3.35h91.32a3.35,3.35,0,0,0,3.35-3.35V245.92A3.34,3.34,0,0,0,287.54,242.58Z" transform="translate(-68.74 -66.55)"/><path class="cls-10" d="M272.78,250.51h-60.7a.54.54,0,0,1-.54-.54h0a.54.54,0,0,1,.54-.54h60.7a.54.54,0,0,1,.54.54h0A.54.54,0,0,1,272.78,250.51Z" transform="translate(-68.74 -66.55)"/><path class="cls-10" d="M272.78,256.32h-60.7a.54.54,0,0,1-.54-.54h0a.54.54,0,0,1,.54-.53h60.7a.54.54,0,0,1,.54.53h0A.54.54,0,0,1,272.78,256.32Z" transform="translate(-68.74 -66.55)"/><path class="cls-10" d="M272.78,262.13h-60.7a.54.54,0,0,1-.54-.54h0a.54.54,0,0,1,.54-.53h60.7a.54.54,0,0,1,.54.53h0A.54.54,0,0,1,272.78,262.13Z" transform="translate(-68.74 -66.55)"/><path class="cls-10" d="M272.78,267.94h-60.7a.54.54,0,0,1-.54-.53h0a.54.54,0,0,1,.54-.54h60.7a.54.54,0,0,1,.54.54h0A.54.54,0,0,1,272.78,267.94Z" transform="translate(-68.74 -66.55)"/><path class="cls-9" d="M287.54,355H186.12a1.22,1.22,0,0,0-.86,2.08l7.62,7.62V385a3.34,3.34,0,0,0,3.34,3.34h91.32a3.35,3.35,0,0,0,3.35-3.34V358.39A3.35,3.35,0,0,0,287.54,355Z" transform="translate(-68.74 -66.55)"/><path class="cls-10" d="M272.78,363h-60.7a.54.54,0,0,1-.54-.53h0a.54.54,0,0,1,.54-.54h60.7a.54.54,0,0,1,.54.54h0A.54.54,0,0,1,272.78,363Z" transform="translate(-68.74 -66.55)"/><path class="cls-10" d="M272.78,368.79h-60.7a.54.54,0,0,1-.54-.54h0a.54.54,0,0,1,.54-.54h60.7a.54.54,0,0,1,.54.54h0A.54.54,0,0,1,272.78,368.79Z" transform="translate(-68.74 -66.55)"/><path class="cls-10" d="M272.78,374.6h-60.7a.54.54,0,0,1-.54-.54h0a.54.54,0,0,1,.54-.54h60.7a.54.54,0,0,1,.54.54h0A.54.54,0,0,1,272.78,374.6Z" transform="translate(-68.74 -66.55)"/><path class="cls-10" d="M272.78,380.41h-60.7a.54.54,0,0,1-.54-.54h0a.54.54,0,0,1,.54-.54h60.7a.54.54,0,0,1,.54.54h0A.54.54,0,0,1,272.78,380.41Z" transform="translate(-68.74 -66.55)"/><path class="cls-9" d="M226.72,187.66H328.15a1.22,1.22,0,0,1,.86,2.08l-7.62,7.62v20.26a3.35,3.35,0,0,1-3.34,3.34H226.72a3.35,3.35,0,0,1-3.34-3.34V191A3.35,3.35,0,0,1,226.72,187.66Z" transform="translate(-68.74 -66.55)"/><path class="cls-10" d="M241.49,195.59h60.7a.54.54,0,0,0,.54-.53h0a.54.54,0,0,0-.54-.54h-60.7a.54.54,0,0,0-.54.54h0A.54.54,0,0,0,241.49,195.59Z" transform="translate(-68.74 -66.55)"/><path class="cls-10" d="M241.49,201.41h60.7a.54.54,0,0,0,.54-.54h0a.54.54,0,0,0-.54-.54h-60.7a.54.54,0,0,0-.54.54h0A.54.54,0,0,0,241.49,201.41Z" transform="translate(-68.74 -66.55)"/><path class="cls-10" d="M241.49,207.22h60.7a.54.54,0,0,0,.54-.54h0a.54.54,0,0,0-.54-.54h-60.7a.54.54,0,0,0-.54.54h0A.54.54,0,0,0,241.49,207.22Z" transform="translate(-68.74 -66.55)"/><path class="cls-10" d="M241.49,213h60.7a.54.54,0,0,0,.54-.54h0a.54.54,0,0,0-.54-.54h-60.7a.54.54,0,0,0-.54.54h0A.54.54,0,0,0,241.49,213Z" transform="translate(-68.74 -66.55)"/><path class="cls-9" d="M226.72,299.89H328.15A1.22,1.22,0,0,1,329,302l-7.62,7.62v20.26a3.34,3.34,0,0,1-3.34,3.34H226.72a3.34,3.34,0,0,1-3.34-3.34V303.24A3.35,3.35,0,0,1,226.72,299.89Z" transform="translate(-68.74 -66.55)"/><path class="cls-10" d="M241.49,307.83h60.7a.54.54,0,0,0,.54-.54h0a.54.54,0,0,0-.54-.54h-60.7a.54.54,0,0,0-.54.54h0A.54.54,0,0,0,241.49,307.83Z" transform="translate(-68.74 -66.55)"/><path class="cls-10" d="M241.49,313.64h60.7a.54.54,0,0,0,.54-.54h0a.54.54,0,0,0-.54-.54h-60.7a.54.54,0,0,0-.54.54h0A.54.54,0,0,0,241.49,313.64Z" transform="translate(-68.74 -66.55)"/><path class="cls-10" d="M241.49,319.45h60.7a.54.54,0,0,0,.54-.54h0a.54.54,0,0,0-.54-.54h-60.7a.54.54,0,0,0-.54.54h0A.54.54,0,0,0,241.49,319.45Z" transform="translate(-68.74 -66.55)"/><path class="cls-10" d="M241.49,325.26h60.7a.54.54,0,0,0,.54-.54h0a.54.54,0,0,0-.54-.53h-60.7a.54.54,0,0,0-.54.53h0A.54.54,0,0,0,241.49,325.26Z" transform="translate(-68.74 -66.55)"/><path class="cls-11" d="M183.08,169.54s4.54,3,5.62,11.3,4.74,23.38-7.4,27.13a20.51,20.51,0,0,1-20.22-4.74s-1.19-9.55-1.29-11.53.6-8.59.6-8.59.88-9,2.86-9.47S183.08,169.54,183.08,169.54Z" transform="translate(-68.74 -66.55)"/><path class="cls-11" d="M186.88,167.62a8.4,8.4,0,0,1-3.52,4.07c-4.58,2.8-11.3,1.84-12.18,1.84-1.82,5.51-1.21,8.78-1.65,8s-3.7-2.33-4.65.15c-.86,2.27,1.24,4,4.55,3.67a9,9,0,0,0,.95-.16,12.1,12.1,0,0,1-.12,3.18c-.73,5.78,7.2,15.5,7.2,15.5s-23.59,16.4-28.32,17.66-9.92-4.29-4.89-11.17,9.84-24.35,9.55-34.64,5.55-11.42,9.2-11.81,4.64-6.37,11.89-7.8S190,160,186.88,167.62Z" transform="translate(-68.74 -66.55)"/><path class="cls-12" d="M254.52,194.85c-4.59,5.09-14,10.61-23.75,14.65s-19.72,6.56-25.49,5.68a18.63,18.63,0,0,1,.64,6.59c0,1.29-.11,2.62-.18,3.91a52.37,52.37,0,0,0-.16,6.08,8.21,8.21,0,0,0,.3,1.64,27,27,0,0,0,1.13,3.16c.78,1.83,1.8,3.93,2.93,6.13.48,1,1,2,1.5,2.95,1,2,2.08,4.07,3.05,6.07.5,1,1,2,1.4,3,.19.41.37.81.54,1.21a20.6,20.6,0,0,0-3.54.49c-9.2,2-20.43,9.79-28.09,15.46l-2.5,1.87c-3.79,2.86-6.26,4.78-6.42,4.38a4.22,4.22,0,0,1-.15-.66c-.13-.71-.33-1.9-.58-3.47-.3-1.9-.7-4.36-1.18-7.13-.2-1.1-.4-2.26-.62-3.45-.42-2.23-.89-4.59-1.42-7-.24-1.12-.5-2.24-.77-3.37-.54-2.29-1.14-4.58-1.79-6.78-.32-1.1-.66-2.18-1-3.23-.43-1.31-.89-2.56-1.36-3.75a18.14,18.14,0,0,0-4.16,6.88l-.06.17c-4.38,13,1.93,31.87,2.34,34.24-3.6,1.46-4.3,4.55-5.51,5.34h0a1.12,1.12,0,0,1-.61.19c-1.67,0-16.81-4.44-16.81-33.84,0-26.07,16.86-50.52,28.59-57.85a15.74,15.74,0,0,1,4.21-2,74.67,74.67,0,0,1,9.43-2c12.5-1.65,16.24,2.62,26.39,5.22,12.33,3.16,34.53-8,37.49-8a5.76,5.76,0,0,1,1.54.2C252.26,188.58,254.44,190.78,254.52,194.85Z" transform="translate(-68.74 -66.55)"/><path class="cls-13" d="M180.53,201.86c-7.73,0-9.43-4.61-9.75-7.43a15.74,15.74,0,0,1,4.21-2,74.67,74.67,0,0,1,9.43-2C186.23,195.65,187.07,201.86,180.53,201.86Z" transform="translate(-68.74 -66.55)"/><path class="cls-14" d="M182.27,190.31a8.91,8.91,0,0,1-3.38,1.21c-3,.46-5.07,0-6.47-.86a5.93,5.93,0,0,1-2.16-2.33,12.1,12.1,0,0,0,.12-3.18,9,9,0,0,1-.95.16c-3.31.34-5.41-1.4-4.55-3.67,1-2.48,4.2-1,4.65-.15s-.1-2.1,1.37-7.05c.09-.29.18-.6.28-.91.88,0,7.6,1,12.18-1.84a16,16,0,0,1,1.56,3C187.07,180,187,187.32,182.27,190.31Z" transform="translate(-68.74 -66.55)"/><path class="cls-15" d="M183,195.15c-1.69,4.06-6.81,3.77-8.66,2.44a4.14,4.14,0,0,1-1.42-2.66c-.3-1.43-.3-3.07-.53-4.27,1.4.85,3.46,1.32,6.47.86a8.91,8.91,0,0,0,3.38-1.21,12.38,12.38,0,0,0,.12,1.28C182.67,193.35,183.26,194.6,183,195.15Z" transform="translate(-68.74 -66.55)"/><path class="cls-16" d="M254.52,194.85c-.08-4.07-2.26-6.27-4.68-6.9,0,0,3.42-5.75,5.23-6.23s.82,5.32.82,5.32,8.73-5.55,14-4S255.7,193,254.52,194.85Z" transform="translate(-68.74 -66.55)"/><path class="cls-17" d="M170.23,288.76c1.18,1.7-.44,7.77-5,7.69s-6.07-5.46-5.59-10.52h0c1.21-.79,1.91-3.88,5.51-5.34a15.16,15.16,0,0,1,5,2.91C171.86,285.28,169,287.06,170.23,288.76Z" transform="translate(-68.74 -66.55)"/><path class="cls-11" d="M232.61,368.9a10.65,10.65,0,0,1-1.86,1.49,8.88,8.88,0,0,1-5.52,1.43,12,12,0,0,1-8-4.24,4.63,4.63,0,0,1-.56-.9c-1.33-2.81,6.66-38.77,3.4-44.25-3.11,9.47-20.27,37.89-27.08,35.37a.15.15,0,0,1-.07,0,19.21,19.21,0,0,1-8.66-7.28,15.75,15.75,0,0,1-1.54-2.88c-.49-1.29-.61-2.37-.24-3,1.33-2.22,10.36-10.8,13.17-22.2s.74-18.35-8-24-12.29-11.24-11.74-20.32c.18.48,3.74-2.41,8.92-6.25,8.68-6.43,21.93-15.52,31.63-15.95C261.22,305.76,239.27,362.39,232.61,368.9Z" transform="translate(-68.74 -66.55)"/><path class="cls-18" d="M188.9,371.85c1.38,9.26-2.76,18.86-6.22,19.06s-5.42-3.85-5.37-10.26-6.47-19-5.38-22.6,9.08-7.4,10.75-10.44c1.32,3.41,5.29,8.32,10.2,10.16C190.35,361.2,188.05,366.18,188.9,371.85Z" transform="translate(-68.74 -66.55)"/><path class="cls-19" d="M230.75,370.39a63.36,63.36,0,0,0-2,8.77c-.69,5,.5,21.52-2.76,22s-6.12-1.68-8.28-8.88-6.42-16.48-6.62-18.36,3.94-3.65,6.09-6.35C219.27,370.23,225.2,373.93,230.75,370.39Z" transform="translate(-68.74 -66.55)"/><line class="cls-20" x1="148.46" y1="301.03" x2="148.45" y2="301.04"/><path class="cls-21" d="M230.75,319.87c-1,8.38-8,31.62-7.73,39.71.22,6.66,1.62,9.21,2.21,12.24a12,12,0,0,1-8-4.24,4.63,4.63,0,0,1-.56-.9c-1.33-2.81,6.66-38.77,3.4-44.25,4-15.39,3.66-22.64-2.83-30.64s-4.72-13.17-4.72-13.17,0,4.44,8.44,11.25S232.22,308,230.75,319.87Z" transform="translate(-68.74 -66.55)"/><path class="cls-21" d="M202.86,304.83c-.41,14.87-8.25,37.18-18.64,45.66a15.75,15.75,0,0,1-1.54-2.88c-.49-1.29-.61-2.37-.24-3,1.33-2.22,10.36-10.8,13.17-22.2s.74-18.35-8-24-12.29-11.24-11.74-20.32c.18.48,3.74-2.41,8.92-6.25a17.23,17.23,0,0,1,.6,3.88C185.55,282.91,203.3,288.71,202.86,304.83Z" transform="translate(-68.74 -66.55)"/><path class="cls-13" d="M184.8,271.88c-5.18,3.84-8.74,6.73-8.92,6.25-.5-1.29-3.26-24.77-8.88-38.83,0,0,6.36,1.58,8.83,10C177.88,256.34,183.05,265,184.8,271.88Z" transform="translate(-68.74 -66.55)"/><path class="cls-13" d="M230.77,209.5c-9.72,4-19.72,6.56-25.49,5.68A11.27,11.27,0,0,0,199.9,208C207,207.28,219.26,210.46,230.77,209.5Z" transform="translate(-68.74 -66.55)"/><path class="cls-11" d="M177.26,179.68a.92.92,0,1,1-.88-1.15A1,1,0,0,1,177.26,179.68Z" transform="translate(-68.74 -66.55)"/><path class="cls-11" d="M183.36,178.7a.92.92,0,1,1-1.77.19,1.06,1.06,0,0,1,.76-1.24C182.84,177.6,183.29,178.07,183.36,178.7Z" transform="translate(-68.74 -66.55)"/><path class="cls-22" d="M175,183.86s1,2.59,5.55,1.48" transform="translate(-68.74 -66.55)"/><path class="cls-22" d="M222.25,379.81s9.05-1.14,8.87,1.08-7.44,1-8.42,3.26,7.35,0,7.54,1.48-7.05,3-7.05,3" transform="translate(-68.74 -66.55)"/><path class="cls-22" d="M183.84,364.32s8,1.48,8.07,3.77-7.25-.81-8.73,1.7,8.73,1,8.73,3.78-6.07,1.11-8.14,2.07" transform="translate(-68.74 -66.55)"/><path class="cls-13" d="M184.92,174.66c-5.07,2-11.36.55-14-.22.09-.29.18-.6.28-.91.88,0,7.6,1,12.18-1.84A16,16,0,0,1,184.92,174.66Z" transform="translate(-68.74 -66.55)"/><path class="cls-13" d="M182.39,191.59a64.21,64.21,0,0,1-9.44,3.34c-.3-1.43-.3-3.07-.53-4.27,1.4.85,3.46,1.32,6.47.86a8.91,8.91,0,0,0,3.38-1.21A12.38,12.38,0,0,0,182.39,191.59Z" transform="translate(-68.74 -66.55)"/><path class="cls-23" d="M162.73,246.24l.11-.06-.06.17Z" transform="translate(-68.74 -66.55)"/><g class="cls-24"><path class="cls-8" d="M205.92,221.77c0,1.29-.11,2.62-.18,3.91l-36.37,20.6c-.32-1.1-.66-2.18-1-3.23Z" transform="translate(-68.74 -66.55)"/><path class="cls-8" d="M207,236.56l-35.08,19.87c-.24-1.12-.5-2.24-.77-3.37l34.72-19.66A27,27,0,0,0,207,236.56Z" transform="translate(-68.74 -66.55)"/><path class="cls-8" d="M211.44,245.64,174,266.87c-.2-1.1-.4-2.26-.62-3.45l36.59-20.73C210.42,243.66,210.93,244.65,211.44,245.64Z" transform="translate(-68.74 -66.55)"/><path class="cls-8" d="M215.89,254.72l-3,1.7c-9.2,2-20.43,9.79-28.09,15.46l-2.5,1.87-6.57,3.72c-.13-.71-.33-1.9-.58-3.47l39.34-22.29C215,252.73,215.46,253.74,215.89,254.72Z" transform="translate(-68.74 -66.55)"/></g><path class="cls-25" d="M355,189.71c-.3,3.14-.88,9.38-1.27,15.14-.18,2.7-.32,5.3-.38,7.42a52.06,52.06,0,0,1-29.64-9c-4-2.64-6.37-4.82-6.83-4.79-1.34.07-19.14-3.15-21.65-4.68s-3.54-4.5,1.67-4.76,12.91,1.52,13.17,1.58c-.11-.18-2.72-4.41-.7-4.16s3,2.8,12.15,6.13C328.24,195,341,193.1,355,189.71Z" transform="translate(-68.74 -66.55)"/><path class="cls-11" d="M427,209.61a74.76,74.76,0,0,1,.77,16c-.11,2-.28,4.08-.5,6.12a28.37,28.37,0,0,1-17.64,5.84q0-1.23,0-2.43a34,34,0,0,0-3-13.32c-6.72,3.83-15.07,39.24-19.19,42.85a1,1,0,0,1-.69.29h0c-4-1.37-16.63-10-23.4-19.2-.57-.78-1.1-1.56-1.58-2.35-.19-.3-.38-.62-.55-.93-5.81-10.37-15.34-8.13-15.54-9.3s9.26-8.32,16.87-21.91a51.66,51.66,0,0,1-8.64,1h-.45c.06-2.12.2-4.72.38-7.42.39-5.76,1-12,1.27-15.14l.07,0c5.25-1.28,10.68-2.76,16-4.32,19.75-5.74,21.94-6.11,21.94-6.11S422.4,182.51,427,209.61Z" transform="translate(-68.74 -66.55)"/><path class="cls-26" d="M399.59,171.56c-.65,1.46.8,9.17.76,10.67-2.2,5.25-11.43,4.79-11.34,2.22a51.58,51.58,0,0,0-.14-5.3s-6.84,2.2-10.4-4.25S379.54,159,379.54,159c3.6,1.89,10,1.24,11,1.59s1.7,3.89,2.36,4.2.55-2.82,3-1.91,1,3.46,1,4.36S397.43,169.89,399.59,171.56Z" transform="translate(-68.74 -66.55)"/><path class="cls-11" d="M399.59,171.56c-2.16-1.67-2.67-3.38-2.68-4.28s1.5-3.46-1-4.36-2.38,2.22-3,1.91-1.33-3.85-2.36-4.2-7.4.3-11-1.59c-8-1.29-17.19-9.33-11.57-15.61s14.49-4.4,19.42,1.22,7,7.89,9.75,8,7.2-.92,8.69,2.58S402.87,172.35,399.59,171.56Z" transform="translate(-68.74 -66.55)"/><path class="cls-27" d="M409.61,237.61c-.2,16.21-5.27,28-7.19,35.56,0,0-3.48.81-4.8,2.79s.67,3.39.45,4.43-2.54,4.83-.44,6.88,12.53,1.33,14.18-1.65c1.31-2.36,1.67-7.34,1.76-9.29,2.34-4.86,11.33-22.78,13.68-44.56A28.37,28.37,0,0,1,409.61,237.61Z" transform="translate(-68.74 -66.55)"/><path class="cls-21" d="M373.51,195.77c-2.88,1.9-11,15.53-11,15.53a51.66,51.66,0,0,1-8.64,1h-.45a52.06,52.06,0,0,1-29.64-9c4.68,1,12.51,3.45,17.2,2.35,4.34-1,8.58-.66,12.82-.73a35,35,0,0,0,5.29-.43C365.09,203.41,366.74,197.12,373.51,195.77Z" transform="translate(-68.74 -66.55)"/><path class="cls-21" d="M406.59,221.86c-7.12,4.06-16.06,43.54-19.88,43.14h0c1.37-6.12,1.18-13.65,1.19-19.2,0-7,8-9.66,7.73-18.22s6.09-10.14,5.36-16.82C403.59,213.91,406.59,221.86,406.59,221.86Z" transform="translate(-68.74 -66.55)"/><path class="cls-28" d="M363.28,245.79C324.43,275.18,303.75,364,303.33,364.93a3.47,3.47,0,0,1-1.11.8,27.49,27.49,0,0,1-8.26,2.86,13.4,13.4,0,0,1-6.72-.35,7,7,0,0,1-2.9-2c-1.79-42.38,10.32-73.48,24.24-94.9,17.14-26.42,37-38.13,37-38.13.2,1.17,9.73-1.07,15.54,9.3.17.31.36.63.55.93C362.18,244.23,362.71,245,363.28,245.79Z" transform="translate(-68.74 -66.55)"/><path class="cls-21" d="M363.28,245.79C324.43,275.18,303.75,364,303.33,364.93c-.25.54-4.65,2.87-9.37,3.66.58-9.48,6.46-33.83,5.28-49.18C297.9,302,303.82,292,303.82,292l4.76-20.67c17.14-26.42,37-38.13,37-38.13.2,1.17,9.73-1.07,15.54,9.3.17.31.36.63.55.93C362.18,244.23,362.71,245,363.28,245.79Z" transform="translate(-68.74 -66.55)"/><path class="cls-29" d="M387.4,264.71a16,16,0,0,1-6.5,10.86,16.54,16.54,0,0,1-5.79,2.46c-14.85,3.38-22.2-8.13-36.08.63s-4.19,44.14-5.9,48.23a3.45,3.45,0,0,1-.27.49c-1.77,2.77-9,6.63-14.71,7.64-2.84.49-5.33.3-6.65-1.07-4.13-4.31-23.2-74.54-2.19-87.6,16.21-10.07,40.09-5.89,50.17-3.47.84.2,1.59.4,2.22.56,6.15,10.05,20.63,20.06,25,21.55h0A1,1,0,0,0,387.4,264.71Z" transform="translate(-68.74 -66.55)"/><path class="cls-21" d="M387.4,264.71a16,16,0,0,1-6.5,10.86c-7.11-2.63-16.21-11.21-17.79-20.55a49.4,49.4,0,0,0-3.63-12.14c.84.2,1.59.4,2.22.56,6.15,10.05,20.63,20.06,25,21.55h0A1,1,0,0,0,387.4,264.71Z" transform="translate(-68.74 -66.55)"/><path class="cls-11" d="M304.89,383.9c-8.85,1.87-28.69,11.9-34,12.42s-6.66-3.45-4.77-7.37c1.63-3.39,16.87-16.21,21.13-20.71a13.4,13.4,0,0,0,6.72.35,27.49,27.49,0,0,0,8.26-2.86C305.47,372.8,311.81,382.43,304.89,383.9Z" transform="translate(-68.74 -66.55)"/><path class="cls-11" d="M342.91,342.42c-2.32,2.72-19.07,22.21-22.78,25.09s-7.87,2.76-7.75-4.11c.1-6,5.38-23,5.77-28.38,5.75-1,12.94-4.87,14.71-7.64C335.93,330.56,344.83,340.16,342.91,342.42Z" transform="translate(-68.74 -66.55)"/><path class="cls-30" d="M314.88,346.26s3.76-2.21,6.1.09-7.68,2-7.64,4.52,6.28-1.44,6.66,1.65-6,2.22-7.76,3" transform="translate(-68.74 -66.55)"/><path class="cls-31" d="M272.75,378.94s3.53,6.11,5.62,4.85-4.51-6.14-1.25-7.44,4.06,4.49,6.45,3.87-2.14-8.53-2.14-8.53" transform="translate(-68.74 -66.55)"/><path class="cls-11" d="M384.24,166.48c-.06.68-.51,1.19-1,1.14s-.83-.63-.77-1.31.51-1.19,1-1.14S384.31,165.8,384.24,166.48Z" transform="translate(-68.74 -66.55)"/><path class="cls-8" d="M381.51,171.46l8.07-2s-.25,3.58-3.45,4.48S381.51,171.46,381.51,171.46Z" transform="translate(-68.74 -66.55)"/><circle class="cls-32" cx="433.45" cy="142.97" r="12.36" transform="translate(153.9 481.25) rotate(-80.75)"/><path class="cls-8" d="M440.19,145.39a6.74,6.74,0,0,1-13.47,0Z" transform="translate(-68.74 -66.55)"/><path class="cls-8" d="M431,139.2a1.17,1.17,0,0,1,0,1.66l-.31.31-1.52,1.53a.21.21,0,0,1-.28,0l-1.58-1.59-.21-.22a1.17,1.17,0,0,1,0-1.66h0a1.17,1.17,0,0,1,1.66,0l.27.28.31-.31a1.17,1.17,0,0,1,1.66,0Z" transform="translate(-68.74 -66.55)"/><path class="cls-8" d="M439.77,139.2a1.17,1.17,0,0,1,0,1.66l-.31.31-1.52,1.53a.21.21,0,0,1-.28,0l-1.58-1.59-.21-.22a1.17,1.17,0,0,1,0-1.66h0a1.17,1.17,0,0,1,1.66,0l.27.28.31-.31a1.17,1.17,0,0,1,1.66,0Z" transform="translate(-68.74 -66.55)"/><circle class="cls-33" cx="116.8" cy="227.71" r="12.36" transform="matrix(1, -0.08, 0.08, 1, -86.95, -56.25)"/><path class="cls-34" d="M123.73,229.49a6.74,6.74,0,1,1-13.42,1.24Z" transform="translate(-68.74 -66.55)"/><path class="cls-35" d="M114.05,224.17a1.18,1.18,0,0,1,.15,1.66l-.28.34-1.38,1.66a.19.19,0,0,1-.27,0l-1.72-1.43-.23-.2a1.19,1.19,0,0,1-.16-1.66h0a1.18,1.18,0,0,1,1.66-.15l.29.25.28-.33a1.19,1.19,0,0,1,1.66-.16Z" transform="translate(-68.74 -66.55)"/><path class="cls-35" d="M122.74,223.37a1.18,1.18,0,0,1,.15,1.66l-.28.33L121.24,227a.2.2,0,0,1-.28,0l-1.72-1.44-.23-.2a1.16,1.16,0,0,1-.15-1.65h0a1.17,1.17,0,0,1,1.65-.16l.29.26.28-.34a1.18,1.18,0,0,1,1.66-.15Z" transform="translate(-68.74 -66.55)"/><circle class="cls-36" cx="120.15" cy="172.09" r="12.36" transform="translate(-158.44 101.31) rotate(-53.92)"/><path class="cls-37" d="M126.92,173.65A6.73,6.73,0,0,1,114.29,176" transform="translate(-68.74 -66.55)"/><path class="cls-8" d="M118.07,171.14a1.29,1.29,0,1,1-1.48-1.06A1.3,1.3,0,0,1,118.07,171.14Z" transform="translate(-68.74 -66.55)"/><path class="cls-8" d="M124.34,170.09a1.28,1.28,0,1,1-1.48-1.06A1.28,1.28,0,0,1,124.34,170.09Z" transform="translate(-68.74 -66.55)"/><path class="cls-38" d="M452.29,190.79a12.36,12.36,0,1,1-9.58-14.62A12.36,12.36,0,0,1,452.29,190.79Z" transform="translate(-68.74 -66.55)"/><path class="cls-22" d="M445.94,192.17a6.73,6.73,0,0,1-12.63-2.37" transform="translate(-68.74 -66.55)"/><path class="cls-11" d="M438.59,186.63a1.28,1.28,0,1,1-1-1.52A1.28,1.28,0,0,1,438.59,186.63Z" transform="translate(-68.74 -66.55)"/><path class="cls-11" d="M444.82,187.92a1.28,1.28,0,1,1-1-1.52A1.28,1.28,0,0,1,444.82,187.92Z" transform="translate(-68.74 -66.55)"/><path class="cls-35" d="M321.2,173.68a2.31,2.31,0,0,1-1.53,2.9l-.82.26-4.06,1.26a.39.39,0,0,1-.48-.25L313,173.63l-.16-.58a2.32,2.32,0,0,1,1.53-2.91h0a2.32,2.32,0,0,1,2.9,1.53l.21.73.82-.25a2.31,2.31,0,0,1,2.9,1.53Z" transform="translate(-68.74 -66.55)"/><path class="cls-35" d="M254.44,158.45a2.32,2.32,0,0,1,1.88,2.69l-.14.85-.74,4.19a.39.39,0,0,1-.45.31l-4.35-.77-.59-.12a2.32,2.32,0,0,1-1.88-2.69h0a2.32,2.32,0,0,1,2.69-1.88l.75.15.14-.85a2.33,2.33,0,0,1,2.69-1.88Z" transform="translate(-68.74 -66.55)"/><path class="cls-35" d="M296.21,152.59a8.55,8.55,0,0,1,3.18,11.66L297.83,167l-7.78,13.61a1.41,1.41,0,0,1-1.93.52L274,173l-1.89-1.13a8.55,8.55,0,0,1-3.17-11.66h0a8.54,8.54,0,0,1,11.65-3.18l2.41,1.45,1.56-2.75a8.54,8.54,0,0,1,11.65-3.18Z" transform="translate(-68.74 -66.55)"/></g></g></svg>