<svg id="Ñëîé_3" data-name="Ñëîé 3" xmlns="http://www.w3.org/2000/svg" viewBox="0 0 466.24 463.68"><defs><style>.cls-1{fill:#f4e1ef;}.cls-2{fill:#f7ebf4;}.cls-3{fill:#f590ae;}.cls-4{fill:#230f26;}.cls-5{fill:#ad8fcc;}.cls-6{fill:#2e1633;}.cls-7{fill:#f9f4f8;}.cls-8{fill:#e56791;}.cls-9{fill:#efd8e8;}.cls-10{fill:#f9edf6;}.cls-11{opacity:0.11;}.cls-12{fill:#7c5ba5;}</style></defs><title>feature4</title><path class="cls-1" d="M461.91,227l-.8-.6c.29-.38,29-38.92,29.55-59.3l1,0C491.09,187.82,463.11,225.4,461.91,227Z" transform="translate(-165.33 -36.77)"/><path class="cls-2" d="M467.4,332l-.67-.74c.34-.31,33.94-31,37.4-46.17l1,.23C501.58,300.75,468.8,330.71,467.4,332Z" transform="translate(-165.33 -36.77)"/><path class="cls-2" d="M454,283.29l-.59-.81c.39-.28,39.11-28.81,49.44-54.75l.93.37C493.38,254.3,454.42,283,454,283.29Z" transform="translate(-165.33 -36.77)"/><path class="cls-2" d="M447.55,156.44l-27.3-41.19.15-.27c8.23-14.11,27.08-34.13,41.07-35a12,12,0,0,1,10.84,4.89c13.67,17.73-22.78,68.84-24.34,71Zm-26.13-41.23,26.16,39.46c4.09-5.85,36.39-53.07,23.94-69.22a11.07,11.07,0,0,0-10-4.5C448,81.82,429.62,101.32,421.42,115.21Z" transform="translate(-165.33 -36.77)"/><path class="cls-2" d="M410.7,434.6c-26.5,32.37-21.25,56.85-21.81,65.73H201.23c2.94-22.24,1.74-40.19-5.79-46.62-9.95-8.51-36.52-82-28.69-162.08s5.74-69.79,5.22-97.86,1-55.32,27.26-20.54,17.41,114.9,17.41,114.9a249,249,0,0,1,22.65,50.76s142.11-23.81,168.83-54C459.24,227.17,519.73,301.36,410.7,434.6Z" transform="translate(-165.33 -36.77)"/><path class="cls-3" d="M339,496.06l-1,0c0-.17.21-17-19.18-35.75l.7-.72C339.21,478.63,339,495.89,339,496.06Z" transform="translate(-165.33 -36.77)"/><path class="cls-4" d="M445.31,47.22l36.25,401.41a11.5,11.5,0,0,1-10.4,12.46L249,481.16a11.51,11.51,0,0,1-12.47-10.41L200.29,69.35a11.5,11.5,0,0,1,10.4-12.47L432.84,36.82A11.51,11.51,0,0,1,445.31,47.22Z" transform="translate(-165.33 -36.77)"/><rect class="cls-5" x="229.98" y="68.19" width="220.41" height="365.16" rx="10.06" transform="translate(-186.51 -5.16) rotate(-5.16)"/><path class="cls-6" d="M293.16,63a3.38,3.38,0,0,1-3.35-3.07,3.32,3.32,0,0,1,.77-2.45,3.36,3.36,0,0,1,2.28-1.2l59-5.33a3.36,3.36,0,0,1,.61,6.7l-59,5.33Zm59-11.06H352l-59,5.33a2.37,2.37,0,0,0-2.14,2.57A2.36,2.36,0,0,0,293.37,62l59-5.34a2.35,2.35,0,0,0,1.29-4.16A2.31,2.31,0,0,0,352.2,51.92Z" transform="translate(-165.33 -36.77)"/><path class="cls-3" d="M177.26,210.33c-4.23,0-4.52-.43-4.78-.53l3.28-.54c.09,0,2.07,1.71,6.58-1.11a5.64,5.64,0,0,0,2.56-4.45c.55-5.1,2.9-30.89-4.73-37.41a6.5,6.5,0,0,0-6.32-1.15l-.26-1a7.52,7.52,0,0,1,7.23,1.36c7.81,6.67,5.86,31,5.07,38.28a6.59,6.59,0,0,1-3,5.19A10.64,10.64,0,0,1,177.26,210.33Z" transform="translate(-165.33 -36.77)"/><path class="cls-2" d="M481.67,260.84c15.57-11.47,39.06,25.76,12,43.59s-42.59,16.39-51.13-3.6C438.11,290.43,481.67,260.84,481.67,260.84Z" transform="translate(-165.33 -36.77)"/><path class="cls-3" d="M456.54,314.58A7.11,7.11,0,0,1,451,312l-5.54-6.76a7.21,7.21,0,0,1-.09-9c5.66-7.16,16.56-19.33,26-20.36a9.86,9.86,0,0,1,7.56,2.19,12,12,0,0,1,4.27,12.23c-1.87,9.69-12.6,20.21-24.44,24A7.52,7.52,0,0,1,456.54,314.58Zm16.08-37.79a10.88,10.88,0,0,0-1.13.07c-9.09,1-19.77,12.94-25.33,20a6.18,6.18,0,0,0,.08,7.71l5.53,6.76a6.17,6.17,0,0,0,6.7,2c11.33-3.59,22-14,23.75-23.18a11.06,11.06,0,0,0-3.91-11.27A8.77,8.77,0,0,0,472.62,276.79Z" transform="translate(-165.33 -36.77)"/><path class="cls-7" d="M332,243.4a44,44,0,1,1-47.78-39.87A43.83,43.83,0,0,1,332,243.4Z" transform="translate(-165.33 -36.77)"/><path class="cls-7" d="M434.56,234.13a44,44,0,1,1-47.78-39.86A43.86,43.86,0,0,1,434.56,234.13Z" transform="translate(-165.33 -36.77)"/><path class="cls-8" d="M323.25,273.9a44.5,44.5,0,0,1-4.21,4.8c-.29.28-.57.56-.87.83a43.87,43.87,0,0,1-26.05,11.65l-.67.05-.78,0-.33,0-.69,0a43.8,43.8,0,0,1-29.53-10.07c-.34-.28-.66-.55-1-.83a44,44,0,0,1-7.38-8.32c1.65-6.93,6.68-11.59,8.58-18.3,3-10.73-1.36-9.5,1.63-20.9s8.48-17.25,16.93-18.17c0,0,8.63-4.59,19.89,3.13,8.33,5.7,4.15,24,15.21,35.27C319.14,258.37,321.84,266.59,323.25,273.9Z" transform="translate(-165.33 -36.77)"/><path class="cls-9" d="M319,278.7c-.29.28-.57.56-.87.83-1.07-6.46-3.14-11.22-5.83-12.11a6.64,6.64,0,0,0-3.68.19,33.34,33.34,0,0,1-4.21.72,27.54,27.54,0,0,1-6.25-.37,5.85,5.85,0,0,1-5-5.79,18.1,18.1,0,0,1,1.35-6.51l.94.38a16.69,16.69,0,0,0-1.29,6.09,4.87,4.87,0,0,0,4.12,4.84,26.55,26.55,0,0,0,6,.36,25.78,25.78,0,0,0,4.07-.69,7.45,7.45,0,0,1,4.22-.16C315.84,267.53,317.92,271.53,319,278.7Z" transform="translate(-165.33 -36.77)"/><path class="cls-9" d="M277.67,269.81a26.89,26.89,0,0,1-6.07,1.48,30,30,0,0,1-4.27.06,6.51,6.51,0,0,0-3.66.47c-2.17,1.19-3.36,4.35-3.55,9.43-.34-.28-.66-.55-1-.83.3-5.05,1.63-8.17,4-9.47a7.38,7.38,0,0,1,4.18-.6,30.82,30.82,0,0,0,4.13-.05,26.61,26.61,0,0,0,5.85-1.43,4.86,4.86,0,0,0,3.19-5.45,16.92,16.92,0,0,0-2.36-5.81l.84-.54a18.13,18.13,0,0,1,2.49,6.11A5.86,5.86,0,0,1,277.67,269.81Z" transform="translate(-165.33 -36.77)"/><path class="cls-3" d="M299.89,230.12c0,4.73-.39,23.82-3.16,26-1.74,1.35-5.53,4.15-8.1,6l0,0a4.28,4.28,0,0,1-5.11,0c-3-2.26-7.74-5.92-9.3-7.52-2.33-2.4-4.5-18.77-4.5-18.77l14.06-13.6C286.22,225.77,299.89,230.12,299.89,230.12Z" transform="translate(-165.33 -36.77)"/><path class="cls-9" d="M275.44,249.59a8.56,8.56,0,1,1,8.53-9.33h0a8.55,8.55,0,0,1-7.75,9.29C276,249.57,275.7,249.59,275.44,249.59Zm0-16.11-.69,0a7.56,7.56,0,1,0,.69,0Z" transform="translate(-165.33 -36.77)"/><path class="cls-9" d="M295.4,247.78a8.55,8.55,0,1,1,8.53-9.32h0a8.55,8.55,0,0,1-7.75,9.29Q295.79,247.78,295.4,247.78Zm0-16.11c-.23,0-.46,0-.69,0a7.55,7.55,0,1,0,8.2,6.84h0a7.56,7.56,0,0,0-7.51-6.88Z" transform="translate(-165.33 -36.77)"/><rect class="cls-9" x="283.47" y="239.65" width="3.42" height="1" transform="translate(-185.76 -10.17) rotate(-5.16)"/><path class="cls-9" d="M290.54,288.81a5.55,5.55,0,0,0,.14.73h0a5.42,5.42,0,0,0,.77,1.68l-.78,0-.33,0a6.37,6.37,0,0,1-.62-1.5v0a5.83,5.83,0,0,0-.15-.73,6.76,6.76,0,0,1,.1-2.37,8,8,0,0,1,3.59-5l.54.85A6.68,6.68,0,0,0,290.54,288.81Z" transform="translate(-165.33 -36.77)"/><path class="cls-9" d="M291,252.45c-2.52,3.16-7.28,2.3-9.12,1l6.22-.2Z" transform="translate(-165.33 -36.77)"/><path class="cls-8" d="M422.32,268.72a44,44,0,0,1-58.94,3.82c.19-1.49.37-3,.42-3.74.16-2,18.21-10.34,18.21-10.34s1.66-6.53.88-8.87l8.3,1.72,9-3.27c-.36,2.44,2,9.37,2,9.37s18.06,4.28,18.57,6.25C421,264.69,421.71,266.87,422.32,268.72Z" transform="translate(-165.33 -36.77)"/><path class="cls-3" d="M420.75,263.66c-.46-1.77-15.2-5.43-18.08-6.13a19.24,19.24,0,0,1-11.77,5.41,13.59,13.59,0,0,1-10.48-3.74c-4.41,2.09-16.49,7.95-16.62,9.6-.05.79-.23,2.25-.42,3.74a44,44,0,0,0,58.94-3.82C421.71,266.87,421,264.69,420.75,263.66Z" transform="translate(-165.33 -36.77)"/><path class="cls-8" d="M397.66,289.34a13,13,0,0,1-2.81.57A20.9,20.9,0,0,0,397.66,289.34Z" transform="translate(-165.33 -36.77)"/><path class="cls-8" d="M391.12,289.93A21.47,21.47,0,0,0,394,290,13.81,13.81,0,0,1,391.12,289.93Z" transform="translate(-165.33 -36.77)"/><path class="cls-9" d="M290.68,289.54h0a5.58,5.58,0,0,1,0,1.73l-.33,0-.69,0,0-.09a5.41,5.41,0,0,0,.05-1.43v0a5.83,5.83,0,0,0-.15-.73,3,3,0,0,0-.13-.42c-.55-1.9-2.1-3.56-4.58-5l.48-.88a11.48,11.48,0,0,1,4.33,3.89,6.85,6.85,0,0,1,.73,1.64c0,.15.1.3.14.49A4.73,4.73,0,0,1,290.68,289.54Z" transform="translate(-165.33 -36.77)"/><path class="cls-8" d="M281.46,253.31a11.9,11.9,0,0,0,9.52-.86,12.71,12.71,0,0,1-1.66-.16,3.74,3.74,0,0,0-1.46-.12,2.14,2.14,0,0,0-1.05.66,2.58,2.58,0,0,0-1.56-.53,6,6,0,0,0-1.84.6A7.68,7.68,0,0,1,281.46,253.31Z" transform="translate(-165.33 -36.77)"/><path class="cls-8" d="M291,252.45A5,5,0,0,1,288.7,254a7.78,7.78,0,0,1-4.3.42,5,5,0,0,1-2.43-1l-.51-.11a5.92,5.92,0,0,0,1.65,1.82,5.21,5.21,0,0,0,3.61,1.16,4.92,4.92,0,0,0,3.16-1.6A4.78,4.78,0,0,0,291,252.45Z" transform="translate(-165.33 -36.77)"/><path class="cls-3" d="M403.6,222.32c1.14,5.63.84,16.43.53,20s-6.37,8.89-8.15,10.32-6.41,1.38-7.2,1.45-9.42-5.63-10.72-9.41-4.17-21.42-2-25.28,12.93-8.6,17.39-6.8S403.6,222.32,403.6,222.32Z" transform="translate(-165.33 -36.77)"/><path class="cls-8" d="M392.05,219.48c-14.52,1.52-20.06-4-18.47-11.39a24.24,24.24,0,0,0,8.28,1.38c5.09.12,15.89-.54,17.1.35,3.94,2.91,5.81,6,6.24,13.49s-.81,8.52-.81,8.52l-6.85-9.91Z" transform="translate(-165.33 -36.77)"/><path class="cls-8" d="M382.54,217.07c-5,5.73-6.48,17.32-6.48,17.32s-4.93-10.26-3.52-14.15a47,47,0,0,1,3-6.69Z" transform="translate(-165.33 -36.77)"/><path class="cls-3" d="M377.32,234.3c-2.07-1.71-2.67-3-4.15-2.09s1.55,7,2.64,7.23,2.15,1.9,2.15,1.9Z" transform="translate(-165.33 -36.77)"/><path class="cls-3" d="M402.41,232c1.73-2.05,2.09-3.43,3.71-2.8s-.26,7.21-1.29,7.59-1.78,2.25-1.78,2.25Z" transform="translate(-165.33 -36.77)"/><path class="cls-9" d="M406.77,228.07l-.86-1.61c-1.45-2.72-5.91-9.73-9.06-9.42-19.68,1.78-23.59-8.34-23.74-8.78l-.53-1.45,1.28.87c10.78,7.32,25.25,3.66,25.4,3.62l.19-.05.17.1c.08,0,7.7,4.21,7.23,14.9ZM397,216c3.33,0,7.1,5.49,8.82,8.32a14.76,14.76,0,0,0-6.54-12c-1.73.4-14.1,3-24.26-2.73,2.05,2.73,7.77,7.72,21.71,6.45Z" transform="translate(-165.33 -36.77)"/><path class="cls-8" d="M389.45,246.32c6.56-.59,7.69-3.86,7.69-3.86a5.68,5.68,0,0,1-2.25,2.93C393.28,246.29,389.45,246.32,389.45,246.32Z" transform="translate(-165.33 -36.77)"/><path class="cls-8" d="M395.89,241.64a9.26,9.26,0,0,1,1.83.77l.09,1.06.41-1.11Z" transform="translate(-165.33 -36.77)"/><path class="cls-9" d="M391.08,263.51a17.41,17.41,0,0,1-11.95-4.89l.71-.71a16.58,16.58,0,0,0,11.24,4.6h.17c4.47-.05,8.62-2.06,12.35-6l.72.69c-3.92,4.12-8.31,6.24-13.06,6.29Z" transform="translate(-165.33 -36.77)"/><path class="cls-10" d="M335.61,200l-9.84-15-27.84,2.52a7.29,7.29,0,0,1-7.87-6.57L284,114a7.25,7.25,0,0,1,6.56-7.88l72.48-6.55a7.27,7.27,0,0,1,7.88,6.58l6,66.91a7.26,7.26,0,0,1-6.57,7.87L342,183.51Zm-9.34-16.06,9.11,13.89,5.95-15.25,29-2.62a6.26,6.26,0,0,0,5.67-6.78l-6-66.91a6.27,6.27,0,0,0-6.8-5.67l-72.48,6.54a6.26,6.26,0,0,0-5.66,6.8l6,66.91a6.26,6.26,0,0,0,6.79,5.66Z" transform="translate(-165.33 -36.77)"/><path class="cls-7" d="M361.39,137.66c1.81,20-28.75,34.53-28.75,34.53s-33-12.33-34.48-28.82a18.11,18.11,0,0,1,30.55-14.72,18.1,18.1,0,0,1,32.68,9Z" transform="translate(-165.33 -36.77)"/><path class="cls-6" d="M357.8,465.38a14.66,14.66,0,1,1,1.33-.06C358.69,465.36,358.24,465.38,357.8,465.38Zm0-28.3c-.41,0-.83,0-1.24.05a13.71,13.71,0,1,0,1.24-.05Z" transform="translate(-165.33 -36.77)"/><rect class="cls-6" x="352.13" y="445.04" width="11.38" height="11.38" rx="1.96" transform="translate(-204.43 -2.76) rotate(-5.16)"/><rect class="cls-7" x="315.22" y="339.86" width="69.36" height="42.03" rx="4.32" transform="translate(-196.37 -3.84) rotate(-5.16)"/><path class="cls-5" d="M350,361.45l-.25-.11c-1.67-.72-40.79-17.77-44.85-20.82l.6-.8c3.8,2.86,40.95,19.09,44.39,20.59,2.71-1.84,28.49-19.53,36-27.85l.74.67c-8,8.83-36.13,28-36.41,28.16Z" transform="translate(-165.33 -36.77)"/><path class="cls-8" d="M386.58,336.86a8.67,8.67,0,1,1-9.4-7.85A8.66,8.66,0,0,1,386.58,336.86Z" transform="translate(-165.33 -36.77)"/><path class="cls-9" d="M383.72,335.84c.34,3.73-5.35,6.43-5.35,6.43s-6.14-2.3-6.41-5.37a3.37,3.37,0,0,1,5.68-2.74,3.37,3.37,0,0,1,6.08,1.68Z" transform="translate(-165.33 -36.77)"/><g class="cls-11"><path class="cls-9" d="M446.83,64l16.34,181-113,227L249,481.16a11.47,11.47,0,0,1-8.43-2.67Z" transform="translate(-165.33 -36.77)"/></g><path class="cls-12" d="M434.42,69l.64,7.07L215.54,95.93l-.64-7.07A10.1,10.1,0,0,1,224,77.94l199.48-18A10.1,10.1,0,0,1,434.42,69Z" transform="translate(-165.33 -36.77)"/><path class="cls-2" d="M460.13,142.89c11.32-16.9,47.84,11.58,27.4,38.88s-36.32,31.39-51.89,14.64C427.55,187.7,460.13,142.89,460.13,142.89Z" transform="translate(-165.33 -36.77)"/><path class="cls-2" d="M454.39,206.86c-6.54,0-12.8-3.32-19.12-10.11-8.26-8.89,23-52.19,24.45-54.15A11.84,11.84,0,0,1,471,137.37c8,.68,16.75,7.58,20.72,16.42,4.19,9.35,2.84,19.39-3.82,28.28-12.08,16.14-22.72,24.24-32.5,24.76Zm15.36-68.55a10.59,10.59,0,0,0-9.21,4.86v0c-.32.44-32.25,44.57-24.52,52.88,6.43,6.92,12.79,10.11,19.36,9.76,9.47-.5,19.86-8.47,31.76-24.36,6.43-8.59,7.74-18.27,3.71-27.27-3.83-8.53-12.2-15.18-19.9-15.83A11.42,11.42,0,0,0,469.75,138.31Z" transform="translate(-165.33 -36.77)"/><path class="cls-3" d="M451.45,204.52a11.73,11.73,0,0,1-6-1.67l-2.4-1.44a11.7,11.7,0,0,1-4.95-14.09c4.3-11.71,13.35-30.7,25.48-26.39a12.51,12.51,0,0,1,8.4,9.71c1.9,9-3.52,22.26-12.59,30.78A11.57,11.57,0,0,1,451.45,204.52ZM445.94,202a10.68,10.68,0,0,0,12.74-1.31c8.83-8.3,14.12-21.13,12.29-29.84a11.57,11.57,0,0,0-7.76-9c-11.33-4-20,14.44-24.21,25.8a10.71,10.71,0,0,0,4.53,12.88Z" transform="translate(-165.33 -36.77)"/><path class="cls-2" d="M477.09,196.19c13.46-15.26,45.89,17.8,22,42.16S459,264.66,445.74,246C438.87,236.3,477.09,196.19,477.09,196.19Z" transform="translate(-165.33 -36.77)"/><path class="cls-3" d="M461.79,256.82a9.36,9.36,0,0,1-5.82-2l-5.11-4.07a9.33,9.33,0,0,1-2.52-11.45c4.14-8.18,12.44-22.36,21.59-25.34a10.35,10.35,0,0,1,8.17.6,12.61,12.61,0,0,1,7.08,11.28c.41,9.89-7.78,22.92-18.64,29.68A9,9,0,0,1,461.79,256.82Zm11.59-42.47a10.27,10.27,0,0,0-3.14.52c-8.81,2.87-16.94,16.8-21,24.84a8.32,8.32,0,0,0,2.24,10.22l5.11,4.07a8.22,8.22,0,0,0,9.42.63c10.58-6.58,18.56-19.23,18.17-28.78a11.65,11.65,0,0,0-6.54-10.44A9.29,9.29,0,0,0,473.38,214.35Z" transform="translate(-165.33 -36.77)"/><rect class="cls-5" x="397.16" y="67.48" width="22.65" height="7.67" rx="1.57" transform="translate(-170.09 0.26) rotate(-5.16)"/><rect class="cls-5" x="393.1" y="69.58" width="2.67" height="6" rx="0.48" transform="translate(-170.26 -1) rotate(-5.16)"/><rect class="cls-5" x="378.4" y="74" width="1.71" height="2.96" rx="0.27" transform="translate(-170.58 -2.37) rotate(-5.16)"/><rect class="cls-5" x="380.96" y="72.58" width="1.71" height="4.15" rx="0.32" transform="translate(-170.49 -2.16) rotate(-5.16)"/><rect class="cls-5" x="383.54" y="70.67" width="1.71" height="5.82" rx="0.38" transform="translate(-170.39 -1.93) rotate(-5.16)"/><rect class="cls-5" x="386.16" y="69.42" width="1.71" height="6.84" rx="0.41" transform="translate(-170.32 -1.64) rotate(-5.16)"/><g class="cls-11"><polygon class="cls-9" points="245.99 1.99 65.04 365.66 59.44 303.62 207.8 5.44 245.99 1.99"/></g><path class="cls-5" d="M235.56,87.05a2.93,2.93,0,1,1-3.18-2.66A2.93,2.93,0,0,1,235.56,87.05Z" transform="translate(-165.33 -36.77)"/><path class="cls-5" d="M243.33,86.34a2.93,2.93,0,1,1-3.19-2.65A2.94,2.94,0,0,1,243.33,86.34Z" transform="translate(-165.33 -36.77)"/><path class="cls-5" d="M251.09,85.64A2.93,2.93,0,1,1,247.91,83,2.93,2.93,0,0,1,251.09,85.64Z" transform="translate(-165.33 -36.77)"/><path class="cls-5" d="M258.86,84.94a2.93,2.93,0,1,1-3.19-2.65A2.94,2.94,0,0,1,258.86,84.94Z" transform="translate(-165.33 -36.77)"/><rect class="cls-5" x="308.62" y="76.26" width="5.32" height="7.67" rx="0.76" transform="translate(-171.27 -8.45) rotate(-5.16)"/><rect class="cls-5" x="315.34" y="75.65" width="5.32" height="7.67" rx="0.76" transform="translate(-171.19 -7.85) rotate(-5.16)"/><rect class="cls-5" x="328.66" y="74.45" width="5.32" height="7.67" rx="0.76" transform="matrix(1, -0.09, 0.09, 1, -171.03, -6.65)"/><rect class="cls-5" x="335.38" y="73.84" width="5.32" height="7.67" rx="0.76" transform="translate(-170.95 -6.05) rotate(-5.16)"/><path class="cls-5" d="M325.71,77.17a1.2,1.2,0,1,1-1.3-1.09A1.2,1.2,0,0,1,325.71,77.17Z" transform="translate(-165.33 -36.77)"/><path class="cls-5" d="M326,80.31a1.2,1.2,0,1,1-1.3-1.09A1.2,1.2,0,0,1,326,80.31Z" transform="translate(-165.33 -36.77)"/><path class="cls-2" d="M530.85,500.33c-11.13-32.66-118.14-170.68-137.67-158.77-5.26,3.21-7.95,6.32-8.87,9.68-3,10.83,5.78,22.87,10.6,29.07,37.4,48.1,61.24,79.1,71.17,97.95,1,1.95,11.34,21.7,11.35,21.71h0Z" transform="translate(-165.33 -36.77)"/><path class="cls-3" d="M419.25,371.58a23.81,23.81,0,0,1-12.45-4.14c-5.26-3.41-15.79-16.31-16.24-16.86l.78-.63c.1.13,10.87,13.33,16,16.65,7.25,4.69,13.8,4.73,17.06,2.68a5.4,5.4,0,0,0,2.52-5.61l1-.13a6.43,6.43,0,0,1-3,6.59A10.65,10.65,0,0,1,419.25,371.58Z" transform="translate(-165.33 -36.77)"/><path class="cls-2" d="M631.57,500.33H511.45c-9.25-23.09-24.63-68.67-24.63-68.67,17.54-10.86,20-15.45,40.59-1.37,0,0,11.71-16.31,33.86,1.37,0,0,15.42-11.39,34.57,7C609.78,452.08,624.57,484,631.57,500.33Z" transform="translate(-165.33 -36.77)"/><path class="cls-3" d="M533.16,447.69c-7.89-22.8-6.14-17.09-6.16-17.12l.85-.53c.09.15-1.72-5.71,6.25,17.33Z" transform="translate(-165.33 -36.77)"/><path class="cls-3" d="M567.18,447.68c0-.17,8.74,5.64-6.46-15.73l.82-.58c15.29,21.52,6.55,15.85,6.6,16Z" transform="translate(-165.33 -36.77)"/><path class="cls-1" d="M427.48,500.33l.69-4.7c2.85-10.56,12.11-22,36.88,4.7Z" transform="translate(-165.33 -36.77)"/><path class="cls-3" d="M451.91,500.45c-1-4.05-5.19-10.42-5.94-11.53-8.85-1.66-17.36,7-17.44,7.06l-.72-.7c.37-.38,9.12-9.23,18.56-7.3l.19,0,.12.17c.2.3,5.1,7.42,6.21,12Z" transform="translate(-165.33 -36.77)"/><path class="cls-3" d="M477,500.15C464.75,468.76,404,393.73,403.34,393c-10.93-13.39-18.73-26.55-19.86-33.53a18.24,18.24,0,0,1,.81-9.55,16.61,16.61,0,0,1,3.53-5c1.68-1.74,4.21-4.37,7.72-4.71a9.82,9.82,0,0,1,5.55,1.32c7.71,4,20.57,13.86,23.07,15.79,2.36,2.57,56.25,61.67,63.07,74,.84.89,13,13.82,17.57,22.65l-.88.46c-4.67-9-17.33-22.33-17.46-22.46l-.07-.11c-6.64-12.14-62.34-73.22-62.9-73.83-2.43-1.87-15.23-11.68-22.86-15.65a8.62,8.62,0,0,0-5-1.21c-3.15.31-5.43,2.68-7.1,4.42a15.25,15.25,0,0,0-3.33,4.68,17.53,17.53,0,0,0-.74,9c1.1,6.82,8.82,19.8,19.65,33.06.61.75,61.51,75.9,73.78,107.44Z" transform="translate(-165.33 -36.77)"/><path class="cls-2" d="M306.6,306.47l-.14,4.22,2.7-.24.07.75-2.8.25-.11,3.73-.75.07.11-3.74-4.08.37-.13,3.74-.75.06.12-3.73-2.69.25-.07-.75,2.78-.25L301,307l-2.72.24-.07-.74,2.81-.26.12-3.73.76-.07-.13,3.73,4.1-.37.12-3.73.74-.07-.11,3.74,2.68-.25.07.75Zm-.75.07-4.1.37-.12,4.22,4.08-.37Z" transform="translate(-165.33 -36.77)"/><path class="cls-2" d="M311.54,302.29A.76.76,0,0,1,312,301a.76.76,0,0,1,.56.16.72.72,0,0,1,.27.52.73.73,0,0,1-.18.56.74.74,0,0,1-.52.27A.75.75,0,0,1,311.54,302.29Zm.31,2.58.93-.09.88,9.74-.93.08Z" transform="translate(-165.33 -36.77)"/><path class="cls-2" d="M322.37,313.11a2.49,2.49,0,0,1-.84.59,3.44,3.44,0,0,1-1.09.28,2.42,2.42,0,0,1-2.89-2.41l-.58-6.36-1.79.17-.07-.81,1.79-.16-.19-2.12.93-.09.19,2.13,3.1-.28.07.8-3.09.28.56,6.26a2.1,2.1,0,0,0,.59,1.41,1.78,1.78,0,0,0,1.4.37,2.19,2.19,0,0,0,1.46-.68Z" transform="translate(-165.33 -36.77)"/><path class="cls-2" d="M325.21,313.19a4.68,4.68,0,0,1-1.74-.74l.37-.79a4.69,4.69,0,0,0,1.61.7,5.82,5.82,0,0,0,2,.16,4,4,0,0,0,2.13-.68,1.55,1.55,0,0,0,.57-1.41,1.21,1.21,0,0,0-.47-.93,2.36,2.36,0,0,0-1-.44,14.1,14.1,0,0,0-1.57-.21,13.21,13.21,0,0,1-1.91-.28,2.94,2.94,0,0,1-1.28-.68,2.11,2.11,0,0,1-.64-1.44,2.33,2.33,0,0,1,.79-2,4.3,4.3,0,0,1,2.66-1,6.55,6.55,0,0,1,1.87.09,4.69,4.69,0,0,1,1.55.56l-.36.78a4.54,4.54,0,0,0-1.42-.53,5.58,5.58,0,0,0-1.58-.08,3.46,3.46,0,0,0-2,.69,1.57,1.57,0,0,0-.57,1.38,1.35,1.35,0,0,0,.48,1,2.58,2.58,0,0,0,1,.45c.39.08.94.16,1.63.24a14.71,14.71,0,0,1,1.88.27,2.78,2.78,0,0,1,1.25.65,2,2,0,0,1,.61,1.39,2.25,2.25,0,0,1-.83,2,4.77,4.77,0,0,1-2.77,1A7.15,7.15,0,0,1,325.21,313.19Z" transform="translate(-165.33 -36.77)"/><path class="cls-2" d="M339.19,303.25a3.62,3.62,0,0,1,1.21,2.63l.56,6.17-.9.08-.15-1.73a3.28,3.28,0,0,1-1.24,1.45,4.39,4.39,0,0,1-2.11.67,4,4,0,0,1-2.63-.53,2.46,2.46,0,0,1-1.12-1.93,2.43,2.43,0,0,1,.69-2,4.18,4.18,0,0,1,2.7-1l3.34-.3-.08-.78a2.77,2.77,0,0,0-.92-2,3.06,3.06,0,0,0-2.22-.51,5.41,5.41,0,0,0-1.82.5,4.64,4.64,0,0,0-1.42,1l-.53-.63a5.5,5.5,0,0,1,1.66-1.17,6.59,6.59,0,0,1,2.11-.56A3.94,3.94,0,0,1,339.19,303.25Zm-.56,7.75a3.4,3.4,0,0,0,1.14-1.74l-.17-1.82-3.32.3a3.25,3.25,0,0,0-2,.71,1.72,1.72,0,0,0-.51,1.49,1.82,1.82,0,0,0,.84,1.44,3.21,3.21,0,0,0,2,.37A3.67,3.67,0,0,0,338.63,311Z" transform="translate(-165.33 -36.77)"/><path class="cls-2" d="M359,301.61a4.23,4.23,0,0,1,1.31,3l.51,5.69-.93.08-.5-5.61a3.56,3.56,0,0,0-1-2.42,2.9,2.9,0,0,0-2.32-.66,3.43,3.43,0,0,0-2.51,1.26,4,4,0,0,0-.71,2.85l.47,5.18-.93.08-.51-5.61a3.56,3.56,0,0,0-1-2.42,2.9,2.9,0,0,0-2.32-.66,3.43,3.43,0,0,0-2.51,1.26,3.91,3.91,0,0,0-.71,2.85l.47,5.18-.93.08-.88-9.73.89-.08L345,304a3.68,3.68,0,0,1,1.3-1.73,4.5,4.5,0,0,1,2.24-.77,4.08,4.08,0,0,1,2.3.39,3.29,3.29,0,0,1,1.47,1.64,3.8,3.8,0,0,1,1.36-1.85,4.61,4.61,0,0,1,2.36-.86A3.77,3.77,0,0,1,359,301.61Z" transform="translate(-165.33 -36.77)"/><path class="cls-2" d="M369.89,300.48a3.61,3.61,0,0,1,1.22,2.63l.55,6.17-.89.08-.16-1.73a3.28,3.28,0,0,1-1.24,1.45,4.5,4.5,0,0,1-2.1.67,4,4,0,0,1-2.63-.53,2.5,2.5,0,0,1-1.13-1.93,2.53,2.53,0,0,1,.69-2.05,4.22,4.22,0,0,1,2.7-1l3.34-.3-.07-.79a2.77,2.77,0,0,0-.92-2,3,3,0,0,0-2.22-.51,5.13,5.13,0,0,0-1.82.5,4.64,4.64,0,0,0-1.42,1l-.53-.63a5.17,5.17,0,0,1,1.66-1.17,6.34,6.34,0,0,1,2.11-.56A3.86,3.86,0,0,1,369.89,300.48Zm-.55,7.75a3.42,3.42,0,0,0,1.13-1.74l-.16-1.83L367,305a3.35,3.35,0,0,0-2,.71,1.93,1.93,0,0,0,.33,2.93,3.12,3.12,0,0,0,2,.37A3.67,3.67,0,0,0,369.34,308.23Z" transform="translate(-165.33 -36.77)"/><path class="cls-2" d="M380.28,307.88a2.36,2.36,0,0,1-.84.59,3.44,3.44,0,0,1-1.09.28,2.42,2.42,0,0,1-2.89-2.41l-.58-6.36-1.79.17-.07-.81,1.79-.16-.19-2.12.93-.09.19,2.13,3.1-.28.07.8-3.09.28.56,6.26a2.1,2.1,0,0,0,.59,1.41,1.78,1.78,0,0,0,1.4.37,2.19,2.19,0,0,0,1.46-.68Z" transform="translate(-165.33 -36.77)"/><path class="cls-2" d="M383.84,307.62a4.59,4.59,0,0,1-1.91-1.61,5,5,0,0,1-.86-2.49,5.18,5.18,0,0,1,.4-2.62,4.58,4.58,0,0,1,1.6-1.91,5.39,5.39,0,0,1,4.65-.59,4,4,0,0,1,1.68,1.19l-.65.57a3.26,3.26,0,0,0-1.39-1,3.87,3.87,0,0,0-1.74-.21,4,4,0,0,0-2,.69,3.57,3.57,0,0,0-1.29,1.58,4.75,4.75,0,0,0,.39,4.29,3.55,3.55,0,0,0,1.54,1.31,4.28,4.28,0,0,0,3.77-.19,3.34,3.34,0,0,0,1.19-1.2l.74.44a3.91,3.91,0,0,1-1.44,1.47,4.94,4.94,0,0,1-2.09.65A5.11,5.11,0,0,1,383.84,307.62Z" transform="translate(-165.33 -36.77)"/><path class="cls-2" d="M399.61,297.94a4.15,4.15,0,0,1,1.33,3l.52,5.69-.93.08-.51-5.61a3.45,3.45,0,0,0-1.06-2.42,3,3,0,0,0-2.39-.65,3.53,3.53,0,0,0-2.61,1.27,3.78,3.78,0,0,0-.74,2.85l.46,5.18-.93.08-1.25-13.83.93-.08.56,6.13a3.51,3.51,0,0,1,1.35-1.69,4.65,4.65,0,0,1,2.28-.76A4,4,0,0,1,399.61,297.94Z" transform="translate(-165.33 -36.77)"/></svg>