<svg xmlns="http://www.w3.org/2000/svg" xmlns:xlink="http://www.w3.org/1999/xlink" viewBox="0 0 425.14 397.71"><defs><style>.cls-1{isolation:isolate;}.cls-2{fill:#ebebff;}.cls-3{fill:#efe6e8;}.cls-4{fill:#35357c;}.cls-5{fill:#5f59ce;}.cls-6{fill:#47e2cc;}.cls-18,.cls-6{opacity:0.5;}.cls-18,.cls-25,.cls-6{mix-blend-mode:multiply;}.cls-7{fill:#40409b;}.cls-8{fill:#6a6adb;}.cls-9{fill:#6d63ce;}.cls-10{fill:#6b6bdd;}.cls-11{fill:url(#linear-gradient);}.cls-12{fill:#564bbc;}.cls-13{fill:#7268d8;}.cls-14{fill:#b4a7f9;}.cls-15{fill:#f4f3ff;}.cls-16{fill:#fff;}.cls-17{fill:#8c7ae9;}.cls-18{fill:#e0e0e0;}.cls-19{fill:#c4306c;}.cls-20{fill:#ffa4a4;}.cls-21{fill:#d83972;}.cls-22{fill:#c62c6b;}.cls-23{fill:#bd66cc;}.cls-24{fill:#e74479;}.cls-25{fill:#e8c4ba;opacity:0.7;}.cls-26{fill:#7365de;}.cls-27{fill:#9b48aa;}.cls-28{fill:#af57bc;}.cls-29{fill:#f29191;}.cls-30{fill:none;stroke:#fff;stroke-miterlimit:10;}.cls-31{fill:#4949b7;}.cls-32{fill:#9b49aa;}.cls-33{fill:#ef5299;}.cls-34{fill:#2c2c6b;}</style><linearGradient id="linear-gradient" x1="138.99" y1="64.45" x2="395.92" y2="321.38" gradientUnits="userSpaceOnUse"><stop offset="0" stop-color="#fcffff"/><stop offset="0.19" stop-color="#f4f6fd"/><stop offset="0.67" stop-color="#e4e3f9"/><stop offset="1" stop-color="#dedcf7"/></linearGradient></defs><title>feature1</title><g class="cls-1"><g id="OBJECTS"><path class="cls-2" d="M207.11,88.47a8.6,8.6,0,0,1-8.61,8.6H93a8.6,8.6,0,0,1-8.61-8.6h0A8.6,8.6,0,0,1,93,79.86H198.5a8.6,8.6,0,0,1,8.61,8.61Z" transform="translate(-37.43 -51.15)"/><path class="cls-2" d="M242.2,143.22a8.6,8.6,0,0,1-8.61,8.61H128.1a8.6,8.6,0,0,1-8.61-8.61h0a8.6,8.6,0,0,1,8.61-8.6H233.59a8.6,8.6,0,0,1,8.61,8.6Z" transform="translate(-37.43 -51.15)"/><path class="cls-2" d="M185.42,171.3a8.61,8.61,0,0,1-8.61,8.61H71.31a8.61,8.61,0,0,1-8.61-8.61h0a8.61,8.61,0,0,1,8.61-8.6h105.5a8.61,8.61,0,0,1,8.61,8.6Z" transform="translate(-37.43 -51.15)"/><path class="cls-2" d="M206.94,200a8.6,8.6,0,0,1-8.61,8.6H92.83a8.6,8.6,0,0,1-8.6-8.6h0a8.6,8.6,0,0,1,8.6-8.61h105.5a8.6,8.6,0,0,1,8.61,8.61Z" transform="translate(-37.43 -51.15)"/><path class="cls-2" d="M112.93,115.06a8.61,8.61,0,0,1-8.61,8.6H46a8.6,8.6,0,0,1-8.61-8.6h0A8.6,8.6,0,0,1,46,106.45h58.28a8.61,8.61,0,0,1,8.61,8.61Z" transform="translate(-37.43 -51.15)"/><path class="cls-2" d="M203,115.06a8.61,8.61,0,0,1-8.61,8.6H136.1a8.6,8.6,0,0,1-8.61-8.6h0a8.6,8.6,0,0,1,8.61-8.61h58.28a8.61,8.61,0,0,1,8.61,8.61Z" transform="translate(-37.43 -51.15)"/><path class="cls-2" d="M295,287.5a9,9,0,0,0,9,9H414a9,9,0,0,0,9-9h0a9,9,0,0,0-9-9H304a9,9,0,0,0-9,9Z" transform="translate(-37.43 -51.15)"/><path class="cls-2" d="M307.07,344.6a9,9,0,0,0,9,9h110a9,9,0,0,0,9-9h0a9,9,0,0,0-9-9H316a9,9,0,0,0-9,9Z" transform="translate(-37.43 -51.15)"/><path class="cls-2" d="M317.67,373.89a9,9,0,0,0,9,9h110a9,9,0,0,0,9-9h0a9,9,0,0,0-9-9h-110a9,9,0,0,0-9,9Z" transform="translate(-37.43 -51.15)"/><path class="cls-2" d="M295.22,403.84a9,9,0,0,0,9,9h110a9,9,0,0,0,9-9h0a9,9,0,0,0-9-9h-110a9,9,0,0,0-9,9Z" transform="translate(-37.43 -51.15)"/><path class="cls-2" d="M383.83,315.23a9,9,0,0,0,9,9h60.78a9,9,0,0,0,9-9h0a9,9,0,0,0-9-9H392.81a9,9,0,0,0-9,9Z" transform="translate(-37.43 -51.15)"/><path class="cls-2" d="M299.35,315.23a9,9,0,0,0,9,9h60.78a9,9,0,0,0,9-9h0a9,9,0,0,0-9-9H308.33a9,9,0,0,0-9,9Z" transform="translate(-37.43 -51.15)"/><ellipse class="cls-3" cx="212.57" cy="386.89" rx="180.99" ry="10.81"/><path class="cls-4" d="M130,378.68s28.43-6.93,26.58-23.62-10.42-20.88-13.24-29.91,18.36-22.38,13.33-38.27-21-20.15-22.58-26.05,6.67-17.64,9.63-25.68-7.54-36.16-22.06-39.86-15.76,13-12.36,27.81S102.14,244,96,261.68s1.23,32.81,3.09,40.23-11.44,11.43-16.38,26.58.93,34.3,22.87,53.77S130,378.68,130,378.68Z" transform="translate(-37.43 -51.15)"/><path class="cls-5" d="M125.08,384.47c0-.27,1.32-27.1-6-44.89-4.15-10.07.33-15.75,4.67-21.24,3.25-4.12,6.33-8,5.56-13.41-.8-5.56-3.47-10.07-6.06-14.43-3.27-5.51-6.36-10.72-5.82-17.8.7-9.24,3.62-15.7,6.2-21.41,1-2.31,2-4.5,2.84-6.76,2.9-8.14-1.13-26.49-5.2-32.94l-.84.53c3.87,6.15,7.86,24.32,5.1,32.08-.79,2.21-1.77,4.38-2.81,6.68-2.61,5.78-5.58,12.33-6.29,21.75-.56,7.39,2.75,13,6,18.38,2.54,4.28,5.16,8.7,5.92,14.06.72,5-2.23,8.71-5.34,12.65-4.31,5.45-9.19,11.63-4.82,22.24,7.26,17.58,6,44.19,6,44.45Z" transform="translate(-37.43 -51.15)"/><polygon class="cls-5" points="88.09 173.92 94.83 163.44 93.99 162.9 87.71 172.66 75.63 167.28 75.22 168.2 88.09 173.92"/><polygon class="cls-5" points="89.05 192.09 104.32 180.36 103.71 179.56 89 190.87 76.52 182.9 75.98 183.75 89.05 192.09"/><polygon class="cls-5" points="79.95 218.02 93.49 208.96 92.93 208.13 79.96 216.81 66.81 207.52 66.23 208.34 79.95 218.02"/><polygon class="cls-5" points="87.03 242.71 102.27 226.67 101.54 225.98 86.7 241.62 61.82 236.26 61.61 237.24 87.03 242.71"/><polygon class="cls-5" points="87.14 266.51 87.3 266.46 110.85 258.9 110.54 257.95 87.17 265.45 64.39 256.75 64.03 257.68 87.14 266.51"/><polygon class="cls-5" points="84.89 301.55 104.36 282.51 103.67 281.8 84.69 300.34 51.34 283.99 50.9 284.89 84.89 301.55"/><polygon class="cls-5" points="87.32 327.89 112.74 309.62 112.16 308.81 87.19 326.75 61.49 316.49 61.12 317.41 87.32 327.89"/><path class="cls-6" d="M156.62,286.88c-3.1-9.78-10.34-15.16-15.82-19.23a40,40,0,0,0,1.12,5.92c2.77,10.38-5.79,14.63-10.83,27s1,22.95,2.52,28.14-9.32,8-13.35,18.59c-3.38,8.88-.56,19.74,11,31,5.53-1.6,26.91-8.73,25.29-23.27-1.85-16.68-10.42-20.88-13.24-29.91S161.65,302.77,156.62,286.88Z" transform="translate(-37.43 -51.15)"/><path class="cls-7" d="M162.16,382.48s19.68-4.8,18.4-16.35-7.21-14.46-9.17-20.71,12.71-15.49,9.23-26.49S166.11,305,165,300.9s4.62-12.22,6.67-17.78-5.22-25-15.28-27.6-10.91,9-8.55,19.26-4.92,14.48-9.2,26.71.85,22.71,2.14,27.84-7.92,7.92-11.34,18.4.64,23.75,15.83,37.23S162.16,382.48,162.16,382.48Z" transform="translate(-37.43 -51.15)"/><path class="cls-5" d="M157.89,384.47c0-.2.94-19.31-4.29-32-2.92-7.09.24-11.09,3.3-15,2.34-3,4.54-5.74,4-9.65s-2.48-7.2-4.32-10.32c-2.32-3.9-4.5-7.58-4.12-12.57.49-6.55,2.56-11.13,4.39-15.18.75-1.65,1.46-3.21,2-4.82,2.07-5.83-.8-19-3.71-23.56l-.85.54c2.75,4.35,5.57,17.2,3.62,22.68-.56,1.58-1.26,3.12-2,4.75-1.86,4.12-4,8.79-4.48,15.51-.4,5.3,2,9.3,4.26,13.16,1.79,3,3.65,6.17,4.19,9.95.5,3.48-1.58,6.11-3.77,8.89-3.09,3.9-6.59,8.33-3.44,16,5.14,12.47,4.22,31.36,4.21,31.55Z" transform="translate(-37.43 -51.15)"/><polygon class="cls-5" points="120.69 220.12 125.55 212.56 124.7 212.02 120.31 218.86 111.83 215.09 111.42 216 120.69 220.12"/><polygon class="cls-5" points="121.28 233.07 132.25 225.03 131.66 224.23 121.32 231.79 113.03 224.75 112.38 225.51 121.28 233.07"/><polygon class="cls-5" points="114.83 251.47 126.06 244.55 125.53 243.7 114.86 250.28 105.58 243.72 105 244.54 114.83 251.47"/><polygon class="cls-5" points="119.89 269.02 132.77 258.94 132.15 258.15 119.64 267.94 101.98 264.14 101.77 265.12 119.89 269.02"/><polygon class="cls-5" points="116.72 289.74 139.43 278.37 138.99 277.47 116.87 288.55 106.66 279.67 106.01 280.42 116.72 289.74"/><polygon class="cls-5" points="118.38 310.89 132.31 297.28 131.61 296.56 118.19 309.68 94.55 298.1 94.11 298.99 118.38 310.89"/><polygon class="cls-5" points="120.11 329.61 138.25 316.58 137.67 315.76 119.97 328.48 101.77 321.21 101.4 322.13 120.11 329.61"/><path class="cls-5" d="M184.24,376.43H91.86s2.87,59.1,20.27,59.1h49.33C183.59,435.53,184.24,376.43,184.24,376.43Z" transform="translate(-37.43 -51.15)"/><path class="cls-8" d="M119.21,376.43H91.86s2.87,59.1,20.27,59.1h27.34C122.08,435.53,119.21,376.43,119.21,376.43Z" transform="translate(-37.43 -51.15)"/><rect class="cls-9" x="365.84" y="65.49" width="10.52" height="28.08" rx="1.76"/><rect class="cls-9" x="365.84" y="95.99" width="10.52" height="28.08" rx="1.76"/><rect class="cls-9" x="365.84" y="146.86" width="10.52" height="28.08" rx="1.76"/><rect class="cls-5" x="162.14" y="1" width="210.63" height="381.93" rx="16.75"/><path class="cls-10" d="M393.45,435.07H216.31a17.76,17.76,0,0,1-17.74-17.75V68.89a17.76,17.76,0,0,1,17.74-17.74H393.45A17.77,17.77,0,0,1,411.2,68.89V417.32A17.77,17.77,0,0,1,393.45,435.07ZM216.31,53.15a15.76,15.76,0,0,0-15.74,15.74V417.32a15.76,15.76,0,0,0,15.74,15.75H393.45a15.77,15.77,0,0,0,15.75-15.75V68.89a15.77,15.77,0,0,0-15.75-15.74Z" transform="translate(-37.43 -51.15)"/><rect class="cls-11" x="171.79" y="31.66" width="191.33" height="322.52"/><path class="cls-12" d="M226.89,65.89a4.42,4.42,0,1,1-4.42-4.42A4.41,4.41,0,0,1,226.89,65.89Z" transform="translate(-37.43 -51.15)"/><path class="cls-12" d="M239.55,65.89a2.75,2.75,0,1,1-2.75-2.75A2.75,2.75,0,0,1,239.55,65.89Z" transform="translate(-37.43 -51.15)"/><path class="cls-13" d="M331.13,65.89a6,6,0,0,1-6,6h-40.5a6,6,0,0,1-6-6h0a6,6,0,0,1,6-6h40.5a6,6,0,0,1,6,6Z" transform="translate(-37.43 -51.15)"/><rect class="cls-14" x="241.2" y="62.36" width="116.03" height="55.51" rx="9.62"/><polygon class="cls-14" points="325.88 116.11 343.13 129.86 343.13 116.11 325.88 116.11"/><rect class="cls-15" x="252.38" y="70.15" width="48.75" height="2"/><rect class="cls-15" x="252.38" y="77.57" width="92.75" height="2"/><rect class="cls-15" x="252.38" y="84.98" width="92.75" height="2"/><rect class="cls-15" x="252.38" y="92.4" width="92.75" height="2"/><rect class="cls-15" x="252.38" y="99.81" width="92.75" height="2"/><rect class="cls-15" x="252.38" y="107.23" width="92.75" height="2"/><rect class="cls-16" x="178.7" y="132.75" width="116.03" height="55.51" rx="9.62"/><polygon class="cls-16" points="210.06 186.49 192.81 200.24 192.81 186.49 210.06 186.49"/><rect class="cls-14" x="234.81" y="140.53" width="48.75" height="2"/><rect class="cls-14" x="190.81" y="147.95" width="92.75" height="2"/><rect class="cls-14" x="190.81" y="155.36" width="92.75" height="2"/><rect class="cls-14" x="190.81" y="162.78" width="92.75" height="2"/><rect class="cls-14" x="190.81" y="170.2" width="92.75" height="2"/><rect class="cls-14" x="190.81" y="177.61" width="92.75" height="2"/><rect class="cls-14" x="241.2" y="202.8" width="116.03" height="55.51" rx="9.62"/><polygon class="cls-14" points="325.88 256.54 343.13 270.29 343.13 256.54 325.88 256.54"/><rect class="cls-15" x="252.38" y="210.58" width="48.75" height="2"/><rect class="cls-15" x="252.38" y="218" width="92.75" height="2"/><rect class="cls-15" x="252.38" y="225.41" width="92.75" height="2"/><rect class="cls-15" x="252.38" y="232.83" width="92.75" height="2"/><rect class="cls-15" x="252.38" y="240.25" width="92.75" height="2"/><rect class="cls-15" x="252.38" y="247.66" width="92.75" height="2"/><rect class="cls-16" x="178.7" y="271.84" width="116.03" height="55.51" rx="9.62"/><polygon class="cls-16" points="210.06 325.58 192.81 339.33 192.81 325.58 210.06 325.58"/><rect class="cls-17" x="234.81" y="279.62" width="48.75" height="2"/><rect class="cls-17" x="190.81" y="287.04" width="92.75" height="2"/><rect class="cls-17" x="190.81" y="294.45" width="92.75" height="2"/><rect class="cls-17" x="190.81" y="301.87" width="92.75" height="2"/><rect class="cls-17" x="190.81" y="309.29" width="92.75" height="2"/><rect class="cls-17" x="190.81" y="316.7" width="92.75" height="2"/><path class="cls-18" d="M382.06,338l-6.48-25.35a2.08,2.08,0,0,0-.54-.26l0,0a4.29,4.29,0,0,0-.68-.14h-.05a6.69,6.69,0,0,0-.8,0h-.05c-.29,0-.6,0-.92,0h0c-4.31.42-10.92,3.14-10.92,3.14l.28,1.11L355,318.17c-.22-.56-.37-.89-.37-.89s-19.46,5.69-26.84,5-15.74,2.82-18.62,4.42-7,.18-6.3-8.53.95-18.34,2.57-24.92c.86-3.48,4.21-8.45,4.79-15h0c5.4-5.14,6.56-16.26,3.5-21.6s-.72-10.13,2.7-14,4.51-13.34-.72-16.71-5-8.18,0-14.23,5.59-17.07-2-20c-.86-.33-1.69-.62-2.5-.91a2.6,2.6,0,0,0,1.25-1,2.7,2.7,0,0,0-.68-3.79l-8-5.55c2.07-3.44,5.33-9.42,5.66-13.5.5-6-15.26-14.2-22.19-16.91-6.48-2.54-6.83.92-13.19,9.8l-7.6-5.27a2.77,2.77,0,0,0-3.84.65,2.69,2.69,0,0,0,.68,3.79l9.24,6.4a15.38,15.38,0,0,0-1.69,1.33c-1.35,1.33-6.76.45-8.92,0-1.44-.09-.68,2.89.36,4.36-.14,1-1.49,1.55-2,1.77s.81,2.14,2.11,2.76c-.49.62-2.07.09-2.79,0s-1,1.47.27,2.18c.63.62-1.67,4.13-1.76,5.46s2.26,2.49,5.68,3c2.31.36,5.72,1.31,6.18,5.61a130.12,130.12,0,0,1-13.06-5c-3.5-6.77-7.61-10.54-11.52-12.87a41.37,41.37,0,0,0-4.78-2.82,3.93,3.93,0,0,0,.88-3.59,7.08,7.08,0,0,1,.26-1.44c1.1-2.83,2.33-1.72,2.8-2.69s-1.69-4.08-1.69-4.08a5.13,5.13,0,0,0,3.55,1.68,15.09,15.09,0,0,1,.77-4.25c3.08,1.15,5.37.35,5.73-.52s-.56-2.39-1.2-5.12a11.84,11.84,0,0,1,.26-6.62c.24-.64.35-1.4,1.1-3.93l10,2.6c1.48.39-1.78,7.15-1.4,5.71s.9-4-.58-4.38l-5.7-6.75c-4.64-11.12-1.67-7.78-3.47-14.5-2-7.46-22.37-18.38-30-7.46-2.35,3.39-.3,7-1.62,10.73l-9.48-2.44a2.75,2.75,0,0,0-3.37,1.93,2.71,2.71,0,0,0,2,3.31l9.28,2.4a32.53,32.53,0,0,0-2,11.94c.24,2.72-2.45,10.29-2.58,10.65a47.66,47.66,0,0,1-2.32,4.57c-1.56-.85-2.46-1.32-2.46-1.32l-.79,1.14h0a16.73,16.73,0,0,0-10.09,1.13V317.17A278.73,278.73,0,0,1,202,351.49c.05,2.42.08,7.8.09,14.49l-3.5,3.52v26.1l3.48-2.94c0,13.41-.07,24.8-.07,24.8h2.25v7.45h-1.36s-.22,1.44-.41,3.47a17.7,17.7,0,0,0,13.85,6.69h30.32c-1.49-2.21-4.1-4.28-8.67-4.79l-1.75-.18-1.29-.12-.21,0h0c-9-.77-15.1-.44-15.3-2.31-.22-2.08-.33-2.74-.33-2.74H217l.55-7.45h1.31s1.92-23.38,3.11-42.54c29.9-29.85,38.64-36.14,38.32-49.95-.21-8.92-5.59-28.5-9.53-41.76l1.31-.43-2.29-7.51a46.58,46.58,0,0,0,4.4-1.81c-3.35-5-5-20.59-5.48-35.47A111.87,111.87,0,0,0,260,235.21c1.3,1.8,2.68,3.56,3.91,5.27,5.77,8.06,6.11,19.1,6.11,30.24.7,0,1.55.06,2.52.11-.51,11.84-1.49,39.33-.38,55,1.44,20.39,21,78.37,25.31,97.81.25.06.51.09.77.13l.67,4h-1.54s-.09.56-.28,2.34c-.17,1.6-5.39,1.31-13.1,2h0l-.45,0-.8.07-1.53.16a10.37,10.37,0,0,0-6.19,2.66h36.84a62.69,62.69,0,0,0-.61-7.25h-.86l-1.25-5.52c1.15-.38,1.88-.68,1.88-.68s-7.71-34.16-8.91-47.2c-.85-9.19-1.13-19.32-3.74-29.35C311.13,342.67,354,330,357.47,329c0-.36,0-.72,0-1.08l6.91-1.72.62,2.46s.58-.05,2.38-.3,2.83,6.06,6.1,14.63A9.74,9.74,0,0,0,385,349.37L382.06,338ZM201.53,166.42l-.48.15a1.73,1.73,0,0,1,.48-.16ZM234,323.32c-.26,7.79-4.89,13.12-10.81,19.88.73-13.49,2.61-32.36,3-41.76C230.49,310.26,234.21,316,234,323.32Zm14.79-102.47c0-.39,0-.79.05-1.18.16.33.34.65.51,1Zm16.66-13-.35-.79.61.25Z" transform="translate(-37.43 -51.15)"/><path class="cls-19" d="M260.83,189.4s6.38,1.9,5.87,7.57-4.67,7.14-6.87,7.71S226.83,200,201,178s-33-21.44-33-21.44l7.5-10.83s19.71,10.42,35.93,22.89S253.57,185,260.83,189.4Z" transform="translate(-37.43 -51.15)"/><polygon class="cls-20" points="109 337.45 98.57 348.22 106.62 358.15 119.81 347.38 109 337.45"/><path class="cls-21" d="M213.71,262.63s13.7,42.71,14,57.44-9.08,21.23-41.62,54.29c-11.53,11-33.74,29.29-33.74,29.29a86.79,86.79,0,0,1-12-12c12.68-14.73,35.74-36.31,44.08-46.59s15.87-16.44,16.21-26.72-6.67-17.47-12.75-33.57-3.46-22.15-3.46-22.15Z" transform="translate(-37.43 -51.15)"/><path class="cls-22" d="M161,369.81v26.64c5.94-5,13.9-11.83,20.39-17.7l.72-30.9C177.05,353.59,169.1,361.57,161,369.81Z" transform="translate(-37.43 -51.15)"/><path class="cls-23" d="M119.05,411.53,136,435.79h24.38s1.26-12.22-13.81-11.36c-3.2-.06-8-8.74-.23-13A138.64,138.64,0,0,0,136,398.11S123.05,401.82,119.05,411.53Z" transform="translate(-37.43 -51.15)"/><path class="cls-16" d="M147.13,424.41l-1.8,11.38h15S161.58,423.89,147.13,424.41Z" transform="translate(-37.43 -51.15)"/><path class="cls-16" d="M136.67,432.25,120.41,409a16.86,16.86,0,0,0-1.36,2.56L136,435.79h24.38a11.42,11.42,0,0,0-.33-3.54Z" transform="translate(-37.43 -51.15)"/><polygon class="cls-20" points="132.69 363.04 132.69 377.08 145.44 378.32 146.65 361.66 132.69 363.04"/><path class="cls-24" d="M194.3,262.63s-1.72,19.76-1.6,29.58-3.66,43.85-3.43,57.33-4.11,66.89-4.11,66.89H167.81s.23-58.68,0-68.73-2.4-35.51-5.83-45.79-8.45-34.6-3-42.47S194.3,262.63,194.3,262.63Z" transform="translate(-37.43 -51.15)"/><path class="cls-21" d="M213.71,262.63s13.7,42.71,14,57.44-9.08,21.23-41.62,54.29c-11.53,11-33.74,29.29-33.74,29.29a86.79,86.79,0,0,1-12-12c12.68-14.73,35.74-36.31,44.08-46.59s15.87-16.44,16.21-26.72-6.67-17.47-12.75-33.57-3.46-22.15-3.46-22.15Z" transform="translate(-37.43 -51.15)"/><path class="cls-25" d="M163.75,367v27.1c6-5.06,13.22-11.32,19-16.61V347.12C178.28,352.28,171.21,359.44,163.75,367Z" transform="translate(-37.43 -51.15)"/><path class="cls-24" d="M194.3,262.63s-1.72,19.76-1.6,29.58-3.66,43.85-3.43,57.33-4.11,66.89-4.11,66.89H167.81s.23-58.68,0-68.73-2.4-35.51-5.83-45.79-8.45-34.6-3-42.47S194.3,262.63,194.3,262.63Z" transform="translate(-37.43 -51.15)"/><path class="cls-23" d="M169.63,441.33h46.13a11.65,11.65,0,0,0-11-11.53c-11.07-1.26-18.84-.58-19.07-2.74s-.34-2.86-.34-2.86H168.72S166.55,438.82,169.63,441.33Z" transform="translate(-37.43 -51.15)"/><path class="cls-16" d="M204.8,429.8c-1.15-.13-2.26-.24-3.34-.34v11.87h14.3A11.65,11.65,0,0,0,204.8,429.8Z" transform="translate(-37.43 -51.15)"/><line class="cls-26" x1="132.21" y1="390.18" x2="178.33" y2="390.18"/><path class="cls-16" d="M168.23,437.86a5.67,5.67,0,0,0,1.4,3.47h46.13a12.54,12.54,0,0,0-.6-3.47Z" transform="translate(-37.43 -51.15)"/><path class="cls-27" d="M211.31,197.43A55.49,55.49,0,0,0,233.94,231c19.18,13,42.11,16.78,42.11,16.78l2.4-13.7s-28.43-6.81-37.68-21.54-11.08-24-15-33.16-8.75-13.85-13.34-16.63C205.72,171.17,211.31,197.43,211.31,197.43Z" transform="translate(-37.43 -51.15)"/><path class="cls-28" d="M182.31,152.56s24.2,2.4,35.17,14.56c2.91,16.1,2.91,22.44,0,30.49s-2.63,58.74,4,68.79c-23.29,11.19-62.8,4.57-68.51,0,.92-15.07.46-53.21-2.51-67.59s-3-32.2-3-32.2S161.64,152.22,182.31,152.56Z" transform="translate(-37.43 -51.15)"/><path class="cls-20" d="M199,105.68a14.3,14.3,0,0,1,10.89.66c8.64,4.2,13.68,11.49,11.71,17.57s-2,7.24-2.39,8.16A12.64,12.64,0,0,0,219,139c.66,2.85,1.61,4.44,1.24,5.34s-2.73,1.73-5.89.54a15.44,15.44,0,0,0-.79,4.43,5.26,5.26,0,0,1-3.66-1.75s2.23,3.25,1.75,4.25-1.76-.14-2.88,2.8c-.4,1-.13,3.64-1.5,4.51s-5,0-8.27-2.55c-2.1-1.38-2,9.93-2.65,11.32-.76,4.8-6.24,7.68-6.24,7.68S169,162,170.74,154.8c6.53-3.33,10-12.89,12.9-20.6S181.16,114,199,105.68Z" transform="translate(-37.43 -51.15)"/><path class="cls-29" d="M203.48,127.69c2.59-.66,5-5.35,5-5.35s-17-7.69-21.18-6.35c-3.26,6.47-1.75,13.31-3.62,18.21-1,2.6-2,5.4-3.23,8.1v0a9.44,9.44,0,0,0,6.95-6.36c2.94-10.65,4.82-11.73,6.83-10s.57,8.31-1.06,11.2-6.28,7.17-6,12.94c.23,4.83,5.2,10.41,9.68,14.25.33-3.7.73-8.76,2.17-7.81,3.22,2.59,6.91,3.41,8.27,2.55.9-.57,1.09-1.89,1.23-3,0,0,0-.09,0-.14-.12.78-1.77.77-4-.68s-2.1-3.28-1.07-9.39-4-8.6-3.92-9.79S200.88,128.35,203.48,127.69Z" transform="translate(-37.43 -51.15)"/><path class="cls-4" d="M208.44,122.34s-2.37,4.69-5,5.35-4,7.19-4,8.38,4.95,3.68,3.92,9.79-1.15,7.95,1.07,9.39,3.87,1.46,4,.68c.61,2.67-.93,4.83-2.88,4.66S189,154,187.74,148.38s3.74-8.33,5.38-11.22,3.06-9.49,1.06-11.2-3.89-.63-6.83,10a9.44,9.44,0,0,1-6.95,6.36s2.91-8.23,2.66-11.14a19.61,19.61,0,0,1,.06-3.18c.34-4,1.47-9.72,3.52-11.69C189.36,113.7,208.44,122.34,208.44,122.34Z" transform="translate(-37.43 -51.15)"/><path class="cls-4" d="M182.91,136.13a49.94,49.94,0,0,0-.78-9.82c-1-6.31-.71-19.06,6.54-22,4.25-1.58,6.83,0,6.83,0s2.14-3.41,7.49-4.08,11.31.7,16.84,8.17,7.42,15.08,14.34,14.16c-2.25,2.75-10.42,3.59-12.13,2,1.46,2.17,4.71,2.67,5.38,3-3.67,1.67-11.84-1-14.09-3.16.92,2.58,1.17,3.33,2.67,3.5-2.92.16-7.69-2.42-8.89-5.09s-2.11,3.88-7,1.92c-1.94-.78-7.07-8.23-9.68-5.55a24.1,24.1,0,0,0-1.73,2C185.49,125.26,182.86,131,182.91,136.13Z" transform="translate(-37.43 -51.15)"/><path class="cls-20" d="M195.06,128.61a5.39,5.39,0,0,0-2.25-4.56c-2.53-2-4.74,1.84-5.3,5.38s-1,8.8,2.19,8.51a4.4,4.4,0,0,0,2.29-1.87Z" transform="translate(-37.43 -51.15)"/><path class="cls-30" d="M185.17,120.31" transform="translate(-37.43 -51.15)"/><polygon class="cls-20" points="286.42 262.16 298.07 259.22 300.99 269.24 287.84 272.56 286.42 262.16"/><path class="cls-21" d="M346.28,307.22l9.66,38.28a10,10,0,0,1-11.87-6.68c-3.36-8.93-4.42-15.52-6.26-15.25s-2.44.31-2.44.31l-3.5-13.83S343.55,305.18,346.28,307.22Z" transform="translate(-37.43 -51.15)"/><path class="cls-16" d="M344.07,338.82c-.35-.93-.67-1.83-1-2.71l9.85-2.48,3,11.87A10,10,0,0,1,344.07,338.82Z" transform="translate(-37.43 -51.15)"/><path class="cls-16" d="M343.11,306.78a4.82,4.82,0,0,1,3.17.44l9.66,38.28a10.88,10.88,0,0,1-3,.22Z" transform="translate(-37.43 -51.15)"/><polygon class="cls-20" points="239.88 367.5 242.45 378.99 230.63 379.89 228.92 369.46 239.88 367.5"/><path class="cls-21" d="M279.33,441.88H239.85a10,10,0,0,1,9.38-9.87c9.48-1.07,16.13-.48,16.32-2.34s.3-2.44.3-2.44h14.27S282,439.74,279.33,441.88Z" transform="translate(-37.43 -51.15)"/><path class="cls-16" d="M249.23,432c1-.11,1.94-.2,2.86-.28v10.15H239.85A10,10,0,0,1,249.23,432Z" transform="translate(-37.43 -51.15)"/><path class="cls-16" d="M280.54,438.92a4.83,4.83,0,0,1-1.21,3H239.85a10.51,10.51,0,0,1,.52-3Z" transform="translate(-37.43 -51.15)"/><path class="cls-31" d="M240.58,257.73s-2.14,42-.65,63.25,21.57,81.65,26,101.91c5.73,1.28,13.93-2.12,13.93-2.12s-7.93-35.59-9.16-49.17S269.44,342.47,262,328c1.11-20,4.49-36.45,6-41.64s16.3-18,2-37.54C256.88,254.76,240.58,257.73,240.58,257.73Z" transform="translate(-37.43 -51.15)"/><path class="cls-25" d="M262,328c1.11-20,4.49-36.45,6-41.64.87-3.05,6.35-8.75,7.81-16.9A38.22,38.22,0,0,0,268,256.84c-16.37,3-23.15,3.16-23.15,3.16l3.39,64.3s4,26.77,15.5,24.91c1.2-.19,2.79-.52,4.67-.95A68.37,68.37,0,0,0,262,328Z" transform="translate(-37.43 -51.15)"/><path class="cls-5" d="M250.22,316.3s4,26.77,15.5,24.91,58.24-15.86,61.94-17c0-5.55-2.92-12.17-2.92-12.17s-20,5.92-27.6,5.18S281,320.19,278,321.85s-7.23.19-6.49-8.89,1-19.11,2.65-26,12.54-19.27-4.19-38.16c-16.37,3-25.94,3-25.94,3Z" transform="translate(-37.43 -51.15)"/><path class="cls-20" d="M245.92,150.1s-5.92,3.71-7.31,5.1-7,.46-9.17,0c-1.48-.1-.7,3,.37,4.53-.14,1-1.53,1.63-2,1.86s.83,2.22,2.18,2.87c-.51.65-2.13.09-2.87,0s-1.07,1.53.27,2.27c.65.65-1.71,4.3-1.8,5.69s2.31,2.6,5.83,3.15,9.5,2.45,4.48,15c5.09.09,11.92-3.72,11.92-3.72l1.48-10.28a80.28,80.28,0,0,0,9-8.08C261.39,164.92,245.92,150.1,245.92,150.1Z" transform="translate(-37.43 -51.15)"/><path class="cls-29" d="M258.24,168.51c3.15-3.59-12.32-18.41-12.32-18.41s-5.92,3.71-7.31,5.1a4.64,4.64,0,0,1-3,.73l21.78,13.52C257.68,169.13,258,168.82,258.24,168.51Z" transform="translate(-37.43 -51.15)"/><path class="cls-25" d="M270,248.84c-16.37,3-25.94,3-25.94,3l.49,5.11c-2.45.55-3.95.82-3.95.82s-.27,5.46-.56,13.44c8.72,0,29.18-1.72,37.74-9.83A38.47,38.47,0,0,0,270,248.84Z" transform="translate(-37.43 -51.15)"/><path class="cls-24" d="M247.25,181.16s15.81,6.67,17.54,23.47,9.88,47.31,13.58,50.52c-7.16,11.12-33,8.64-40.64,8.4,0-11.61-.36-23.11-6.28-31.51s-15.42-17.8-2.78-28.33c6.16-5.13,7-14.65,7-14.65S246.82,187.21,247.25,181.16Z" transform="translate(-37.43 -51.15)"/><path class="cls-32" d="M216.31,239.4c-.28-6.08-.65-17.23-.56-22.76a64.27,64.27,0,0,1-17.34,3.84c-20.44,1.18-43.7-6.41-43.7-6.41L152.86,224l.06,1.31c1.73,1.67,13.16,12.67,44,14.3C204.08,240,210.21,240.6,216.31,239.4Z" transform="translate(-37.43 -51.15)"/><path class="cls-19" d="M258.67,214.07c1.3-2.14,3.51-3.61.22-8.92s-9.39-2.23-9.39-2.23c-5.09.94-15.28,7.12-27.07,12.11.19,6.09,5.3,11.75,9,17a1.4,1.4,0,0,0,.1.16C247.57,225.2,257.85,215.42,258.67,214.07Z" transform="translate(-37.43 -51.15)"/><path class="cls-33" d="M249.5,196.92s6.1-3.08,9.39,2.23,1.08,9.68-.22,11.81-28.18,20.39-62.09,20.39-43.92-11.3-43.92-11.3l2.05-11s23.26,7.59,43.7,6.41S241.11,198.46,249.5,196.92Z" transform="translate(-37.43 -51.15)"/><path class="cls-4" d="M243.74,151.5s.8-5.47,5.43-6.4,20.74,2.59,20.37,17.78,5.38,15.25,13.16,18.28,7.22,14.51,2,20.81-5.37,11.3,0,14.82,4.26,13.34.74,17.41-5.92,9.08-2.77,14.64,1.95,17.14-3.61,22.5c-.37-5.19-2.22-16.86-11.6-22.5-5.82-3.51-15.54-11.12-12.58-19.27s3.89-18,.37-21.49-6.48-5-6.67-9.1-9.83,2.33-9.83,2.33c-2.06-1.85-2.54-16.69,1.15-20.15s3.64-6.61,2.18-9.75.94-6.86,4.46-7.79,3.24-5.74,2.6-7.87S245.71,151.7,243.74,151.5Z" transform="translate(-37.43 -51.15)"/><path class="cls-34" d="M277.44,179.22c-4.95-2-8.18-4.84-7.9-16.34.37-15.19-15.74-18.71-20.37-17.78s-5.43,6.4-5.43,6.4c2,.2,4.78,2.12,5.43,4.25.56,1.85.84,5.71-1.39,7.31l29.33,16.32Z" transform="translate(-37.43 -51.15)"/><path class="cls-28" d="M270.71,172.29s7.07-10.59,7.58-16.88-15.7-14.8-22.82-17.62-7,1.47-15,12.18C250.92,158.53,270.71,172.29,270.71,172.29Z" transform="translate(-37.43 -51.15)"/><path class="cls-27" d="M230.14,143.19a2.84,2.84,0,0,0,.71,3.95l46.6,32.75a2.84,2.84,0,0,0,4-.67h0a2.84,2.84,0,0,0-.7-3.95L234.1,142.52a2.83,2.83,0,0,0-4,.67Z" transform="translate(-37.43 -51.15)"/><path class="cls-25" d="M205.43,292.08l15.47-5.17c-1.51-5.49-3-10.68-4.28-14.85L201.86,277c-5.13-5.29-7.67-.83-10.3-.83-1.66,0-4.37-1.41-6.14-2.46a14.3,14.3,0,0,0,.89-1.88s-6.59-6.91-13.12-14.75c-6.31-.9-12.12-.71-14.23,2.36-1.46,2.11-2.16,5.43-2.34,9.33,8.14,7.81,16.92,13.94,20.67,15.74.84-.92,1.6-1.79,2.29-2.61a34.83,34.83,0,0,1,4.1,5.58c1.59,2.78,4.91,7.12,8.9,9.33,0-.43,0-.85.06-1.25.28.59.57,1.16.85,1.72a9.29,9.29,0,0,0,4.58.93C204,297.78,207.72,295.17,205.43,292.08Z" transform="translate(-37.43 -51.15)"/><polygon class="cls-5" points="153.33 218.22 177.42 210.17 181.88 224.96 155.9 233.64 153.33 218.22"/><polygon class="cls-2" points="155.58 218.8 175.88 212.02 179.63 224.48 157.74 231.79 155.58 218.8"/><path class="cls-20" d="M179.68,262.63s5.26,3.54,7.88,3.54,5.17-4.46,10.3.83c-1.71,3.65.09,11.28,3.17,14.59s-.68,6.16-7,6.62-12.1-6.74-14.39-10.73a39.36,39.36,0,0,0-5.94-7.54Z" transform="translate(-37.43 -51.15)"/><path class="cls-23" d="M160.27,194c.52-6.15,3.6-20-3.71-25.52-6.38-4.79-9.76-3.94-13.42,4.74s-7.19,39.62-7.53,57.09,29.8,40.42,37.68,44.19c7.53-8.22,9-12.68,9-12.68s-23.58-24.74-25.75-33.68S158.94,209.74,160.27,194Z" transform="translate(-37.43 -51.15)"/><path class="cls-20" d="M174.67,146.87s-6.81-1.9-14.06,3.23a11.91,11.91,0,0,0-3.25,16.63c2.63,3.37,3-.25,2.25-1.63,1.32,2.44,2.75,2.13,3.38,2s.31-1.81-.63-3.37a4.68,4.68,0,0,1-.43-4.06c.06,1.12.18,3.12,1.25,4s2.25-.44,2.06-1.32-1.57-3.56-.25-5.5,2.36-2,2.36-2a3,3,0,0,0-.3,2.47c.5,1.15,2.54-.25,3.59-1.66S174.67,146.87,174.67,146.87Z" transform="translate(-37.43 -51.15)"/></g></g></svg>