<svg id="OBJECTS" xmlns="http://www.w3.org/2000/svg" xmlns:xlink="http://www.w3.org/1999/xlink" viewBox="0 0 664.13 664.13"><defs><style>.cls-1{fill:none;clip-rule:evenodd;}.cls-2{fill:#e7e2ef;}.cls-10,.cls-11,.cls-12,.cls-13,.cls-14,.cls-15,.cls-16,.cls-17,.cls-18,.cls-19,.cls-2,.cls-20,.cls-21,.cls-22,.cls-23,.cls-4,.cls-5,.cls-6,.cls-7,.cls-8,.cls-9{fill-rule:evenodd;}.cls-3{clip-path:url(#clip-path);}.cls-26,.cls-4{fill:#c7c0dd;}.cls-5{fill:#a7a0cb;}.cls-6{fill:#350a3d;}.cls-7{fill:#cb6459;}.cls-8{fill:#b24949;}.cls-9{fill:#e6ad83;}.cls-10{fill:#b02539;}.cls-11{fill:#ecd8da;}.cls-12{fill:#df9aa3;}.cls-13{fill:#c73048;}.cls-14{fill:#cf4a60;}.cls-15{fill:#d4a037;}.cls-16,.cls-24{fill:#472055;}.cls-17{fill:#f3ce63;}.cls-18,.cls-25{fill:#fff;}.cls-19{fill:#f2dbdf;}.cls-20{fill:#bd263e;}.cls-21{fill:#542763;}.cls-22{fill:#9ebcd2;}.cls-23{fill:#7696ae;}</style><clipPath id="clip-path" transform="translate(-42.94 111.14)"><path class="cls-1" d="M663.53,316.9a35.46,35.46,0,0,0-35.35,35.35h0a64.67,64.67,0,0,1-64.48,64.48H130.14A84,84,0,0,1,46.37,333h0a84,84,0,0,1,83.77-83.77h2.2a16.86,16.86,0,0,0,16.81-16.81h0a16.85,16.85,0,0,0-16.81-16.81h-9.25A41,41,0,0,1,82.23,174.7h0A41,41,0,0,1,123,133.83h39.87a35.45,35.45,0,0,0,35.35-35.34h0A64.67,64.67,0,0,1,262.72,34H592.26A84,84,0,0,1,676,117.77h0a84,84,0,0,1-83.77,83.78h0a16.86,16.86,0,0,0-16.82,16.81h0a16.87,16.87,0,0,0,16.82,16.81h71.27C717,235.17,717,316.9,663.53,316.9Z"/></clipPath></defs><title>intro</title><path class="cls-2" d="M663.53,316.9a35.46,35.46,0,0,0-35.35,35.35h0a64.67,64.67,0,0,1-64.48,64.48H130.14A84,84,0,0,1,46.37,333h0a84,84,0,0,1,83.77-83.77h2.2a16.86,16.86,0,0,0,16.81-16.81h0a16.85,16.85,0,0,0-16.81-16.81h-9.25A41,41,0,0,1,82.23,174.7h0A41,41,0,0,1,123,133.83h39.87a35.45,35.45,0,0,0,35.35-35.34h0A64.67,64.67,0,0,1,262.72,34H592.26A84,84,0,0,1,676,117.77h0a84,84,0,0,1-83.77,83.78h0a16.86,16.86,0,0,0-16.82,16.81h0a16.87,16.87,0,0,0,16.82,16.81h71.27C717,235.17,717,316.9,663.53,316.9Z" transform="translate(-42.94 111.14)"/><g class="cls-3"><path class="cls-4" d="M88.38,553h.51V543.6h56.77V553h.5V543.6h56.77V553h.5V543.6H260.2V553h.5V543.6h56.78V553h.5V543.6h56.77V553h.5V543.6H432V553h.5V543.6H489.3V553h.5V543.6h56.77V553h.5V543.6h56.77V553h.5V543.6h56.78V553h.5V543.6h45.44v-.51H690.25V526.62h16.81v-.5H661.62V509.65h45.44v-.5H690.25V492.68h16.81v-.5H661.62V475.72h45.44v-.51H690.25V458.74h16.81v-.5H661.62V441.78h45.44v-.51H690.25V424.81h16.81v-.5H661.62V407.84h45.44v-.5H690.25V390.87h16.81v-.5H661.62V373.9h45.44v-.5H690.25V356.93h16.81v-.5H661.62V340h45.44v-.5H690.25V323h16.81v-.5H661.62V306h45.44v-.5H690.25V289.05h16.81v-.5H661.62V272.08h45.44v-.5H690.25V255.11h16.81v-.5H661.62V238.14h45.44v-.5H690.25V221.17h16.81v-.5H661.62V204.2h45.44v-.5H690.25V187.23h16.81v-.5H661.62V170.26h45.44v-.5H690.25V153.29h16.81v-.5H661.62V136.32h45.44v-.5H690.25V119.35h16.81v-.5H661.62V102.38h45.44v-.5H690.25V85.41h16.81v-.5H661.62V68.44h45.44v-.5H690.25V51.47h16.81V51H661.62V34.5h45.44V34H690.25V17.53h16.81V17H661.62V.56h45.44V.06H690.25V-16.41h16.81v-.5H661.62V-33.38h45.44v-.5H690.25V-50.35h16.81v-.5H661.62V-67.31h45.44v-.51H690.25V-84.28h16.81v-.51H661.62v-16.46h45.44v-.5H690.25v-9.39h-.5v9.39H633v-9.39h-.5v9.39H575.71v-9.39h-.5v9.39H518.43v-9.39h-.5v9.39H461.16v-9.39h-.5v9.39H403.89v-9.39h-.5v9.39H346.61v-9.39h-.5v9.39H289.34v-9.39h-.5v9.39H232.07v-9.39h-.5v9.39H174.8v-9.39h-.51v9.39H117.52v-9.39H117v9.39H60.25v-9.39h-.5v9.39H42.94v.5H88.38v16.46H42.94v.51H59.75v16.46H42.94v.51H88.38v16.46H42.94v.5H59.75v16.47H42.94v.5H88.38v16.47H42.94v.5H59.75V.06H42.94v.5H88.38V17H42.94v.5H59.75V34H42.94v.5H88.38V51H42.94v.5H59.75V67.94H42.94v.5H88.38V84.91H42.94v.5H59.75v16.47H42.94v.5H88.38v16.47H42.94v.5H59.75v16.47H42.94v.5H88.38v16.47H42.94v.5H59.75v16.47H42.94v.5H88.38v16.47H42.94v.5H59.75V203.7H42.94v.5H88.38v16.47H42.94v.5H59.75v16.47H42.94v.5H88.38v16.47H42.94v.5H59.75v16.47H42.94v.5H88.38v16.47H42.94v.5H59.75v16.47H42.94v.5H88.38v16.47H42.94v.5H59.75v16.47H42.94v.5H88.38v16.47H42.94v.5H59.75V373.4H42.94v.5H88.38v16.47H42.94v.5H59.75v16.47H42.94v.5H88.38v16.47H42.94v.5H59.75v16.46H42.94v.51H88.38v16.46H42.94v.5H59.75v16.47H42.94v.51H88.38v16.46H42.94v.5H59.75v16.47H42.94v.5H88.38v16.47H42.94v.5H59.75v16.47H42.94v.51H88.38V553ZM60.25,526.62H117v16.47H60.25V526.62Zm57.27,0h56.77v16.47H117.52V526.62Zm57.28,0h56.77v16.47H174.8V526.62Zm57.27,0h56.77v16.47H232.07V526.62Zm57.27,0h56.77v16.47H289.34V526.62Zm57.27,0h56.78v16.47H346.61V526.62Zm57.28,0h56.77v16.47H403.89V526.62Zm57.27,0h56.77v16.47H461.16V526.62Zm57.27,0h56.78v16.47H518.43V526.62Zm57.28,0h56.77v16.47H575.71V526.62Zm57.27,0h56.77v16.47H633V526.62Zm-544.09-17h56.77v16.47H88.89V509.65Zm57.27,0h56.77v16.47H146.16V509.65Zm57.27,0H260.2v16.47H203.43V509.65Zm57.27,0h56.78v16.47H260.7V509.65Zm57.28,0h56.77v16.47H318V509.65Zm57.27,0H432v16.47H375.25V509.65Zm57.27,0H489.3v16.47H432.52V509.65Zm57.28,0h56.77v16.47H489.8V509.65Zm57.27,0h56.77v16.47H547.07V509.65Zm57.27,0h56.78v16.47H604.34V509.65Zm-544.09-17H117v16.47H60.25V492.68Zm57.27,0h56.77v16.47H117.52V492.68Zm57.28,0h56.77v16.47H174.8V492.68Zm57.27,0h56.77v16.47H232.07V492.68Zm57.27,0h56.77v16.47H289.34V492.68Zm57.27,0h56.78v16.47H346.61V492.68Zm57.28,0h56.77v16.47H403.89V492.68Zm57.27,0h56.77v16.47H461.16V492.68Zm57.27,0h56.78v16.47H518.43V492.68Zm57.28,0h56.77v16.47H575.71V492.68Zm57.27,0h56.77v16.47H633V492.68Zm-544.09-17h56.77v16.46H88.89V475.72Zm57.27,0h56.77v16.46H146.16V475.72Zm57.27,0H260.2v16.46H203.43V475.72Zm57.27,0h56.78v16.46H260.7V475.72Zm57.28,0h56.77v16.46H318V475.72Zm57.27,0H432v16.46H375.25V475.72Zm57.27,0H489.3v16.46H432.52V475.72Zm57.28,0h56.77v16.46H489.8V475.72Zm57.27,0h56.77v16.46H547.07V475.72Zm57.27,0h56.78v16.46H604.34V475.72Zm-544.09-17H117v16.47H60.25V458.74Zm57.27,0h56.77v16.47H117.52V458.74Zm57.28,0h56.77v16.47H174.8V458.74Zm57.27,0h56.77v16.47H232.07V458.74Zm57.27,0h56.77v16.47H289.34V458.74Zm57.27,0h56.78v16.47H346.61V458.74Zm57.28,0h56.77v16.47H403.89V458.74Zm57.27,0h56.77v16.47H461.16V458.74Zm57.27,0h56.78v16.47H518.43V458.74Zm57.28,0h56.77v16.47H575.71V458.74Zm57.27,0h56.77v16.47H633V458.74Zm-544.09-17h56.77v16.46H88.89V441.78Zm57.27,0h56.77v16.46H146.16V441.78Zm57.27,0H260.2v16.46H203.43V441.78Zm57.27,0h56.78v16.46H260.7V441.78Zm57.28,0h56.77v16.46H318V441.78Zm57.27,0H432v16.46H375.25V441.78Zm57.27,0H489.3v16.46H432.52V441.78Zm57.28,0h56.77v16.46H489.8V441.78Zm57.27,0h56.77v16.46H547.07V441.78Zm57.27,0h56.78v16.46H604.34V441.78Zm-544.09-17H117v16.46H60.25V424.81Zm57.27,0h56.77v16.46H117.52V424.81Zm57.28,0h56.77v16.46H174.8V424.81Zm57.27,0h56.77v16.46H232.07V424.81Zm57.27,0h56.77v16.46H289.34V424.81Zm57.27,0h56.78v16.46H346.61V424.81Zm57.28,0h56.77v16.46H403.89V424.81Zm57.27,0h56.77v16.46H461.16V424.81Zm57.27,0h56.78v16.46H518.43V424.81Zm57.28,0h56.77v16.46H575.71V424.81Zm57.27,0h56.77v16.46H633V424.81Zm-544.09-17h56.77v16.47H88.89V407.84Zm57.27,0h56.77v16.47H146.16V407.84Zm57.27,0H260.2v16.47H203.43V407.84Zm57.27,0h56.78v16.47H260.7V407.84Zm57.28,0h56.77v16.47H318V407.84Zm57.27,0H432v16.47H375.25V407.84Zm57.27,0H489.3v16.47H432.52V407.84Zm57.28,0h56.77v16.47H489.8V407.84Zm57.27,0h56.77v16.47H547.07V407.84Zm57.27,0h56.78v16.47H604.34V407.84Zm-544.09-17H117v16.47H60.25V390.87Zm57.27,0h56.77v16.47H117.52V390.87Zm57.28,0h56.77v16.47H174.8V390.87Zm57.27,0h56.77v16.47H232.07V390.87Zm57.27,0h56.77v16.47H289.34V390.87Zm57.27,0h56.78v16.47H346.61V390.87Zm57.28,0h56.77v16.47H403.89V390.87Zm57.27,0h56.77v16.47H461.16V390.87Zm57.27,0h56.78v16.47H518.43V390.87Zm57.28,0h56.77v16.47H575.71V390.87Zm57.27,0h56.77v16.47H633V390.87Zm-544.09-17h56.77v16.47H88.89V373.9Zm57.27,0h56.77v16.47H146.16V373.9Zm57.27,0H260.2v16.47H203.43V373.9Zm57.27,0h56.78v16.47H260.7V373.9Zm57.28,0h56.77v16.47H318V373.9Zm57.27,0H432v16.47H375.25V373.9Zm57.27,0H489.3v16.47H432.52V373.9Zm57.28,0h56.77v16.47H489.8V373.9Zm57.27,0h56.77v16.47H547.07V373.9Zm57.27,0h56.78v16.47H604.34V373.9Zm-544.09-17H117V373.4H60.25V356.93Zm57.27,0h56.77V373.4H117.52V356.93Zm57.28,0h56.77V373.4H174.8V356.93Zm57.27,0h56.77V373.4H232.07V356.93Zm57.27,0h56.77V373.4H289.34V356.93Zm57.27,0h56.78V373.4H346.61V356.93Zm57.28,0h56.77V373.4H403.89V356.93Zm57.27,0h56.77V373.4H461.16V356.93Zm57.27,0h56.78V373.4H518.43V356.93Zm57.28,0h56.77V373.4H575.71V356.93Zm57.27,0h56.77V373.4H633V356.93ZM88.89,340h56.77v16.47H88.89V340Zm57.27,0h56.77v16.47H146.16V340Zm57.27,0H260.2v16.47H203.43V340Zm57.27,0h56.78v16.47H260.7V340ZM318,340h56.77v16.47H318V340Zm57.27,0H432v16.47H375.25V340Zm57.27,0H489.3v16.47H432.52V340Zm57.28,0h56.77v16.47H489.8V340Zm57.27,0h56.77v16.47H547.07V340Zm57.27,0h56.78v16.47H604.34V340ZM60.25,323H117v16.47H60.25V323Zm57.27,0h56.77v16.47H117.52V323Zm57.28,0h56.77v16.47H174.8V323Zm57.27,0h56.77v16.47H232.07V323Zm57.27,0h56.77v16.47H289.34V323Zm57.27,0h56.78v16.47H346.61V323Zm57.28,0h56.77v16.47H403.89V323Zm57.27,0h56.77v16.47H461.16V323Zm57.27,0h56.78v16.47H518.43V323Zm57.28,0h56.77v16.47H575.71V323ZM633,323h56.77v16.47H633V323ZM88.89,306h56.77v16.47H88.89V306Zm57.27,0h56.77v16.47H146.16V306Zm57.27,0H260.2v16.47H203.43V306Zm57.27,0h56.78v16.47H260.7V306ZM318,306h56.77v16.47H318V306Zm57.27,0H432v16.47H375.25V306Zm57.27,0H489.3v16.47H432.52V306Zm57.28,0h56.77v16.47H489.8V306Zm57.27,0h56.77v16.47H547.07V306Zm57.27,0h56.78v16.47H604.34V306Zm-544.09-17H117v16.47H60.25V289.05Zm57.27,0h56.77v16.47H117.52V289.05Zm57.28,0h56.77v16.47H174.8V289.05Zm57.27,0h56.77v16.47H232.07V289.05Zm57.27,0h56.77v16.47H289.34V289.05Zm57.27,0h56.78v16.47H346.61V289.05Zm57.28,0h56.77v16.47H403.89V289.05Zm57.27,0h56.77v16.47H461.16V289.05Zm57.27,0h56.78v16.47H518.43V289.05Zm57.28,0h56.77v16.47H575.71V289.05Zm57.27,0h56.77v16.47H633V289.05Zm-544.09-17h56.77v16.47H88.89V272.08Zm57.27,0h56.77v16.47H146.16V272.08Zm57.27,0H260.2v16.47H203.43V272.08Zm57.27,0h56.78v16.47H260.7V272.08Zm57.28,0h56.77v16.47H318V272.08Zm57.27,0H432v16.47H375.25V272.08Zm57.27,0H489.3v16.47H432.52V272.08Zm57.28,0h56.77v16.47H489.8V272.08Zm57.27,0h56.77v16.47H547.07V272.08Zm57.27,0h56.78v16.47H604.34V272.08Zm-544.09-17H117v16.47H60.25V255.11Zm57.27,0h56.77v16.47H117.52V255.11Zm57.28,0h56.77v16.47H174.8V255.11Zm57.27,0h56.77v16.47H232.07V255.11Zm57.27,0h56.77v16.47H289.34V255.11Zm57.27,0h56.78v16.47H346.61V255.11Zm57.28,0h56.77v16.47H403.89V255.11Zm57.27,0h56.77v16.47H461.16V255.11Zm57.27,0h56.78v16.47H518.43V255.11Zm57.28,0h56.77v16.47H575.71V255.11Zm57.27,0h56.77v16.47H633V255.11Zm-544.09-17h56.77v16.47H88.89V238.14Zm57.27,0h56.77v16.47H146.16V238.14Zm57.27,0H260.2v16.47H203.43V238.14Zm57.27,0h56.78v16.47H260.7V238.14Zm57.28,0h56.77v16.47H318V238.14Zm57.27,0H432v16.47H375.25V238.14Zm57.27,0H489.3v16.47H432.52V238.14Zm57.28,0h56.77v16.47H489.8V238.14Zm57.27,0h56.77v16.47H547.07V238.14Zm57.27,0h56.78v16.47H604.34V238.14Zm-544.09-17H117v16.47H60.25V221.17Zm57.27,0h56.77v16.47H117.52V221.17Zm57.28,0h56.77v16.47H174.8V221.17Zm57.27,0h56.77v16.47H232.07V221.17Zm57.27,0h56.77v16.47H289.34V221.17Zm57.27,0h56.78v16.47H346.61V221.17Zm57.28,0h56.77v16.47H403.89V221.17Zm57.27,0h56.77v16.47H461.16V221.17Zm57.27,0h56.78v16.47H518.43V221.17Zm57.28,0h56.77v16.47H575.71V221.17Zm57.27,0h56.77v16.47H633V221.17Zm-544.09-17h56.77v16.47H88.89V204.2Zm57.27,0h56.77v16.47H146.16V204.2Zm57.27,0H260.2v16.47H203.43V204.2Zm57.27,0h56.78v16.47H260.7V204.2Zm57.28,0h56.77v16.47H318V204.2Zm57.27,0H432v16.47H375.25V204.2Zm57.27,0H489.3v16.47H432.52V204.2Zm57.28,0h56.77v16.47H489.8V204.2Zm57.27,0h56.77v16.47H547.07V204.2Zm57.27,0h56.78v16.47H604.34V204.2Zm-544.09-17H117V203.7H60.25V187.23Zm57.27,0h56.77V203.7H117.52V187.23Zm57.28,0h56.77V203.7H174.8V187.23Zm57.27,0h56.77V203.7H232.07V187.23Zm57.27,0h56.77V203.7H289.34V187.23Zm57.27,0h56.78V203.7H346.61V187.23Zm57.28,0h56.77V203.7H403.89V187.23Zm57.27,0h56.77V203.7H461.16V187.23Zm57.27,0h56.78V203.7H518.43V187.23Zm57.28,0h56.77V203.7H575.71V187.23Zm57.27,0h56.77V203.7H633V187.23Zm-544.09-17h56.77v16.47H88.89V170.26Zm57.27,0h56.77v16.47H146.16V170.26Zm57.27,0H260.2v16.47H203.43V170.26Zm57.27,0h56.78v16.47H260.7V170.26Zm57.28,0h56.77v16.47H318V170.26Zm57.27,0H432v16.47H375.25V170.26Zm57.27,0H489.3v16.47H432.52V170.26Zm57.28,0h56.77v16.47H489.8V170.26Zm57.27,0h56.77v16.47H547.07V170.26Zm57.27,0h56.78v16.47H604.34V170.26Zm-544.09-17H117v16.47H60.25V153.29Zm57.27,0h56.77v16.47H117.52V153.29Zm57.28,0h56.77v16.47H174.8V153.29Zm57.27,0h56.77v16.47H232.07V153.29Zm57.27,0h56.77v16.47H289.34V153.29Zm57.27,0h56.78v16.47H346.61V153.29Zm57.28,0h56.77v16.47H403.89V153.29Zm57.27,0h56.77v16.47H461.16V153.29Zm57.27,0h56.78v16.47H518.43V153.29Zm57.28,0h56.77v16.47H575.71V153.29Zm57.27,0h56.77v16.47H633V153.29Zm-544.09-17h56.77v16.47H88.89V136.32Zm57.27,0h56.77v16.47H146.16V136.32Zm57.27,0H260.2v16.47H203.43V136.32Zm57.27,0h56.78v16.47H260.7V136.32Zm57.28,0h56.77v16.47H318V136.32Zm57.27,0H432v16.47H375.25V136.32Zm57.27,0H489.3v16.47H432.52V136.32Zm57.28,0h56.77v16.47H489.8V136.32Zm57.27,0h56.77v16.47H547.07V136.32Zm57.27,0h56.78v16.47H604.34V136.32Zm-544.09-17H117v16.47H60.25V119.35Zm57.27,0h56.77v16.47H117.52V119.35Zm57.28,0h56.77v16.47H174.8V119.35Zm57.27,0h56.77v16.47H232.07V119.35Zm57.27,0h56.77v16.47H289.34V119.35Zm57.27,0h56.78v16.47H346.61V119.35Zm57.28,0h56.77v16.47H403.89V119.35Zm57.27,0h56.77v16.47H461.16V119.35Zm57.27,0h56.78v16.47H518.43V119.35Zm57.28,0h56.77v16.47H575.71V119.35Zm57.27,0h56.77v16.47H633V119.35Zm-544.09-17h56.77v16.47H88.89V102.38Zm57.27,0h56.77v16.47H146.16V102.38Zm57.27,0H260.2v16.47H203.43V102.38Zm57.27,0h56.78v16.47H260.7V102.38Zm57.28,0h56.77v16.47H318V102.38Zm57.27,0H432v16.47H375.25V102.38Zm57.27,0H489.3v16.47H432.52V102.38Zm57.28,0h56.77v16.47H489.8V102.38Zm57.27,0h56.77v16.47H547.07V102.38Zm57.27,0h56.78v16.47H604.34V102.38Zm-544.09-17H117v16.47H60.25V85.41Zm57.27,0h56.77v16.47H117.52V85.41Zm57.28,0h56.77v16.47H174.8V85.41Zm57.27,0h56.77v16.47H232.07V85.41Zm57.27,0h56.77v16.47H289.34V85.41Zm57.27,0h56.78v16.47H346.61V85.41Zm57.28,0h56.77v16.47H403.89V85.41Zm57.27,0h56.77v16.47H461.16V85.41Zm57.27,0h56.78v16.47H518.43V85.41Zm57.28,0h56.77v16.47H575.71V85.41Zm57.27,0h56.77v16.47H633V85.41Zm-544.09-17h56.77V84.91H88.89V68.44Zm57.27,0h56.77V84.91H146.16V68.44Zm57.27,0H260.2V84.91H203.43V68.44Zm57.27,0h56.78V84.91H260.7V68.44Zm57.28,0h56.77V84.91H318V68.44Zm57.27,0H432V84.91H375.25V68.44Zm57.27,0H489.3V84.91H432.52V68.44Zm57.28,0h56.77V84.91H489.8V68.44Zm57.27,0h56.77V84.91H547.07V68.44Zm57.27,0h56.78V84.91H604.34V68.44Zm-544.09-17H117V67.94H60.25V51.47Zm57.27,0h56.77V67.94H117.52V51.47Zm57.28,0h56.77V67.94H174.8V51.47Zm57.27,0h56.77V67.94H232.07V51.47Zm57.27,0h56.77V67.94H289.34V51.47Zm57.27,0h56.78V67.94H346.61V51.47Zm57.28,0h56.77V67.94H403.89V51.47Zm57.27,0h56.77V67.94H461.16V51.47Zm57.27,0h56.78V67.94H518.43V51.47Zm57.28,0h56.77V67.94H575.71V51.47Zm57.27,0h56.77V67.94H633V51.47ZM88.89,34.5h56.77V51H88.89V34.5Zm57.27,0h56.77V51H146.16V34.5Zm57.27,0H260.2V51H203.43V34.5Zm57.27,0h56.78V51H260.7V34.5Zm57.28,0h56.77V51H318V34.5Zm57.27,0H432V51H375.25V34.5Zm57.27,0H489.3V51H432.52V34.5Zm57.28,0h56.77V51H489.8V34.5Zm57.27,0h56.77V51H547.07V34.5Zm57.27,0h56.78V51H604.34V34.5Zm-544.09-17H117V34H60.25V17.53Zm57.27,0h56.77V34H117.52V17.53Zm57.28,0h56.77V34H174.8V17.53Zm57.27,0h56.77V34H232.07V17.53Zm57.27,0h56.77V34H289.34V17.53Zm57.27,0h56.78V34H346.61V17.53Zm57.28,0h56.77V34H403.89V17.53Zm57.27,0h56.77V34H461.16V17.53Zm57.27,0h56.78V34H518.43V17.53Zm57.28,0h56.77V34H575.71V17.53Zm57.27,0h56.77V34H633V17.53ZM88.89.56h56.77V17H88.89V.56Zm57.27,0h56.77V17H146.16V.56Zm57.27,0H260.2V17H203.43V.56Zm57.27,0h56.78V17H260.7V.56ZM318,.56h56.77V17H318V.56Zm57.27,0H432V17H375.25V.56Zm57.27,0H489.3V17H432.52V.56Zm57.28,0h56.77V17H489.8V.56Zm57.27,0h56.77V17H547.07V.56Zm57.27,0h56.78V17H604.34V.56Zm-544.09-17H117V.06H60.25V-16.41Zm57.27,0h56.77V.06H117.52V-16.41Zm57.28,0h56.77V.06H174.8V-16.41Zm57.27,0h56.77V.06H232.07V-16.41Zm57.27,0h56.77V.06H289.34V-16.41Zm57.27,0h56.78V.06H346.61V-16.41Zm57.28,0h56.77V.06H403.89V-16.41Zm57.27,0h56.77V.06H461.16V-16.41Zm57.27,0h56.78V.06H518.43V-16.41Zm57.28,0h56.77V.06H575.71V-16.41Zm57.27,0h56.77V.06H633V-16.41Zm-544.09-17h56.77v16.47H88.89V-33.38Zm57.27,0h56.77v16.47H146.16V-33.38Zm57.27,0H260.2v16.47H203.43V-33.38Zm57.27,0h56.78v16.47H260.7V-33.38Zm57.28,0h56.77v16.47H318V-33.38Zm57.27,0H432v16.47H375.25V-33.38Zm57.27,0H489.3v16.47H432.52V-33.38Zm57.28,0h56.77v16.47H489.8V-33.38Zm57.27,0h56.77v16.47H547.07V-33.38Zm57.27,0h56.78v16.47H604.34V-33.38Zm-544.09-17H117v16.47H60.25V-50.35Zm57.27,0h56.77v16.47H117.52V-50.35Zm57.28,0h56.77v16.47H174.8V-50.35Zm57.27,0h56.77v16.47H232.07V-50.35Zm57.27,0h56.77v16.47H289.34V-50.35Zm57.27,0h56.78v16.47H346.61V-50.35Zm57.28,0h56.77v16.47H403.89V-50.35Zm57.27,0h56.77v16.47H461.16V-50.35Zm57.27,0h56.78v16.47H518.43V-50.35Zm57.28,0h56.77v16.47H575.71V-50.35Zm57.27,0h56.77v16.47H633V-50.35Zm-544.09-17h56.77v16.46H88.89V-67.31Zm57.27,0h56.77v16.46H146.16V-67.31Zm57.27,0H260.2v16.46H203.43V-67.31Zm57.27,0h56.78v16.46H260.7V-67.31Zm57.28,0h56.77v16.46H318V-67.31Zm57.27,0H432v16.46H375.25V-67.31Zm57.27,0H489.3v16.46H432.52V-67.31Zm57.28,0h56.77v16.46H489.8V-67.31Zm57.27,0h56.77v16.46H547.07V-67.31Zm57.27,0h56.78v16.46H604.34V-67.31Zm-544.09-17H117v16.46H60.25V-84.28Zm57.27,0h56.77v16.46H117.52V-84.28Zm57.28,0h56.77v16.46H174.8V-84.28Zm57.27,0h56.77v16.46H232.07V-84.28Zm57.27,0h56.77v16.46H289.34V-84.28Zm57.27,0h56.78v16.46H346.61V-84.28Zm57.28,0h56.77v16.46H403.89V-84.28Zm57.27,0h56.77v16.46H461.16V-84.28Zm57.27,0h56.78v16.46H518.43V-84.28Zm57.28,0h56.77v16.46H575.71V-84.28Zm57.27,0h56.77v16.46H633V-84.28Zm-544.09-17h56.77v16.46H88.89v-16.46Zm57.27,0h56.77v16.46H146.16v-16.46Zm57.27,0H260.2v16.46H203.43v-16.46Zm57.27,0h56.78v16.46H260.7v-16.46Zm57.28,0h56.77v16.46H318v-16.46Zm57.27,0H432v16.46H375.25v-16.46Zm57.27,0H489.3v16.46H432.52v-16.46Zm57.28,0h56.77v16.46H489.8v-16.46Zm57.27,0h56.77v16.46H547.07v-16.46Zm57.27,0h56.78v16.46H604.34Z" transform="translate(-42.94 111.14)"/></g><path class="cls-5" d="M663.53,316.9a35.45,35.45,0,0,0-35.34,35.35h0a64.68,64.68,0,0,1-64.49,64.48H130.14A84,84,0,0,1,46.37,333h0a83.2,83.2,0,0,1,15.7-48.67H702.89C699.76,301.63,686.64,316.9,663.53,316.9Z" transform="translate(-42.94 111.14)"/><path class="cls-4" d="M52.69,301.15a84.28,84.28,0,0,1,20-29H703.47a44.28,44.28,0,0,1-7.51,29Z" transform="translate(-42.94 111.14)"/><path class="cls-6" d="M489.63,173.38a.47.47,0,0,1,0-.67.48.48,0,0,1,.68,0c.13.13,44.7,46-6.35,97a.48.48,0,0,1-.68-.68C533.67,218.69,489.75,173.51,489.63,173.38Z" transform="translate(-42.94 111.14)"/><path class="cls-6" d="M485.53,103.52c-23.77,19.83-12.19,56.1,7.1,75.23,22.32,22.13,30.43,57.53-9.13,84.58S505.31,313,529.15,283s32.6-102.82,30.93-121-1-26.06-14.7-33.92S485.53,103.52,485.53,103.52Z" transform="translate(-42.94 111.14)"/><path class="cls-7" d="M426.19,231.38s-3.42-4.56-4.12-5.26-5.26-.83-8-1-3.23,2.29-3.29,3.3-.2,2.28-.2,2.28-15.69,1.3-16.83,1.56-2.66,4.62-3,5.51.29,2.92,1.46,3a3.86,3.86,0,0,0,3.14-1.36c.47-.76.88.29.88.29a9.63,9.63,0,0,0-1.26,3.48c-.07,1.46.25,2.22,1.42,2.73a18.46,18.46,0,0,0,3,.85,12.81,12.81,0,0,0,.48,3.3c.41.89.54,1.27,2.35,1.81s8.17,2,8.17,2Z" transform="translate(-42.94 111.14)"/><path class="cls-8" d="M399.37,247.13a.38.38,0,0,1-.31-.44.36.36,0,0,1,.43-.31l3.06.48a.39.39,0,0,1,.32.44.39.39,0,0,1-.44.32Z" transform="translate(-42.94 111.14)"/><path class="cls-6" d="M564.8,385.2s-4.06,31.53-30.43,31.53H504.7c-10.91,0-36-28-55.28-52.32S421,322.82,421,322.82c-4.67,7.94-54.49,47.7-66.15,58.07-2.28,2-12.19,13.57-14,13.57,0,0-13.19.88-23.08-6,0,0,3.15-13.38,3.8-14.2,29.67-37,62.71-78.7,79.09-95.28s33.18-7.42,71.22,19.46S564.8,385.2,564.8,385.2Z" transform="translate(-42.94 111.14)"/><path class="cls-6" d="M387.7,222.68l.92-1a1.94,1.94,0,0,1,2.72-.1l28.48,26.48a1.91,1.91,0,0,1,.1,2.71l-.92,1a1.94,1.94,0,0,1-2.72.11L387.8,225.39A1.92,1.92,0,0,1,387.7,222.68Z" transform="translate(-42.94 111.14)"/><path class="cls-9" d="M448.5,246.49s-3.48-1.59-4.68-2.35-10.46-12.49-11.67-13-9.57-1.4-10.77-1.4a4.61,4.61,0,0,0-3.55,2.41,50.17,50.17,0,0,0-1.52,4.88l-15.55.39-3.55-3.3a4.37,4.37,0,0,0-1.82,1.18c-.51.73-.54,2.92-.48,4s2.12,3.83,2.69,4.44a6.16,6.16,0,0,0,3,1.11s0,2.63,2.12,3.51,4.78,2.06,4.78,2.06a4.52,4.52,0,0,0,1.71,3.24c1.59,1,5.84,4.25,5.84,4.25a7.5,7.5,0,0,0,2.53.53s1.21,2.57,3.17,3.39,9.07,3.94,10.08,4.19,5-.47,8.82,1.76a35.23,35.23,0,0,0,4.37,2.36l7.22-19.91Z" transform="translate(-42.94 111.14)"/><path class="cls-10" d="M321.81,413.89s-58.69,1.4-61-2.79v-5.6c0-2.24,2.68-5.45,10-7.55s22.86-6.16,27.64-7.63,18.49-16.43,20.43-18.25,11,4.06,13,5,.65,3.35-.32,6.15S321.81,413.89,321.81,413.89Z" transform="translate(-42.94 111.14)"/><path class="cls-11" d="M260.85,416.73h93.88c1.11,0,2-.51,2-1.15v-3.33c0-.63-.91-1.15-2-1.15H260.85c-1.12,0-2,.52-2,1.15v3.33C258.83,416.22,259.73,416.73,260.85,416.73Z" transform="translate(-42.94 111.14)"/><path class="cls-12" d="M260.85,416.73h31.9c1.11,0,2-.51,2-1.15v-3.33c0-.63-.91-1.15-2-1.15h-31.9c-1.12,0-2,.52-2,1.15v3.33C258.82,416.22,259.73,416.73,260.85,416.73Z" transform="translate(-42.94 111.14)"/><path class="cls-10" d="M302.35,392.14c.33,1,3.25,5.88,1.22,7.07s-8.51,5.45-12.16,5.45h-21c-9.65,0-7.42-2.9-7.42-2.9a5.27,5.27,0,0,0-2.15,3.74v5.6h93.87s4-4,4-13.36.52-14.76-1.06-16.26-2.67-.74-2.67-.74c-7.3,5.46-16.14,1.54-20.76-.63-.49-.23-1-.46-1.4-.69-3.75-1.93-6.05-3.66-9.38-2-3.73,1.81-16.86,9.86-19,11.12S302,391.16,302.35,392.14Z" transform="translate(-42.94 111.14)"/><path class="cls-13" d="M260.85,406.89v4.21h93.87s4-4,4-13.36.52-14.76-1.06-16.26c.21,3-1.63,6.36-4.88,6.36h-18.7c-6.87,0-8.25,3.17-8.25,3.17s-3.47,5.92-6,10.11-6.65,7.05-9.7,7.05H265A5.94,5.94,0,0,1,260.85,406.89Z" transform="translate(-42.94 111.14)"/><path class="cls-14" d="M322.41,379.59a.8.8,0,0,0,1.09-.12.74.74,0,0,0-.31-1l-5.9-3.81L317,374l-1.28,1.32.27.17,2.42,6a.94.94,0,0,0,1,.56.6.6,0,0,0,.46-.85l-1.73-4.31,4.23,2.73Zm-17,5.83,1.18-1.06,1.68,4.18a.61.61,0,0,1-.46.86.94.94,0,0,1-1-.56l-1.38-3.42Zm1.23-1.12,4.13,2.66a.78.78,0,0,0,1.08-.12.73.73,0,0,0-.3-1l-3.87-2.49c-.35.32-.69.65-1,1Zm4.08-3.89,1.56-1.56,5.11,3.29a.74.74,0,0,1,.3,1,.8.8,0,0,1-1.08.12l-4.23-2.73,1.73,4.31a.6.6,0,0,1-.46.85.94.94,0,0,1-1-.56Z" transform="translate(-42.94 111.14)"/><path class="cls-15" d="M457.14,249.68l-6.09-3.47a3.65,3.65,0,0,0-2.15.12s-1.52,15.6-8.81,21.49a1.93,1.93,0,0,0,.34,1.53c.54.5,7.08,5.06,7.08,5.06a8,8,0,0,0,5.25-1.17c2.54-1.64,8.25-12.61,8.12-14S457.14,249.68,457.14,249.68Z" transform="translate(-42.94 111.14)"/><path class="cls-16" d="M581.5,385.2s-4.06,31.53-30.43,31.53H521.4c-10.9,0-36-28-55.28-52.32s-28.42-41.59-28.42-41.59c-4.67,7.94-54.49,47.7-66.15,58.07-2.28,2-12.19,13.57-14,13.57,0,0-13.18.88-23.07-6,0,0,3.15-13.38,3.8-14.2C368,337.27,401,295.6,417.4,279s33.18-7.42,71.22,19.46S581.5,385.2,581.5,385.2Z" transform="translate(-42.94 111.14)"/><path class="cls-15" d="M523.94,226l-2.61-2.21S507,254.87,503.91,272.62s10.39,15.72,10.39,15.72,9.64-5.58,9.89-12.68S523.94,226,523.94,226Z" transform="translate(-42.94 111.14)"/><path class="cls-9" d="M538.66,120.07s14.08,22.27,35.29,31.29c0,0,2.42,15.42-8.11,22s-26.74,1.24-26.74,1.24l-10.69-15.72Z" transform="translate(-42.94 111.14)"/><path class="cls-7" d="M530.93,162.58l-1.69-2.48c1.45-5.92,3.94-16.24,3.94-17,0-1,6.72-10.65,6.72-10.65l5.46.13L545.23,154Z" transform="translate(-42.94 111.14)"/><path class="cls-17" d="M590.77,189.71s40.58,72.13,4.06,180.55c0,0-3.8,9.63-3.29,17.75s-27.39,12.42-39.82-9.13-4.06-20.8-17.75-34.24-35.25-29.92-35.25-29.92,5.83-10.65,17.49-12.68c0,0,0-6.84,3.94-8.24,0,0-6.47-23.33-6-39.3s9.63-43.37,25.1-63.65c0,0,1.9-6-.51-10.53S536,174,537.13,171.7a15.7,15.7,0,0,0,8.37-2.79c3.8-2.79,13.31-3,13.31-3Z" transform="translate(-42.94 111.14)"/><path class="cls-15" d="M577.7,394.63a30.85,30.85,0,0,1-26-15.75c-12.42-21.56-4.06-20.8-17.75-34.24s-35.25-29.92-35.25-29.92,5.83-10.65,17.49-12.68c0,0,0-6.84,3.94-8.24l-.1-.35,30.64,10.78,32.46-47.67,5.35,14.63s-22.08,67.53-26.65,81.72C557.7,365.81,556.91,384.15,577.7,394.63Z" transform="translate(-42.94 111.14)"/><path class="cls-17" d="M542.16,228c-7.17,26.09-5.33,54-5.33,54s-2.6-1.45-2.79,2.41c-11.6-12.95-37.51-10.66-61.68-35-4.72-4.75-15.22.25-15.22.25a28.17,28.17,0,0,1-9.63,24.73s-4.06,14.7,19.52,27.89,48.44,17,62.13,26.63,24.85,7.86,33-.77,35.76-69.22,32.46-92C589.11,198.24,549.33,201.92,542.16,228Z" transform="translate(-42.94 111.14)"/><path class="cls-18" d="M538.13,248.76c-.32,2.61-.59,5.16-.79,7.6,9.74,1.23,30.47,4.76,51.35,14.2.8-2.5,1.55-5,2.22-7.39-21.51-9.55-42.72-13.15-52.78-14.41Zm-1.25,14.52A194.84,194.84,0,0,1,586.52,277q-1.26,3.62-2.63,7.2A185.92,185.92,0,0,0,536.64,271C536.67,268.67,536.74,266.08,536.88,263.28Z" transform="translate(-42.94 111.14)"/><path class="cls-9" d="M488.59,103.72s-7.47,6.55-2.3,20.39,8.9,19.41,3.94,25.75a1.53,1.53,0,0,0,.26,1.87c.88.74,4.11,2,5.95,3s8.48,10.93,12.53,14,13,.65,20.41-8,13.34-30,10.76-38.47S503.47,100.39,488.59,103.72Z" transform="translate(-42.94 111.14)"/><path class="cls-16" d="M519.85,123.67s-14.27,5.31-26.91-2.84S475.57,100.67,486.56,90s37-24.53,59.13-8.78,11.52,39.58,44.43,53.58c17.37,7.39,30.94,12.43,39.75,21.87,47.43,50.85-44.56,125.45-76.74,57.59C532,169.62,556.13,133,519.85,123.67Z" transform="translate(-42.94 111.14)"/><path class="cls-14" d="M338.51,413.89s-58.69,1.4-61-2.79v-5.6c0-2.24,2.68-5.45,10-7.55s22.86-6.16,27.64-7.63,18.49-16.43,20.43-18.25,11,4.06,13,5,.65,3.35-.32,6.15S338.51,413.89,338.51,413.89Z" transform="translate(-42.94 111.14)"/><path class="cls-19" d="M277.55,416.73h93.87c1.12,0,2-.51,2-1.15v-3.33c0-.63-.91-1.15-2-1.15H277.55c-1.12,0-2,.52-2,1.15v3.33C275.53,416.22,276.43,416.73,277.55,416.73Z" transform="translate(-42.94 111.14)"/><path class="cls-18" d="M277.55,416.73h31.9c1.11,0,2-.51,2-1.15v-3.33c0-.63-.91-1.15-2-1.15h-31.9c-1.12,0-2,.52-2,1.15v3.33C275.52,416.22,276.43,416.73,277.55,416.73Z" transform="translate(-42.94 111.14)"/><path class="cls-13" d="M319.06,392.14c.32,1,3.24,5.88,1.21,7.07s-8.51,5.45-12.16,5.45h-21c-9.65,0-7.42-2.9-7.42-2.9a5.27,5.27,0,0,0-2.15,3.74v5.6h93.87s4-4,4-13.36.53-14.76-1.05-16.26-2.67-.74-2.67-.74c-7.3,5.46-16.14,1.54-20.76-.63-.49-.23-1-.46-1.4-.69-3.75-1.93-6.05-3.66-9.38-2-3.73,1.81-16.86,9.86-19,11.12S318.73,391.16,319.06,392.14Z" transform="translate(-42.94 111.14)"/><path class="cls-20" d="M277.55,406.89v4.21h93.87s4-4,4-13.36.53-14.76-1.05-16.26c.21,3-1.63,6.36-4.88,6.36H350.75c-6.86,0-8.24,3.17-8.24,3.17s-3.47,5.92-6,10.11-6.65,7.05-9.7,7.05H281.7A5.94,5.94,0,0,1,277.55,406.89Z" transform="translate(-42.94 111.14)"/><path class="cls-18" d="M339.11,379.59a.79.79,0,0,0,1.08-.12.73.73,0,0,0-.3-1l-5.9-3.81-.27-.68-1.28,1.32.27.17,2.42,6a.94.94,0,0,0,1,.56.6.6,0,0,0,.46-.85l-1.73-4.31,4.23,2.73Zm-17,5.83,1.17-1.06,1.69,4.18a.61.61,0,0,1-.46.86.94.94,0,0,1-1-.56l-1.38-3.42Zm1.23-1.12,4.13,2.66a.78.78,0,0,0,1.08-.12.73.73,0,0,0-.3-1l-3.87-2.49c-.35.32-.69.65-1,1Zm4.08-3.89,1.56-1.56,5.11,3.29a.74.74,0,0,1,.3,1,.8.8,0,0,1-1.08.12L329,380.55l1.73,4.31a.6.6,0,0,1-.46.85.94.94,0,0,1-1-.56Z" transform="translate(-42.94 111.14)"/><path class="cls-8" d="M410.21,230.63a.38.38,0,0,1,.43-.32.37.37,0,0,1,.33.42s-.27,1.93-.32,2.55a1.42,1.42,0,0,0,.25,1,1.48,1.48,0,0,0,.89.49,2,2,0,0,0,.56,0,5.67,5.67,0,0,0,2.7-1.07,5.45,5.45,0,0,0,2.13-3.39,8.24,8.24,0,0,0,.11-2.43.38.38,0,1,1,.76-.07,9.1,9.1,0,0,1-.12,2.66,6.2,6.2,0,0,1-2.43,3.84,6.37,6.37,0,0,1-3.08,1.22,2.76,2.76,0,0,1-.78,0,2,2,0,0,1-1.75-2.26C409.93,232.63,410.21,230.64,410.21,230.63Z" transform="translate(-42.94 111.14)"/><path class="cls-8" d="M417.42,231.56a.39.39,0,0,1-.18-.75,2.66,2.66,0,0,0,1.77-2,.38.38,0,1,1,.74.19A3.44,3.44,0,0,1,417.42,231.56Z" transform="translate(-42.94 111.14)"/><path class="cls-7" d="M416.31,237.42a.37.37,0,0,1-.39-.37.38.38,0,0,1,.38-.39l8.48-.07a.39.39,0,0,1,.39.38.38.38,0,0,1-.38.38Z" transform="translate(-42.94 111.14)"/><path class="cls-7" d="M421.56,236.64a.38.38,0,0,1,.22.5.39.39,0,0,1-.49.22,4.4,4.4,0,0,1-2.51-2.76.37.37,0,0,1,.26-.46.37.37,0,0,1,.47.26A3.55,3.55,0,0,0,421.56,236.64Z" transform="translate(-42.94 111.14)"/><path class="cls-7" d="M400.62,245.27a.39.39,0,0,1,.06-.77l9.14.71a.38.38,0,0,1,.35.41.37.37,0,0,1-.41.35Z" transform="translate(-42.94 111.14)"/><path class="cls-7" d="M407.41,250.82a.38.38,0,1,1,.29-.71l5.15,2.13a.39.39,0,0,1,.21.51.39.39,0,0,1-.5.2Z" transform="translate(-42.94 111.14)"/><path class="cls-7" d="M417.65,258.86a.38.38,0,0,1-.4-.36.39.39,0,0,1,.37-.4l2-.08a.37.37,0,0,1,.39.36.38.38,0,0,1-.36.4Z" transform="translate(-42.94 111.14)"/><path class="cls-16" d="M391.75,225.73l.22-.23a.46.46,0,0,1,.64,0l6.68,6.21a.47.47,0,0,1,0,.64l-.22.23a.46.46,0,0,1-.64,0l-6.68-6.21A.46.46,0,0,1,391.75,225.73Z" transform="translate(-42.94 111.14)"/><path class="cls-6" d="M545.91,366.2a.48.48,0,1,1-.31.91,25.7,25.7,0,0,1-4-1.83,35,35,0,0,1-4.07-2.68c-16.9-12.87-85-67.18-85.95-68-.65-.37-9.13-4.94-17,.51-8.32,5.8-75.29,80.09-75.48,80.31a.48.48,0,0,1-.71-.64c.19-.21,67.24-74.6,75.65-80.46s17.38-.88,18-.55l.1.06c.2.16,69,55,86,68a34,34,0,0,0,4,2.61A24.51,24.51,0,0,0,545.91,366.2Z" transform="translate(-42.94 111.14)"/><path class="cls-6" d="M345.28,365.67a.48.48,0,1,1,.53-.81s16.39,10.73,20.8,18.11a.48.48,0,0,1-.17.65.47.47,0,0,1-.65-.16C361.5,376.27,345.33,365.69,345.28,365.67Z" transform="translate(-42.94 111.14)"/><path class="cls-6" d="M437.92,323.87a.49.49,0,0,1-.63.25.48.48,0,0,1-.25-.63,31.39,31.39,0,0,0,2.4-11.2.49.49,0,0,1,.48-.48.48.48,0,0,1,.48.48A32.52,32.52,0,0,1,437.92,323.87Z" transform="translate(-42.94 111.14)"/><path class="cls-15" d="M447,274.29a.48.48,0,0,1,.93.23s-4,14.36,19.29,27.36c11.81,6.61,24,10.86,34.85,14.67s20.46,7.15,27.33,12c6.47,4.55,12.36,6.52,17.6,6.4,5.66-.13,10.6-2.71,14.74-7.1,4.3-4.57,14.16-23.93,21.92-44.47,5.71-15.1,10.28-30.81,10.65-41.7a.48.48,0,0,1,.49-.46.47.47,0,0,1,.46.49c-.37,11-5,26.83-10.7,42-7.81,20.63-17.76,40.14-22.13,44.78s-9.47,7.27-15.41,7.41c-5.44.12-11.52-1.9-18.18-6.58s-16.31-8.1-27.08-11.87c-10.93-3.83-23.12-8.09-35-14.73C442.89,289.35,447,274.34,447,274.29Zm90.26,7.54c-.13-2.27-1.53-28.8,5.32-53.7a.48.48,0,1,0-.92-.25c-6.53,23.72-5.61,48.89-5.38,53.44-.86-.21-2.2-.15-2.63,2-5.05-5.14-12.41-7.81-21-10.92-11.91-4.32-26.23-9.51-40-23.34-5-5-15.73.15-15.76.16a.48.48,0,0,0-.23.64.5.5,0,0,0,.64.23s10.19-4.86,14.67-.35c13.89,14,28.32,19.21,40.33,23.55,8.88,3.22,16.42,5.95,21.31,11.39a11.26,11.26,0,0,1,1.44,3.45.48.48,0,0,0,.94-.2,12.81,12.81,0,0,0-1.51-3.67c.19-2.6,1.69-2,2-1.89a8.67,8.67,0,0,1,1.52,2.36.48.48,0,1,0,.92-.25A8.91,8.91,0,0,0,537.3,281.83Z" transform="translate(-42.94 111.14)"/><path class="cls-7" d="M508.71,138.69a5.83,5.83,0,1,0,7.37,3.7A5.84,5.84,0,0,0,508.71,138.69Z" transform="translate(-42.94 111.14)"/><path class="cls-6" d="M500.35,128.16a6.5,6.5,0,0,0-5.75,2,.92.92,0,1,1-1.41-1.17,8.32,8.32,0,0,1,7.38-2.63.91.91,0,1,1-.22,1.81Z" transform="translate(-42.94 111.14)"/><path class="cls-6" d="M498.77,133.17h0a2.15,2.15,0,0,1,1.46,0,.85.85,0,0,0,.4-.61.34.34,0,0,1,.39-.29.34.34,0,0,1,.29.39,1.53,1.53,0,0,1-.43.86h0a1.6,1.6,0,0,0,.66-.82.34.34,0,0,1,.65.23,2.22,2.22,0,0,1-.72,1h0a2.19,2.19,0,0,0,.87-.66.35.35,0,0,1,.48-.06.35.35,0,0,1,.06.49,2.78,2.78,0,0,1-.87.73l-.43.23.86,2.46a2.15,2.15,0,0,1-1.31,2.75h0a2.17,2.17,0,0,1-2.76-1.32l-.94-2.65A2.18,2.18,0,0,1,498.77,133.17Z" transform="translate(-42.94 111.14)"/><path class="cls-16" d="M481.91,106.21a.48.48,0,0,1,.95-.15c0,.09,4.33,29.23,36.13,18a.48.48,0,0,1,.32.9C486.42,136.57,481.93,106.3,481.91,106.21Z" transform="translate(-42.94 111.14)"/><path class="cls-9" d="M518.59,126.38c.81-16.13,22.25-2.84,10.11,10A11.46,11.46,0,0,1,518.59,126.38Z" transform="translate(-42.94 111.14)"/><path class="cls-7" d="M519.07,126.4a.48.48,0,0,1-.5.46.47.47,0,0,1-.45-.5c.2-4.16,1.75-6.48,3.78-7.41a6.47,6.47,0,0,1,5.76.47,10.15,10.15,0,0,1,4.45,4.93c1.46,3.43,1.13,7.94-3.06,12.37a.47.47,0,0,1-.67,0,.47.47,0,0,1,0-.67c3.88-4.11,4.2-8.23,2.88-11.34a9.23,9.23,0,0,0-4-4.47,5.54,5.54,0,0,0-4.91-.44C520.58,120.61,519.26,122.66,519.07,126.4Z" transform="translate(-42.94 111.14)"/><path class="cls-16" d="M557,96.27a.47.47,0,0,1,.25-.62.48.48,0,0,1,.63.26c0,.06,9.2,22,23.26,30.84a153.4,153.4,0,0,0,15.39,7.94c11.52,5.4,23,10.79,26.14,19.05a.47.47,0,0,1-.28.61.47.47,0,0,1-.61-.27c-3-7.9-14.31-13.21-25.65-18.53a151.21,151.21,0,0,1-15.49-8C566.3,118.6,557,96.34,557,96.27Z" transform="translate(-42.94 111.14)"/><path class="cls-21" d="M483.23,94a24.52,24.52,0,0,1,3.33-4,55.47,55.47,0,0,1,8.22-6.5c19.1,21.51,47.2,18.84,64.44,14.38.53,1.12,1,2.25,1.52,3.38C512.48,119.29,491.41,104.25,483.23,94Z" transform="translate(-42.94 111.14)"/><path class="cls-14" d="M386.26,185.26H415a4.09,4.09,0,0,1,4.07,4.07v17.6A4.09,4.09,0,0,1,415,211h-9.54l-3.75,6.07a.83.83,0,0,1-.73.41.85.85,0,0,1-.73-.41L396.45,211H386.26a4.08,4.08,0,0,1-4.07-4.08v-17.6A4.08,4.08,0,0,1,386.26,185.26Z" transform="translate(-42.94 111.14)"/><path class="cls-18" d="M393.74,193.22h0a3.89,3.89,0,0,1,5.49,0l1.37,1.37,1.38-1.37a3.89,3.89,0,0,1,5.49,0h0a3.89,3.89,0,0,1,0,5.49l-1.37,1.37-5.5,5.49-5.49-5.49h0l-1.37-1.37A3.89,3.89,0,0,1,393.74,193.22Z" transform="translate(-42.94 111.14)"/><path class="cls-14" d="M414.7,142.82h37a5.27,5.27,0,0,1,5.25,5.25v22.69a5.27,5.27,0,0,1-5.25,5.25H439.39l-4.84,7.83a1.11,1.11,0,0,1-1.88,0L427.83,176H414.7a5.26,5.26,0,0,1-5.25-5.25V148.07A5.26,5.26,0,0,1,414.7,142.82Z" transform="translate(-42.94 111.14)"/><path class="cls-18" d="M424.34,153.08h0a5,5,0,0,1,7.08,0l1.77,1.77,1.77-1.77a5,5,0,0,1,7.08,0h0a5,5,0,0,1,0,7.07l-1.77,1.77L433.19,169l-7.08-7.08h0l-1.77-1.77A5,5,0,0,1,424.34,153.08Z" transform="translate(-42.94 111.14)"/><path class="cls-14" d="M351.55,154.35H378.6a3.85,3.85,0,0,1,3.84,3.84v16.6a3.85,3.85,0,0,1-3.84,3.84h-9l-3.54,5.73a.8.8,0,0,1-.69.38.81.81,0,0,1-.69-.38l-3.54-5.73h-9.6a3.86,3.86,0,0,1-3.85-3.84v-16.6A3.86,3.86,0,0,1,351.55,154.35Z" transform="translate(-42.94 111.14)"/><path class="cls-18" d="M358.6,161.85h0a3.68,3.68,0,0,1,5.18,0l1.29,1.3,1.3-1.3a3.68,3.68,0,0,1,5.18,0h0a3.68,3.68,0,0,1,0,5.18l-1.3,1.3-5.18,5.18-5.18-5.18h0L358.6,167A3.66,3.66,0,0,1,358.6,161.85Z" transform="translate(-42.94 111.14)"/><path class="cls-14" d="M359.92,73.21H424a9.12,9.12,0,0,1,9.1,9.1v39.31a9.13,9.13,0,0,1-9.1,9.1H402.69l-8.39,13.56a1.84,1.84,0,0,1-1.62.9,1.87,1.87,0,0,1-1.63-.9l-8.38-13.56H359.92a9.13,9.13,0,0,1-9.1-9.1V82.31A9.13,9.13,0,0,1,359.92,73.21Z" transform="translate(-42.94 111.14)"/><path class="cls-18" d="M376.62,91h0a8.7,8.7,0,0,1,12.26,0L392,94,395,91a8.71,8.71,0,0,1,12.27,0h0a8.71,8.71,0,0,1,0,12.27l-3.07,3.07L392,118.58l-12.27-12.27h0l-3.06-3.07A8.71,8.71,0,0,1,376.62,91Z" transform="translate(-42.94 111.14)"/><path class="cls-22" d="M99.48,278.33c-21.29-9.34-24.66,14.83-15.2,33.9,6.39,12.91,29.45,45.94,45,74H147C140.92,343.76,121.48,288,99.48,278.33Z" transform="translate(-42.94 111.14)"/><path class="cls-23" d="M140.65,386.28C125.54,334.77,90.74,286.22,90.6,286a.94.94,0,1,0-1.52,1.09c.13.19,34.57,48.23,49.64,99.16Z" transform="translate(-42.94 111.14)"/><path class="cls-23" d="M144.45,202c21.46-21.39,36.12,5.72,33.13,33-2.83,25.82-27.61,114.45-24.64,151.72h-8.46C125.25,338.87,117,229.32,144.45,202Z" transform="translate(-42.94 111.14)"/><path class="cls-22" d="M147.59,386.63c-17.84-75.3,10.81-179.47,10.9-179.82a1.24,1.24,0,0,1,1.47-.89,1.17,1.17,0,0,1,.84,1.45C160.7,207.73,132,312,150,386.63Z" transform="translate(-42.94 111.14)"/><path class="cls-22" d="M197.28,249.24c22.5-10.92,26.81,14.77,17.25,35.57-7.92,17.23-41.7,67.85-55.13,100.66l-11.15-.39C149.49,339.13,170.72,262.12,197.28,249.24Z" transform="translate(-42.94 111.14)"/><path class="cls-23" d="M152.32,385.22c10.22-61.85,54.52-127.91,54.68-128.15a1,1,0,0,1,1.39-.29,1,1,0,0,1,.27,1.39c-.16.24-44.17,65.88-54.35,127.12Z" transform="translate(-42.94 111.14)"/><polygon class="cls-16" points="114.93 500.18 88.25 500.18 81.28 506.47 86.98 528.38 101.59 528.38 116.2 528.38 121.89 506.47 114.93 500.18"/><polygon class="cls-6" points="112.81 500.18 88.25 500.18 81.28 506.47 83.42 514.68 121.41 508.32 121.89 506.47 115.21 500.43 112.81 500.18"/><rect class="cls-24" x="79.08" y="492.02" width="45.03" height="14.44" rx="2.21"/><path class="cls-6" d="M82.47,416.73H667.53a11,11,0,0,1,11,10.95h0a11,11,0,0,1-11,10.95H630.59a6.1,6.1,0,0,0-6.08,6.08h0a6.1,6.1,0,0,0,6.08,6.08h13.52a7.64,7.64,0,0,1,7.6,7.6h0a7.63,7.63,0,0,1-7.6,7.61h-537a7.62,7.62,0,0,1-7.6-7.61h0a7.63,7.63,0,0,1,7.6-7.6h10.65a6.1,6.1,0,0,0,6.08-6.08h0a6.1,6.1,0,0,0-6.08-6.08H82.47a11,11,0,0,1-10.94-10.95h0a11,11,0,0,1,10.94-10.95ZM88.17,466a7.32,7.32,0,0,0,7.3-7.3v-.61a7.32,7.32,0,0,0-7.3-7.3h0a7.32,7.32,0,0,0-7.29,7.3v.61a7.31,7.31,0,0,0,7.29,7.3Z" transform="translate(-42.94 111.14)"/><path class="cls-18" d="M614.14,58.89a25.18,25.18,0,1,1-17.81,7.38,25.11,25.11,0,0,1,17.81-7.38ZM636.6,85.42H626.32a49.65,49.65,0,0,1-.86,8.16A30.8,30.8,0,0,1,633,96.34a22.38,22.38,0,0,0,3.59-10.92Zm-13,0h-8.14v6.92a50.39,50.39,0,0,1,7.35.71,47.69,47.69,0,0,0,.79-7.63Zm-10.83,0h-8.15a47.7,47.7,0,0,0,.8,7.63,50.25,50.25,0,0,1,7.35-.71V85.42Zm-10.84,0H591.69a22.38,22.38,0,0,0,3.59,10.92,30.73,30.73,0,0,1,7.54-2.76,49.65,49.65,0,0,1-.86-8.16Zm-10.27-2.69H602a51.9,51.9,0,0,1,.64-6.93,30.11,30.11,0,0,1-7.91-3,22.28,22.28,0,0,0-3,10Zm13.54-6.38a48.8,48.8,0,0,0-.58,6.38h8.15V77.1a50.68,50.68,0,0,1-7.57-.75Zm17.82,0a50.42,50.42,0,0,1-7.56.75v5.63h8.14a47.13,47.13,0,0,0-.58-6.38Zm3.27,6.38H636.6a22.29,22.29,0,0,0-3-10,30.11,30.11,0,0,1-7.91,3,50.29,50.29,0,0,1,.64,6.93ZM615.49,61.82V74.41a47.55,47.55,0,0,0,7-.69,30.58,30.58,0,0,0-1.94-5.94c-1-2.1-2.72-5.09-5.11-6Zm0,33.21v11.3c2.39-.87,4.15-3.85,5.11-6a29.83,29.83,0,0,0,1.64-4.71,47.74,47.74,0,0,0-6.75-.64Zm-2.69,11.3V95a47.88,47.88,0,0,0-6.76.64,28.89,28.89,0,0,0,1.65,4.71c.95,2.1,2.72,5.08,5.11,6Zm0-31.92V61.82c-2.39.87-4.16,3.86-5.11,6a30.6,30.6,0,0,0-2,5.94,47.82,47.82,0,0,0,7.06.69Zm-16.62-3.88a27.74,27.74,0,0,0,6.94,2.63,33.64,33.64,0,0,1,2.13-6.5,19.68,19.68,0,0,1,2.49-4.16,22.59,22.59,0,0,0-9.51,5.67,23.12,23.12,0,0,0-2.05,2.36Zm29,2.63a27.53,27.53,0,0,0,6.93-2.63,21.94,21.94,0,0,0-2.05-2.36,22.56,22.56,0,0,0-9.5-5.67A20.56,20.56,0,0,1,623,66.66a33.64,33.64,0,0,1,2.13,6.5Zm6.22,25.36a28.72,28.72,0,0,0-6.51-2.32,32.46,32.46,0,0,1-1.84,5.29,20.56,20.56,0,0,1-2.49,4.16,22.54,22.54,0,0,0,9.5-5.66c.47-.47.91-1,1.34-1.47Zm-28-2.32a28.63,28.63,0,0,0-6.52,2.32c.43.51.88,1,1.34,1.47a22.57,22.57,0,0,0,9.51,5.66,19.68,19.68,0,0,1-2.49-4.16A32.46,32.46,0,0,1,603.41,96.2Z" transform="translate(-42.94 111.14)"/><path class="cls-18" d="M123.92,162.88a11.3,11.3,0,0,1,4.48-4.66,6.93,6.93,0,0,0,3.38-4.54,29.34,29.34,0,0,0,.69-7.6,1.74,1.74,0,0,1,1.74-1.75h3a3,3,0,0,1,.89.15,6.46,6.46,0,0,1,3.24,3,11.37,11.37,0,0,1,1.41,5.53,12.74,12.74,0,0,1-.58,3.78c-.27.84-1,3.32-.66,4.17a1.4,1.4,0,0,0,.51.07h7.48a9.87,9.87,0,0,1,2.54.31,6,6,0,0,1,3,1.79,5.81,5.81,0,0,1,1.36,3.94,10,10,0,0,1-.27,2.24c1.08,2.78,1.3,6.24-.89,8.52.13,2.29-.43,4.8-2.38,6.2a7.35,7.35,0,0,1-7.2,5.34H131.94a11.53,11.53,0,0,1-6.59-2.68,4,4,0,0,1-1,1.75l-.06.06a3.87,3.87,0,0,1-2.66,1.06h-6.23a3.89,3.89,0,0,1-3.89-3.88V166a3.89,3.89,0,0,1,1.17-2.77l.06-.05a3.85,3.85,0,0,1,2.66-1.06h6.23a3.83,3.83,0,0,1,2.32.77Zm1.56,19.35c1.58,1.59,4.22,3.67,6.46,3.67h13.72a4,4,0,0,0,4-3.33,1.76,1.76,0,0,1,.93-1.21c1.26-.63,1.3-2.71,1.12-3.88a1.73,1.73,0,0,1,.67-1.76c1.66-1.21,1.1-3.86.39-5.43a1.69,1.69,0,0,1-.15-1.28,7.47,7.47,0,0,0,.3-1.93,2.46,2.46,0,0,0-.5-1.64,2.55,2.55,0,0,0-1.29-.72,6.45,6.45,0,0,0-1.64-.19H142a3.59,3.59,0,0,1-3.71-2.19c-.78-1.89-.05-4.73.53-6.58a9.12,9.12,0,0,0,.43-2.74,7.81,7.81,0,0,0-1-3.81,3.91,3.91,0,0,0-1.2-1.39h-1.16a27.22,27.22,0,0,1-.81,6.8,10.28,10.28,0,0,1-5.08,6.67c-2.58,1.39-4.12,4.76-4.57,7.57v13.37Zm-3.88-16.64h-6.23a.35.35,0,0,0-.24.08l0,0a.44.44,0,0,0-.12.28v19.7a.4.4,0,0,0,.12.27.36.36,0,0,0,.28.12h6.23a.4.4,0,0,0,.24-.07l0,0a.4.4,0,0,0,.12-.27V166a.4.4,0,0,0-.12-.28A.42.42,0,0,0,121.6,165.59Z" transform="translate(-42.94 111.14)"/><rect class="cls-25" x="181.8" y="189.81" width="10.62" height="10.62" rx="2.48"/><rect class="cls-26" x="201.45" y="189.81" width="10.62" height="10.62" rx="2.48"/><rect class="cls-26" x="221.09" y="189.81" width="10.62" height="10.62" rx="2.48"/><rect class="cls-26" x="240.74" y="189.81" width="10.62" height="10.62" rx="2.48"/><rect class="cls-25" x="260.38" y="189.81" width="10.62" height="10.62" rx="2.48"/><rect class="cls-26" x="280.03" y="189.81" width="10.62" height="10.62" rx="2.48"/><rect class="cls-26" x="221.8" y="168.39" width="10.62" height="10.62" rx="2.48"/><rect class="cls-25" x="241.45" y="168.39" width="10.62" height="10.62" rx="2.48"/><rect class="cls-26" x="261.09" y="168.39" width="10.62" height="10.62" rx="2.48"/><rect class="cls-25" x="240.74" y="212.81" width="10.62" height="10.62" rx="2.48"/><rect class="cls-26" x="260.38" y="212.81" width="10.62" height="10.62" rx="2.48"/><path class="cls-4" d="M420.19,376.68h0a6.13,6.13,0,0,1,8.63,0l.58.58.59-.58a6.1,6.1,0,0,1,8.61,0h0a6.11,6.11,0,0,1,0,8.62l-.58.59-8.62,8.61-8.62-8.61-.59-.59A6.11,6.11,0,0,1,420.19,376.68Z" transform="translate(-42.94 111.14)"/><circle class="cls-25" cx="272.59" cy="193.3" r="8.58" transform="translate(32.49 574.25) rotate(-89.18)"/><path class="cls-18" d="M272.59,204.6h0a12.2,12.2,0,0,1,12.17,12.17v11.87A1.36,1.36,0,0,1,283.4,230H261.78a1.36,1.36,0,0,1-1.36-1.36V216.77A12.2,12.2,0,0,1,272.59,204.6Z" transform="translate(-42.94 111.14)"/><path class="cls-4" d="M636.89,247h0a6.1,6.1,0,0,1,8.61,0l.59.59.58-.59a6.13,6.13,0,0,1,8.63,0h0a6.11,6.11,0,0,1,0,8.62l-.59.59-8.62,8.62-8.62-8.62-.58-.59A6.1,6.1,0,0,1,636.89,247Z" transform="translate(-42.94 111.14)"/><path class="cls-4" d="M444.17,101.43h0a6.11,6.11,0,0,1,8.62,0l.58.58.59-.58a6.11,6.11,0,0,1,8.62,0h0a6.11,6.11,0,0,1,0,8.62l-.59.58-8.62,8.62-8.62-8.62-.58-.58A6.1,6.1,0,0,1,444.17,101.43Z" transform="translate(-42.94 111.14)"/><path class="cls-4" d="M337.15,137.51h0a3.48,3.48,0,0,1,4.91,0l.33.33.34-.33a3.47,3.47,0,0,1,4.9,0h0a3.47,3.47,0,0,1,0,4.9l-.33.34-4.91,4.9-4.91-4.9-.33-.34A3.47,3.47,0,0,1,337.15,137.51Z" transform="translate(-42.94 111.14)"/><path class="cls-4" d="M437.15,203.45h0a6.74,6.74,0,0,1,9.48,0l.65.65.64-.65a6.74,6.74,0,0,1,9.48,0h0a6.74,6.74,0,0,1,0,9.48l-.65.64-9.47,9.48-9.48-9.48-.65-.64A6.74,6.74,0,0,1,437.15,203.45Z" transform="translate(-42.94 111.14)"/><path class="cls-25" d="M151.14,459.39h5.66a2.48,2.48,0,0,1,2.48,2.48v5.67a2.47,2.47,0,0,1-2.47,2.47h-5.67a2.48,2.48,0,0,1-2.48-2.48v-5.66A2.48,2.48,0,0,1,151.14,459.39Z"/><path class="cls-26" d="M170.79,459.39h5.66a2.48,2.48,0,0,1,2.48,2.48v5.66a2.47,2.47,0,0,1-2.47,2.47h-5.67a2.48,2.48,0,0,1-2.48-2.48v-5.66A2.48,2.48,0,0,1,170.79,459.39Z"/><path class="cls-26" d="M190.43,459.39h5.67a2.48,2.48,0,0,1,2.48,2.48v5.67A2.47,2.47,0,0,1,196.1,470h-5.67a2.48,2.48,0,0,1-2.48-2.48v-5.66A2.48,2.48,0,0,1,190.43,459.39Z"/><path class="cls-4" d="M253,358.87h5.66a2.49,2.49,0,0,0,2.48-2.48v-5.67a2.48,2.48,0,0,0-2.48-2.47H253a2.48,2.48,0,0,0-2.48,2.47v5.67A2.49,2.49,0,0,0,253,358.87Z" transform="translate(-42.94 111.14)"/><path class="cls-25" d="M229.72,459.39h5.67a2.48,2.48,0,0,1,2.48,2.48v5.67a2.47,2.47,0,0,1-2.47,2.47h-5.67a2.48,2.48,0,0,1-2.48-2.48v-5.66A2.48,2.48,0,0,1,229.72,459.39Z"/><path class="cls-26" d="M249.37,459.39H255a2.48,2.48,0,0,1,2.48,2.48v5.67A2.47,2.47,0,0,1,255,470h-5.67a2.48,2.48,0,0,1-2.48-2.48v-5.66A2.48,2.48,0,0,1,249.37,459.39Z"/><rect class="cls-26" x="188.67" y="437.97" width="10.62" height="10.62" rx="2.48"/><path class="cls-18" d="M253.73,337.45h5.66a2.49,2.49,0,0,0,2.48-2.48v-5.66a2.49,2.49,0,0,0-2.48-2.48h-5.66a2.48,2.48,0,0,0-2.48,2.48V335A2.49,2.49,0,0,0,253.73,337.45Z" transform="translate(-42.94 111.14)"/><path class="cls-4" d="M273.37,337.45H279a2.48,2.48,0,0,0,2.47-2.48v-5.66a2.48,2.48,0,0,0-2.47-2.48h-5.67a2.49,2.49,0,0,0-2.48,2.48V335A2.49,2.49,0,0,0,273.37,337.45Z" transform="translate(-42.94 111.14)"/><rect class="cls-25" x="207.6" y="482.4" width="10.62" height="10.62" rx="2.48"/><rect class="cls-26" x="227.25" y="482.4" width="10.62" height="10.62" rx="2.48"/><path class="cls-18" d="M217,141.61a1.2,1.2,0,1,1,2.4,0V147a1.2,1.2,0,1,1-2.4,0v-5.41Zm-8.2,4.39a1.2,1.2,0,1,1,1.7-1.7l3.83,3.82a1.2,1.2,0,0,1-1.7,1.7L208.79,146Zm-2.69,8.9a1.21,1.21,0,0,1,0-2.41h5.41a1.21,1.21,0,0,1,0,2.41Zm4.39,8.19a1.2,1.2,0,1,1-1.7-1.7l3.83-3.82a1.2,1.2,0,0,1,1.7,1.7l-3.83,3.82Zm8.9,2.69a1.2,1.2,0,1,1-2.4,0v-5.4a1.2,1.2,0,1,1,2.4,0v5.4Zm8.2-4.39a1.2,1.2,0,1,1-1.7,1.7l-3.83-3.82a1.21,1.21,0,0,1,1.71-1.7l3.82,3.82Zm2.69-8.9a1.21,1.21,0,0,1,0,2.41h-5.41a1.21,1.21,0,0,1,0-2.41Zm-4.39-8.19a1.2,1.2,0,1,1,1.7,1.7l-3.82,3.82a1.21,1.21,0,0,1-1.71-1.7Z" transform="translate(-42.94 111.14)"/><path class="cls-18" d="M80.78,353.18a1.2,1.2,0,0,1,2.4,0v5.4a1.2,1.2,0,1,1-2.4,0v-5.4Zm-8.2,4.39a1.2,1.2,0,0,1,1.7-1.7l3.83,3.82a1.2,1.2,0,0,1-1.7,1.7l-3.83-3.82Zm-2.69,8.9a1.21,1.21,0,0,1,0-2.41H75.3a1.21,1.21,0,0,1,0,2.41Zm4.39,8.19a1.2,1.2,0,0,1-1.7-1.7l3.83-3.82a1.2,1.2,0,0,1,1.7,1.7l-3.83,3.82Zm8.9,2.69a1.2,1.2,0,1,1-2.4,0v-5.41a1.2,1.2,0,0,1,2.4,0v5.41Zm8.2-4.39a1.2,1.2,0,0,1-1.7,1.7l-3.82-3.82a1.2,1.2,0,0,1,1.69-1.7L91.38,373Zm2.69-8.9a1.21,1.21,0,0,1,0,2.41H88.66a1.21,1.21,0,0,1,0-2.41Zm-4.39-8.19a1.2,1.2,0,0,1,1.7,1.7l-3.83,3.82a1.2,1.2,0,0,1-1.69-1.7Z" transform="translate(-42.94 111.14)"/><path class="cls-18" d="M334.36,218.27a1.2,1.2,0,1,1,2.4,0v5.41a1.2,1.2,0,0,1-2.4,0v-5.41Zm-8.2,4.39a1.2,1.2,0,1,1,1.7-1.7l3.83,3.83a1.2,1.2,0,1,1-1.7,1.7l-3.83-3.83Zm-2.69,8.9a1.2,1.2,0,0,1,0-2.4h5.41a1.2,1.2,0,0,1,0,2.4Zm4.39,8.2a1.2,1.2,0,1,1-1.7-1.7l3.83-3.82a1.2,1.2,0,1,1,1.7,1.7l-3.83,3.82Zm8.9,2.69a1.2,1.2,0,0,1-2.4,0V237a1.2,1.2,0,1,1,2.4,0v5.41Zm8.2-4.39a1.2,1.2,0,1,1-1.7,1.7l-3.83-3.82a1.2,1.2,0,1,1,1.7-1.7l3.83,3.82Zm2.69-8.9a1.2,1.2,0,1,1,0,2.4h-5.41a1.2,1.2,0,0,1,0-2.4Zm-4.39-8.2a1.2,1.2,0,1,1,1.7,1.7l-3.83,3.83a1.2,1.2,0,1,1-1.7-1.7Z" transform="translate(-42.94 111.14)"/><path class="cls-18" d="M474.33,51.93a1.21,1.21,0,1,1,2.41,0v5.4a1.21,1.21,0,1,1-2.41,0v-5.4Zm-8.2,4.39a1.22,1.22,0,0,1,0-1.7,1.2,1.2,0,0,1,1.7,0l3.83,3.82a1.2,1.2,0,0,1-1.7,1.7l-3.83-3.82Zm-2.69,8.9a1.21,1.21,0,0,1,0-2.41h5.41a1.21,1.21,0,1,1,0,2.41Zm4.39,8.19a1.2,1.2,0,0,1-1.7,0,1.22,1.22,0,0,1,0-1.7L470,67.89a1.2,1.2,0,0,1,1.7,1.7l-3.83,3.82Zm8.91,2.69a1.21,1.21,0,1,1-2.41,0V70.69a1.21,1.21,0,0,1,2.41,0V76.1Zm8.19-4.39a1.2,1.2,0,1,1-1.7,1.7l-3.82-3.82a1.2,1.2,0,1,1,1.7-1.7l3.82,3.82Zm2.69-8.9a1.21,1.21,0,0,1,0,2.41h-5.41a1.21,1.21,0,0,1,0-2.41Zm-4.39-8.19a1.2,1.2,0,1,1,1.7,1.7l-3.82,3.82a1.2,1.2,0,1,1-1.7-1.7Z" transform="translate(-42.94 111.14)"/><path class="cls-2" d="M327.26,311.59a1.2,1.2,0,0,1,2.4,0V317a1.2,1.2,0,1,1-2.4,0v-5.41Zm-8.2,4.39a1.2,1.2,0,1,1,1.7-1.7l3.82,3.82a1.2,1.2,0,1,1-1.69,1.71L319.06,316Zm-2.69,8.9a1.2,1.2,0,1,1,0-2.4h5.41a1.2,1.2,0,1,1,0,2.4Zm4.39,8.2a1.2,1.2,0,1,1-1.7-1.7l3.83-3.83a1.2,1.2,0,1,1,1.69,1.7l-3.82,3.83Zm8.9,2.69a1.2,1.2,0,0,1-2.4,0v-5.41a1.2,1.2,0,0,1,2.4,0v5.41Zm8.2-4.39a1.2,1.2,0,0,1-1.7,1.7l-3.83-3.83a1.2,1.2,0,1,1,1.7-1.7l3.83,3.83Zm2.69-8.9a1.2,1.2,0,0,1,0,2.4h-5.41a1.2,1.2,0,1,1,0-2.4Zm-4.39-8.2a1.2,1.2,0,0,1,1.7,1.7L334,319.81a1.2,1.2,0,0,1-1.7,0,1.21,1.21,0,0,1,0-1.71Z" transform="translate(-42.94 111.14)"/></svg>