<svg id="Layer_1" data-name="Layer 1" xmlns="http://www.w3.org/2000/svg" viewBox="0 0 2342.36 2087.29"><defs><style>.cls-1{fill:#1b194e;}.cls-2{fill:#e84d25;}</style></defs><title>logo</title><path class="cls-1" d="M1676.83,207.52c-189.66,0-360.78,79.33-482,206.62-121.23-127.29-292.35-206.62-482-206.62-367.56,0-665.53,298-665.53,665.53a668.18,668.18,0,0,0,14.5,138.73H60.51c32.62,189.12,134.05,380,263.73,557.19q-44.61-87.43-67.77-167.26l-17-80a432.76,432.76,0,0,1-9.36-89.68c0-114.6,44.63-222.35,125.67-303.39S544.61,803,659.22,803A427.1,427.1,0,0,1,970,936.24L1141.22,1116l171.24-179.8A427.14,427.14,0,0,1,1623.23,803c114.6,0,222.35,44.63,303.38,125.66s125.67,188.79,125.67,303.39a428.31,428.31,0,0,1-22.77,138.46l-2.72,8-2.15,8.16c-31.81,121.06-101.48,256.25-207.06,401.83-90.38,124.62-205.95,255.16-343.49,388q-38.1,36.8-75.4,71c285.59-233,786.23-695.45,908.26-1159.74a664.75,664.75,0,0,0,35.41-214.73C2342.36,505.48,2044.39,207.52,1676.83,207.52Z" transform="translate(0 -160.22)"/><path class="cls-2" d="M1629.53,160.22c-189.65,0-360.77,79.34-482,206.62-121.22-127.28-292.35-206.62-482-206.62C298,160.22,0,458.19,0,825.75A668.2,668.2,0,0,0,14.49,964.49H13.22c32.62,189.11,134,380,263.73,557.19q-44.62-87.43-67.77-167.26l-17-80a433.51,433.51,0,0,1-9.35-89.68c0-114.61,44.63-222.35,125.67-303.39S497.32,755.71,611.92,755.71A427.2,427.2,0,0,1,922.69,888.94l171.24,179.81,171.24-179.81a427.2,427.2,0,0,1,310.76-133.23c114.61,0,222.35,44.63,303.39,125.67S2005,1070.16,2005,1184.77a428.36,428.36,0,0,1-22.77,138.46l-2.73,8-2.14,8.17c-31.82,121-101.49,256.24-207.07,401.82-90.37,124.62-205.94,255.17-343.49,388q-38.08,36.8-75.4,71c285.6-233,786.23-695.45,908.26-1159.73a664.49,664.49,0,0,0,35.41-214.74C2295.06,458.19,1997.09,160.22,1629.53,160.22Z" transform="translate(0 -160.22)"/></svg>