<svg id="OBJECTS" xmlns="http://www.w3.org/2000/svg" viewBox="0 0 58.91 124.94"><defs><style>.cls-1{fill:#f9ff00;}</style></defs><title>arrow</title><path class="cls-1" d="M53.16,16.22a67.23,67.23,0,0,1,8.44,5.19c1.37.93,2.63,2,3.93,3s2.49,2.15,3.67,3.3A87.66,87.66,0,0,1,81.74,42.91L83.08,45l1.28,2.1c.89,1.39,1.65,2.84,2.48,4.26,1.55,2.89,3,5.82,4.37,8.82a112,112,0,0,1,6.66,18.65,75.63,75.63,0,0,1,1.76,9.88,60.39,60.39,0,0,1,.19,10.16A45,45,0,0,1,98,109a36.89,36.89,0,0,1-4.36,9.51,40.79,40.79,0,0,1-6.75,8,36.67,36.67,0,0,1-8.72,5.74,26.18,26.18,0,0,1-20.35,1.22,1.23,1.23,0,0,1-.72-1.59,1.25,1.25,0,0,1,1.31-.79h.05a27.54,27.54,0,0,0,17.38-3.46A36.75,36.75,0,0,0,83,122.25a41.11,41.11,0,0,0,5.73-6.9,33.35,33.35,0,0,0,3.8-8.08,41.24,41.24,0,0,0,1.2-4.39l.41-2.26c.13-.75.2-1.52.31-2.27a55.07,55.07,0,0,0,.28-9.27,78.11,78.11,0,0,0-1.16-9.34,88.22,88.22,0,0,0-2.26-9.24,92.2,92.2,0,0,0-3.16-9,105.29,105.29,0,0,0-8.59-17.15A78.67,78.67,0,0,0,67.63,29.37,59.27,59.27,0,0,0,52.08,18.43l0,0a1.23,1.23,0,0,1,1.07-2.21Z" transform="translate(-41.04 -9.97)"/><path class="cls-1" d="M55.59,12.43a44.53,44.53,0,0,0-6.2.68c-1,.17-2,.4-3.07.62s-2,.52-3.06.81l1.79-2.27c.66,2,1.49,3.95,2.17,5.88a19,19,0,0,1,1.47,6.12L45.2,25.88a6.83,6.83,0,0,1,.15-1.46,1.48,1.48,0,0,1,1.75-1.16,1.51,1.51,0,0,1,.52.22,7.57,7.57,0,0,1,1.13.93A1.75,1.75,0,0,1,46.38,27l-1.12-1a11.72,11.72,0,0,1-3.51-6.15,24.29,24.29,0,0,1-.7-7l0-.68a1.64,1.64,0,0,1,1.69-1.6h.08q1.57.12,3.15.15c1,0,2.09,0,3.13,0A44.47,44.47,0,0,0,55.33,10a1.23,1.23,0,0,1,.46,2.42Z" transform="translate(-41.04 -9.97)"/></svg>