<svg id="Candles" xmlns="http://www.w3.org/2000/svg" viewBox="0 0 70.88 67.85"><defs><style>.cls-1{fill:#fff;}.cls-1,.cls-3{stroke:#263238;stroke-linecap:round;stroke-linejoin:round;}.cls-2,.cls-3{fill:#f9ff00;}</style></defs><title>candles</title><path class="cls-1" d="M69.82,67.78C69.82,69,68,70,65.77,70s-4-1-4-2.24,1.81-2.25,4-2.25S69.82,66.53,69.82,67.78Z" transform="translate(-14.24 -13.67)"/><path class="cls-1" d="M42.4,68.67c0,1.25-1.81,2.25-4,2.25s-4-1-4-2.25,1.81-2.24,4-2.24S42.4,67.43,42.4,68.67Z" transform="translate(-14.24 -13.67)"/><path class="cls-1" d="M46.22,70c0,1.24-1.81,2.25-4,2.25s-4-1-4-2.25,1.81-2.24,4-2.24S46.22,68.78,46.22,70Z" transform="translate(-14.24 -13.67)"/><path class="cls-1" d="M58.81,69.12c0,1.25-1.81,2.25-4.05,2.25s-4-1-4-2.25,1.81-2.24,4-2.24S58.81,67.88,58.81,69.12Z" transform="translate(-14.24 -13.67)"/><path class="cls-1" d="M52.07,68.67c0,1.25-1.82,2.25-4,2.25s-4-1-4-2.25,1.81-2.24,4-2.24S52.07,67.43,52.07,68.67Z" transform="translate(-14.24 -13.67)"/><path class="cls-1" d="M65.77,70.47c0,1.24-1.81,2.25-4,2.25s-4-1-4-2.25,1.81-2.24,4-2.24S65.77,69.23,65.77,70.47Z" transform="translate(-14.24 -13.67)"/><path class="cls-1" d="M75.88,70.7c0,1.24-1.81,2.24-4,2.24s-4-1-4-2.24,1.81-2.25,4-2.25S75.88,69.46,75.88,70.7Z" transform="translate(-14.24 -13.67)"/><path class="cls-1" d="M37,71.15c0,1.24-1.81,2.24-4,2.24s-4-1-4-2.24,1.81-2.25,4-2.25S37,69.91,37,71.15Z" transform="translate(-14.24 -13.67)"/><path class="cls-1" d="M42.18,72.27c0,1.24-1.81,2.25-4,2.25s-4-1-4-2.25S35.9,70,38.13,70,42.18,71,42.18,72.27Z" transform="translate(-14.24 -13.67)"/><path class="cls-1" d="M68.69,72.94c0,1.25-1.81,2.25-4,2.25s-4.05-1-4.05-2.25,1.82-2.24,4.05-2.24S68.69,71.7,68.69,72.94Z" transform="translate(-14.24 -13.67)"/><path class="cls-1" d="M51.84,71.82c0,1.24-1.81,2.25-4,2.25s-4-1-4-2.25,1.81-2.25,4-2.25S51.84,70.58,51.84,71.82Z" transform="translate(-14.24 -13.67)"/><path class="cls-1" d="M57.91,71.82c0,1.24-1.81,2.25-4,2.25s-4-1-4-2.25,1.81-2.25,4-2.25S57.91,70.58,57.91,71.82Z" transform="translate(-14.24 -13.67)"/><path class="cls-2" d="M43.57,40.1a7.92,7.92,0,0,1-3-7.21C41.28,28.3,45.21,24,45.21,24a20.86,20.86,0,0,1,2.29,8.52C47.5,36.82,43.57,40.1,43.57,40.1Z" transform="translate(-14.24 -13.67)"/><path class="cls-2" d="M62,29.73A8,8,0,0,1,59,22.51c.66-4.58,4.59-8.84,4.59-8.84a20.79,20.79,0,0,1,2.3,8.52C65.91,26.45,62,29.73,62,29.73Z" transform="translate(-14.24 -13.67)"/><path class="cls-1" d="M23.06,24H33a3,3,0,0,1,3,3V59.74a1.5,1.5,0,0,1-1.5,1.5h-13a1.5,1.5,0,0,1-1.5-1.5V27A3,3,0,0,1,23.06,24Z"/><path class="cls-3" d="M42.38,37.88a5.45,5.45,0,0,1-2-5c.45-3.14,3.14-6.06,3.14-6.06a14.23,14.23,0,0,1,1.58,5.84C45.08,35.63,42.38,37.88,42.38,37.88Z" transform="translate(-14.24 -13.67)"/><path class="cls-1" d="M41.26,14.55h10a3,3,0,0,1,3,3V59.74a1.5,1.5,0,0,1-1.5,1.5h-13a1.5,1.5,0,0,1-1.5-1.5V17.55A3,3,0,0,1,41.26,14.55Z"/><path class="cls-3" d="M60.58,28.4a5.42,5.42,0,0,1-2-4.94c.45-3.14,3.14-6.07,3.14-6.07a14.3,14.3,0,0,1,1.58,5.85C63.28,26.16,60.58,28.4,60.58,28.4Z" transform="translate(-14.24 -13.67)"/><ellipse class="cls-1" cx="37.35" cy="59.94" rx="4.04" ry="2.25"/><path class="cls-1" d="M28.22,74.5c0,1.24-1.81,2.25-4,2.25s-4.05-1-4.05-2.25,1.82-2.24,4.05-2.24S28.22,73.26,28.22,74.5Z" transform="translate(-14.24 -13.67)"/><path class="cls-1" d="M32,75.85c0,1.24-1.81,2.25-4,2.25S24,77.09,24,75.85,25.77,73.6,28,73.6,32,74.61,32,75.85Z" transform="translate(-14.24 -13.67)"/><path class="cls-1" d="M44.63,75c0,1.24-1.81,2.25-4.05,2.25s-4-1-4-2.25,1.81-2.24,4-2.24S44.63,73.71,44.63,75Z" transform="translate(-14.24 -13.67)"/><path class="cls-1" d="M37.89,74.5c0,1.24-1.81,2.25-4,2.25s-4-1-4-2.25,1.81-2.24,4-2.24S37.89,73.26,37.89,74.5Z" transform="translate(-14.24 -13.67)"/><path class="cls-1" d="M51.59,76.3c0,1.24-1.81,2.25-4,2.25s-4-1-4-2.25,1.81-2.25,4-2.25S51.59,75.06,51.59,76.3Z" transform="translate(-14.24 -13.67)"/><path class="cls-1" d="M61.7,76.53c0,1.24-1.81,2.24-4,2.24s-4-1-4-2.24,1.81-2.25,4-2.25S61.7,75.28,61.7,76.53Z" transform="translate(-14.24 -13.67)"/><path class="cls-1" d="M22.83,77c0,1.25-1.81,2.25-4,2.25s-4-1-4-2.25,1.81-2.24,4-2.24S22.83,75.73,22.83,77Z" transform="translate(-14.24 -13.67)"/><path class="cls-1" d="M28,78.1c0,1.24-1.81,2.25-4.05,2.25s-4-1-4-2.25,1.81-2.25,4-2.25S28,76.86,28,78.1Z" transform="translate(-14.24 -13.67)"/><path class="cls-1" d="M54.51,78.77c0,1.24-1.81,2.25-4,2.25s-4-1-4-2.25,1.82-2.24,4-2.24S54.51,77.53,54.51,78.77Z" transform="translate(-14.24 -13.67)"/><ellipse class="cls-1" cx="19.38" cy="63.98" rx="4.04" ry="2.25"/><ellipse class="cls-1" cx="25.44" cy="63.98" rx="4.04" ry="2.25"/><ellipse class="cls-1" cx="60.27" cy="59.94" rx="4.04" ry="2.25"/><path class="cls-1" d="M51.14,74.5c0,1.24-1.81,2.25-4,2.25s-4.05-1-4.05-2.25,1.82-2.24,4.05-2.24S51.14,73.26,51.14,74.5Z" transform="translate(-14.24 -13.67)"/><path class="cls-1" d="M55,75.85c0,1.24-1.81,2.25-4,2.25s-4.05-1-4.05-2.25,1.82-2.25,4.05-2.25S55,74.61,55,75.85Z" transform="translate(-14.24 -13.67)"/><path class="cls-1" d="M67.55,75c0,1.24-1.81,2.25-4,2.25s-4-1-4-2.25,1.81-2.24,4-2.24S67.55,73.71,67.55,75Z" transform="translate(-14.24 -13.67)"/><path class="cls-1" d="M60.81,74.5c0,1.24-1.81,2.25-4.05,2.25s-4-1-4-2.25,1.81-2.24,4-2.24S60.81,73.26,60.81,74.5Z" transform="translate(-14.24 -13.67)"/><path class="cls-1" d="M74.51,76.3c0,1.24-1.81,2.25-4,2.25s-4-1-4-2.25,1.81-2.25,4-2.25S74.51,75.06,74.51,76.3Z" transform="translate(-14.24 -13.67)"/><path class="cls-1" d="M84.62,76.53c0,1.24-1.81,2.24-4,2.24s-4-1-4-2.24,1.81-2.25,4-2.25S84.62,75.28,84.62,76.53Z" transform="translate(-14.24 -13.67)"/><path class="cls-1" d="M45.75,77c0,1.25-1.81,2.25-4,2.25s-4.05-1-4.05-2.25,1.81-2.24,4.05-2.24S45.75,75.73,45.75,77Z" transform="translate(-14.24 -13.67)"/><path class="cls-1" d="M50.92,78.1c0,1.24-1.81,2.25-4.05,2.25s-4-1-4-2.25,1.81-2.25,4-2.25S50.92,76.86,50.92,78.1Z" transform="translate(-14.24 -13.67)"/><path class="cls-1" d="M77.43,78.77c0,1.24-1.81,2.25-4,2.25s-4-1-4-2.25,1.82-2.24,4-2.24S77.43,77.53,77.43,78.77Z" transform="translate(-14.24 -13.67)"/><ellipse class="cls-1" cx="42.3" cy="63.98" rx="4.04" ry="2.25"/><ellipse class="cls-1" cx="48.36" cy="63.98" rx="4.04" ry="2.25"/></svg>