<svg id="Character" xmlns="http://www.w3.org/2000/svg" xmlns:xlink="http://www.w3.org/1999/xlink" viewBox="0 0 189.95 188.98"><defs><style>.cls-1,.cls-3,.cls-6{fill:#fff;}.cls-1,.cls-13,.cls-2,.cls-7{stroke:#263238;}.cls-1,.cls-11,.cls-13,.cls-2,.cls-7{stroke-linecap:round;stroke-linejoin:round;}.cls-2,.cls-5{fill:#f9ff00;}.cls-4{clip-path:url(#clip-path);}.cls-6{opacity:0.5;}.cls-11,.cls-7{fill:none;}.cls-8{clip-path:url(#clip-path-2);}.cls-9{opacity:0.15;}.cls-10,.cls-13{fill:#263238;}.cls-11{stroke:#fff;}.cls-12{clip-path:url(#clip-path-3);}.cls-14{clip-path:url(#clip-path-4);}.cls-15{clip-path:url(#clip-path-5);}.cls-16{clip-path:url(#clip-path-6);}.cls-17{opacity:0.3;}.cls-18{clip-path:url(#clip-path-7);}.cls-19{clip-path:url(#clip-path-8);}.cls-20{clip-path:url(#clip-path-9);}.cls-21{clip-path:url(#clip-path-10);}.cls-22{clip-path:url(#clip-path-11);}.cls-23{clip-path:url(#clip-path-12);}</style><clipPath id="clip-path" transform="translate(-12.94 -16.07)"><path class="cls-1" d="M102,59.24s.9,13.61-.35,15.94S92.52,79.3,87.86,80s-11.28,1.08-13.07,4.3-1.43,10.57.89,16.12,13.26,34.39,13.26,34.39L75,168.5s19.52,23.64,31.52,27,28.12-8.42,31.71-13.25A20.48,20.48,0,0,0,142,171.9L128.16,133s12.51-29.78,13.41-35.87S143,84,138.56,82s-14-3.27-16.84-4.7-3.94-2.15-4.12-5.91.18-12,.18-12S106.49,61.74,102,59.24Z"/></clipPath><clipPath id="clip-path-2" transform="translate(-12.94 -16.07)"><path class="cls-2" d="M135.54,114.82c-3.36-3.78-7.61-10.26-7.53-17.92a156.28,156.28,0,0,1,.84-17.58c-1.18-.27-2.32-.53-3.35-.79-1,6.11-4.24,19-14.77,19.17-11,.21-13.73-13.79-14.41-19.59-.6.19-1.22.37-1.86.53h0c-.63.17-1.27.33-1.91.48,5.75,12.15-6.15,31.52-10.39,37.8.2.51.39,1,.59,1.54.05.13.1.25.14.38.18.45.35.91.53,1.36l0,.11L85.21,125v0c.17.45.33.89.5,1.32l.08.21c.33.88.65,1.72,1,2.5l.16.42c.58,1.54,1.07,2.82,1.42,3.74l.32.84c.1.27.18.47.22.6l.07.16L75,168.5s19.52,23.64,31.52,27,28.12-8.42,31.71-13.25A20.48,20.48,0,0,0,142,171.9L128.16,133S132,124,135.54,114.82Z"/></clipPath><clipPath id="clip-path-3" transform="translate(-12.94 -16.07)"><path class="cls-1" d="M108.1,22.16s-3.58,1.25-7.16,8.06a32.88,32.88,0,0,0-3.23,22.21c1.62,7.7,7.35,12.18,12.9,12.54s11.11-7,12.18-12.9S121,32.73,117.6,27.17A10.64,10.64,0,0,0,108.1,22.16Z"/></clipPath><clipPath id="clip-path-4" transform="translate(-12.94 -16.07)"><path class="cls-1" d="M82.82,81.48s-7.45-1.06-10.64,5.32-6.64,38.28-6.64,38.28-4,2.66-8.51,5.31-13.29,8.25-17.81,9.84-8.51,2.92-8.51,2.92a37.84,37.84,0,0,1-2.66-5.58c-.26-1.33-3.19-1.86-4.52-3.19s-3.19-3.45-3.19-1.33-.26,3.46,1.86,4.26S25.93,141,25.93,141s-11.7-.14-10.9.93a19.7,19.7,0,0,0,5.85,5.18,30,30,0,0,0,13.55,3.46c4.79,0,35.09-9.84,37.49-12.5S82,107.27,82,107.27"/></clipPath><clipPath id="clip-path-5" transform="translate(-12.94 -16.07)"><path class="cls-1" d="M133,81.48s7.44-1.06,10.63,5.32,6.65,38.28,6.65,38.28,4,2.66,8.51,5.31,13.29,8.25,17.81,9.84,8.5,2.92,8.5,2.92,2.4-4.25,2.66-5.58,3.19-1.86,4.52-3.19,3.19-3.45,3.19-1.33.27,3.46-1.86,4.26S189.9,141,189.9,141s11.7-.14,10.9.93a19.83,19.83,0,0,1-5.85,5.18,30,30,0,0,1-13.56,3.46c-4.78,0-35.09-9.84-37.48-12.5s-10.1-30.83-10.1-30.83"/></clipPath><clipPath id="clip-path-6" transform="translate(-12.94 -16.07)"><path class="cls-1" d="M138.2,182.29A20.48,20.48,0,0,0,142,171.9l-3-8.5c-24.53,4.31-52.17,1-61.68-.42L75,168.5s19.52,23.64,31.52,27S134.61,187.12,138.2,182.29Z"/></clipPath><clipPath id="clip-path-7" transform="translate(-12.94 -16.07)"><path class="cls-1" d="M122.39,181.4s21-17.8,38.29-24.66c0,0,17.53-8.46,21.16-1.81s-13.51,26.6-19,30-18.33,9.87-27.2,11.68-19,2.3-24.38-.6"/></clipPath><clipPath id="clip-path-8" transform="translate(-12.94 -16.07)"><path class="cls-1" d="M105.92,193.14s19.07-6.74,30.47-18.38,33.5-25.12,40.94-23.72,9.31,4.42,6.52,13-14.89,20-26.29,23.73-32.8,7.68-41.41,9.31-12.79,3.72-23.26,3.72-21.64-.7-24.66-6.75,1.86-5.81,12.56-3.72A213.21,213.21,0,0,0,105.92,193.14Z"/></clipPath><clipPath id="clip-path-9" transform="translate(-12.94 -16.07)"><path class="cls-1" d="M105.84,193.14a212.83,212.83,0,0,1-25-2.79c-10.7-2.09-15.58-2.33-12.56,3.72s14.19,6.75,24.66,6.75A57.48,57.48,0,0,0,107.55,199,10.79,10.79,0,0,1,105.84,193.14Z"/></clipPath><clipPath id="clip-path-10" transform="translate(-12.94 -16.07)"><path class="cls-1" d="M100,180.65c-13.73-11.4-47.54-34-55.91-34s-11.63,9.53-11.63,9.53-.93,3.49,6,10.24,28.38,24.89,45.13,29.31S104.52,198,104.52,198"/></clipPath><clipPath id="clip-path-11" transform="translate(-12.94 -16.07)"><path class="cls-1" d="M51.36,156.25S68.91,164.09,75,168.5s19.78,17.2,27.22,21.15,14.19,6.75,19.31,6.75,29.78-3.26,33.73-1.16-2.09,7-7.44,8.83-25.13-2.32-32.1-2.79-30.48-3.72-46.76-9.3-34.66-26.75-36.76-30.71S33.92,153,33.92,153"/></clipPath><clipPath id="clip-path-12" transform="translate(-12.94 -16.07)"><path class="cls-1" d="M155.23,195.24c-3.95-2.1-28.61,1.16-33.73,1.16a17,17,0,0,1-2.41-.19,10.11,10.11,0,0,1-1.49,5.25c8.15.92,25.27,4.33,30.19,2.61C153.14,202.21,159.19,197.33,155.23,195.24Z"/></clipPath></defs><title>meditate</title><path class="cls-3" d="M102,59.24s.9,13.61-.35,15.94S92.52,79.3,87.86,80s-11.28,1.08-13.07,4.3-1.43,10.57.89,16.12,13.26,34.39,13.26,34.39L75,168.5s19.52,23.64,31.52,27,28.12-8.42,31.71-13.25A20.48,20.48,0,0,0,142,171.9L128.16,133s12.51-29.78,13.41-35.87S143,84,138.56,82s-14-3.27-16.84-4.7-3.94-2.15-4.12-5.91.18-12,.18-12S106.49,61.74,102,59.24Z" transform="translate(-12.94 -16.07)"/><g class="cls-4"><path class="cls-5" d="M117.6,71.42c-.18-3.77.18-12,.18-12s-11.29,2.33-15.77-.17c0,0,.73,11,0,14.9a14.92,14.92,0,0,0,6.5,2.27c3.37.44,7-.67,9.77-1.82A7.75,7.75,0,0,1,117.6,71.42Z" transform="translate(-12.94 -16.07)"/><path class="cls-6" d="M117.6,71.42c-.18-3.77.18-12,.18-12s-11.29,2.33-15.77-.17c0,0,.73,11,0,14.9a14.92,14.92,0,0,0,6.5,2.27c3.37.44,7-.67,9.77-1.82A7.75,7.75,0,0,1,117.6,71.42Z" transform="translate(-12.94 -16.07)"/><path class="cls-7" d="M126.39,85.67,115.75,87.3c-3,.46-3.29,2.79-3.29,2.79" transform="translate(-12.94 -16.07)"/><path class="cls-7" d="M107.14,89.39s-.25-1.39-2.53-2.33S91.45,85.9,89.17,85.44" transform="translate(-12.94 -16.07)"/></g><path class="cls-7" d="M102,59.24s.9,13.61-.35,15.94S92.52,79.3,87.86,80s-11.28,1.08-13.07,4.3-1.43,10.57.89,16.12,13.26,34.39,13.26,34.39L75,168.5s19.52,23.64,31.52,27,28.12-8.42,31.71-13.25A20.48,20.48,0,0,0,142,171.9L128.16,133s12.51-29.78,13.41-35.87S143,84,138.56,82s-14-3.27-16.84-4.7-3.94-2.15-4.12-5.91.18-12,.18-12S106.49,61.74,102,59.24Z" transform="translate(-12.94 -16.07)"/><path class="cls-5" d="M135.54,114.82c-3.36-3.78-7.61-10.26-7.53-17.92a156.28,156.28,0,0,1,.84-17.58c-1.18-.27-2.32-.53-3.35-.79-1,6.11-4.24,19-14.77,19.17-11,.21-13.73-13.79-14.41-19.59-.6.19-1.22.37-1.86.53h0c-.63.17-1.27.33-1.91.48,5.75,12.15-6.15,31.52-10.39,37.8.2.51.39,1,.59,1.54.05.13.1.25.14.38.18.45.35.91.53,1.36l0,.11L85.21,125v0c.17.45.33.89.5,1.32l.08.21c.33.88.65,1.72,1,2.5l.16.42c.58,1.54,1.07,2.82,1.42,3.74l.32.84c.1.27.18.47.22.6l.07.16L75,168.5s19.52,23.64,31.52,27,28.12-8.42,31.71-13.25A20.48,20.48,0,0,0,142,171.9L128.16,133S132,124,135.54,114.82Z" transform="translate(-12.94 -16.07)"/><g class="cls-8"><path class="cls-9" d="M128.16,133s3.81-9.06,7.38-18.21a32.89,32.89,0,0,1-2.31-2.91,9.44,9.44,0,0,0-2.1,2.46s-2.18,6.29-6,9.68-10.41,1.7-14.52,1.21-9.69,3.39-13.56-3.87c-3.78-7.09-7.1-11.85-10.86-11-1.45,2.54-2.81,4.67-3.81,6.16,0,.2-.08.39-.11.59.16.43.33.85.49,1.28.05.13.1.25.14.38.18.45.35.91.52,1.36l0,.11L85.21,125v0c.17.45.33.89.5,1.32l.08.21c.33.88.65,1.72,1,2.5l.16.42c.58,1.54,1.07,2.82,1.42,3.74.13.33.23.6.32.84s.18.47.22.6l.07.16L81.69,152.3c0,.43.25.51.78.08,2.67-2.18,8.72-6.3,13.56-2.91s8.47,9.93,16.7,6.3,9-11.62,14.53-10.65a18.16,18.16,0,0,1,6,2.4Z" transform="translate(-12.94 -16.07)"/></g><path class="cls-7" d="M135.54,114.82c-3.36-3.78-7.61-10.26-7.53-17.92a156.28,156.28,0,0,1,.84-17.58c-1.18-.27-2.32-.53-3.35-.79-1,6.11-4.24,19-14.77,19.17-11,.21-13.73-13.79-14.41-19.59-.6.19-1.22.37-1.86.53h0c-.63.17-1.27.33-1.91.48,5.75,12.15-6.15,31.52-10.39,37.8.2.51.39,1,.59,1.54.05.13.1.25.14.38.18.45.35.91.53,1.36l0,.11L85.21,125v0c.17.45.33.89.5,1.32l.08.21c.33.88.65,1.72,1,2.5l.16.42c.58,1.54,1.07,2.82,1.42,3.74l.32.84c.1.27.18.47.22.6l.07.16L75,168.5s19.52,23.64,31.52,27,28.12-8.42,31.71-13.25A20.48,20.48,0,0,0,142,171.9L128.16,133S132,124,135.54,114.82Z" transform="translate(-12.94 -16.07)"/><path class="cls-10" d="M130.94,49.79h-.14c1.85-7-.06-16-3.35-21.72-4.3-7.52-9.14-11.64-12.9-11.64s-5,4.12-5,4.12-2-4.3-7.88-4.48S86.43,38.28,87.51,47.77s9.85,14.33,19.16,15.41,15.58-.9,21.32-7.71a12.68,12.68,0,0,0,1.78-2.8c-.94,3.45-3.13,9.52-7.21,11.68a.49.49,0,0,0-.21.67.5.5,0,0,0,.44.27.53.53,0,0,0,.24-.06c6.23-3.3,8.23-14.39,8.31-14.86A.49.49,0,0,0,130.94,49.79Z" transform="translate(-12.94 -16.07)"/><path class="cls-11" d="M105.37,21.71s-3.66-3.66-6.66,1.66-12,21-8.65,26.62" transform="translate(-12.94 -16.07)"/><path class="cls-11" d="M111.36,23.37s1-3.33,6-2.66,12.5,14.18,13,21.63" transform="translate(-12.94 -16.07)"/><path class="cls-1" d="M97.18,47.41s-1.26-3-2.33.18,1.25,6.09,2.33,7,1.79-.72,1.43-1.79S97.18,47.41,97.18,47.41Z" transform="translate(-12.94 -16.07)"/><path class="cls-1" d="M122.43,47.41s1.25-3,2.33.18-1.26,6.09-2.33,7-1.79-.72-1.43-1.79S122.43,47.41,122.43,47.41Z" transform="translate(-12.94 -16.07)"/><path class="cls-3" d="M108.1,22.16s-3.58,1.25-7.16,8.06a32.88,32.88,0,0,0-3.23,22.21c1.62,7.7,7.35,12.18,12.9,12.54s11.11-7,12.18-12.9S121,32.73,117.6,27.17A10.64,10.64,0,0,0,108.1,22.16Z" transform="translate(-12.94 -16.07)"/><g class="cls-12"><path class="cls-5" d="M121.47,41c0,8.58-.56,18-8,20.47S101.83,56.22,99.9,49.59c-1.66-5.68-.48-14.2,0-17.33a32.69,32.69,0,0,0-2.24,20.17c1.62,7.7,7.35,12.18,12.9,12.54s11.11-7,12.18-12.9c.61-3.35-.05-9.13-1.35-14.51C121.46,38.62,121.47,39.76,121.47,41Z" transform="translate(-12.94 -16.07)"/><path class="cls-6" d="M121.47,41c0,8.58-.56,18-8,20.47S101.83,56.22,99.9,49.59c-1.66-5.68-.48-14.2,0-17.33a32.69,32.69,0,0,0-2.24,20.17c1.62,7.7,7.35,12.18,12.9,12.54s11.11-7,12.18-12.9c.61-3.35-.05-9.13-1.35-14.51C121.46,38.62,121.47,39.76,121.47,41Z" transform="translate(-12.94 -16.07)"/><path class="cls-5" d="M108.1,22.16s-.46,6.68,4,9.73,8,2.21,8,2.21S110.23,22.11,108.1,22.16Z" transform="translate(-12.94 -16.07)"/><path class="cls-6" d="M108.1,22.16s-.46,6.68,4,9.73,8,2.21,8,2.21S110.23,22.11,108.1,22.16Z" transform="translate(-12.94 -16.07)"/></g><path class="cls-7" d="M108.1,22.16s-3.58,1.25-7.16,8.06a32.88,32.88,0,0,0-3.23,22.21c1.62,7.7,7.35,12.18,12.9,12.54s11.11-7,12.18-12.9S121,32.73,117.6,27.17A10.64,10.64,0,0,0,108.1,22.16Z" transform="translate(-12.94 -16.07)"/><path class="cls-7" d="M111.15,40.07a3.77,3.77,0,0,0,0,2.15c.36,1.07,2.86,1.25,2.15,2.69a5.6,5.6,0,0,1-2,2.15" transform="translate(-12.94 -16.07)"/><line class="cls-7" x1="96.42" y1="35.65" x2="98.93" y2="35.65"/><path class="cls-7" d="M113.66,41.15s2.32-1.44,4.3,0" transform="translate(-12.94 -16.07)"/><path class="cls-7" d="M102,41.15s2.33-1.44,4.3,0" transform="translate(-12.94 -16.07)"/><path class="cls-7" d="M100.4,36.85a5.89,5.89,0,0,1,6.27-1.26" transform="translate(-12.94 -16.07)"/><path class="cls-7" d="M112.4,35.77s2.69-2.15,6.09.36" transform="translate(-12.94 -16.07)"/><path class="cls-13" d="M108.1,22.16a94.7,94.7,0,0,0,8.06,8.6A12,12,0,0,0,124.94,34s-3-6.63-8.24-10.21S108.1,22.16,108.1,22.16Z" transform="translate(-12.94 -16.07)"/><path class="cls-3" d="M82.82,81.48s-7.45-1.06-10.64,5.32-6.64,38.28-6.64,38.28-4,2.66-8.51,5.31-13.29,8.25-17.81,9.84-8.51,2.92-8.51,2.92a37.84,37.84,0,0,1-2.66-5.58c-.26-1.33-3.19-1.86-4.52-3.19s-3.19-3.45-3.19-1.33-.26,3.46,1.86,4.26S25.93,141,25.93,141s-11.7-.14-10.9.93a19.7,19.7,0,0,0,5.85,5.18,30,30,0,0,0,13.55,3.46c4.79,0,35.09-9.84,37.49-12.5S82,107.27,82,107.27" transform="translate(-12.94 -16.07)"/><g class="cls-14"><path class="cls-5" d="M28.43,149.89a28.38,28.38,0,0,0,6,.71c4.79,0,35.09-9.84,37.49-12.5S82,107.27,82,107.27l.11-3.69-2.42-3.1s-9.13,29.59-10.79,32.35-20.74,10.24-29.87,13.56C35.07,147.83,31.36,149,28.43,149.89Z" transform="translate(-12.94 -16.07)"/><path class="cls-6" d="M28.43,149.89a28.38,28.38,0,0,0,6,.71c4.79,0,35.09-9.84,37.49-12.5S82,107.27,82,107.27l.11-3.69-2.42-3.1s-9.13,29.59-10.79,32.35-20.74,10.24-29.87,13.56C35.07,147.83,31.36,149,28.43,149.89Z" transform="translate(-12.94 -16.07)"/></g><path class="cls-7" d="M82.82,81.48s-7.45-1.06-10.64,5.32-6.64,38.28-6.64,38.28-4,2.66-8.51,5.31-13.29,8.25-17.81,9.84-8.51,2.92-8.51,2.92a37.84,37.84,0,0,1-2.66-5.58c-.26-1.33-3.19-1.86-4.52-3.19s-3.19-3.45-3.19-1.33-.26,3.46,1.86,4.26S25.93,141,25.93,141s-11.7-.14-10.9.93a19.7,19.7,0,0,0,5.85,5.18,30,30,0,0,0,13.55,3.46c4.79,0,35.09-9.84,37.49-12.5S82,107.27,82,107.27" transform="translate(-12.94 -16.07)"/><path class="cls-1" d="M17,143.88a8.26,8.26,0,0,1-2.56-1.83c-.73-1-1.34-4.39-.73-5.74s6.47-3.9,6.47-3.9a5.1,5.1,0,0,1,.24,2.44c-.24,1.1-4,2.69-4,2.69l1.35,4.88" transform="translate(-12.94 -16.07)"/><path class="cls-1" d="M20.4,143.76a3.7,3.7,0,0,1-1.95-3.42c.12-1.46-.12-4.64-1.1-5.25s-1.83,5.13-1.83,6.6S18,145.23,18,145.23a17.83,17.83,0,0,1,1.95,1.22" transform="translate(-12.94 -16.07)"/><path class="cls-1" d="M23.33,146.45A3.72,3.72,0,0,1,21.38,143c.12-1.47-.12-4.64-1.1-5.25s-1.83,5.13-1.83,6.59,1.83,2.81,1.83,2.81c-.43,0,.82.72,3.3,1.46" transform="translate(-12.94 -16.07)"/><path class="cls-1" d="M26.54,146.75a3.25,3.25,0,0,1-2.31-2.57c-.16-1.28-1-4-1.91-4.31s-.63,4.74-.36,6,2.75,2.59,2.75,2.59a17,17,0,0,1,1.91.69" transform="translate(-12.94 -16.07)"/><path class="cls-3" d="M133,81.48s7.44-1.06,10.63,5.32,6.65,38.28,6.65,38.28,4,2.66,8.51,5.31,13.29,8.25,17.81,9.84,8.5,2.92,8.5,2.92,2.4-4.25,2.66-5.58,3.19-1.86,4.52-3.19,3.19-3.45,3.19-1.33.27,3.46-1.86,4.26S189.9,141,189.9,141s11.7-.14,10.9.93a19.83,19.83,0,0,1-5.85,5.18,30,30,0,0,1-13.56,3.46c-4.78,0-35.09-9.84-37.48-12.5s-10.1-30.83-10.1-30.83" transform="translate(-12.94 -16.07)"/><g class="cls-15"><path class="cls-5" d="M143.91,138.1c2.39,2.66,32.7,12.5,37.48,12.5a26.81,26.81,0,0,0,3.64-.27,38,38,0,0,1-9.08-3.11c-6.91-3.6-26.83-11.34-29-14.66s-6.91-25.17-9.68-26.83S136.4,116,136.4,116v.47C138.87,124.91,142.42,136.45,143.91,138.1Z" transform="translate(-12.94 -16.07)"/><path class="cls-6" d="M143.91,138.1c2.39,2.66,32.7,12.5,37.48,12.5a26.81,26.81,0,0,0,3.64-.27,38,38,0,0,1-9.08-3.11c-6.91-3.6-26.83-11.34-29-14.66s-6.91-25.17-9.68-26.83S136.4,116,136.4,116v.47C138.87,124.91,142.42,136.45,143.91,138.1Z" transform="translate(-12.94 -16.07)"/></g><path class="cls-7" d="M133,81.48s7.44-1.06,10.63,5.32,6.65,38.28,6.65,38.28,4,2.66,8.51,5.31,13.29,8.25,17.81,9.84,8.5,2.92,8.5,2.92,2.4-4.25,2.66-5.58,3.19-1.86,4.52-3.19,3.19-3.45,3.19-1.33.27,3.46-1.86,4.26S189.9,141,189.9,141s11.7-.14,10.9.93a19.83,19.83,0,0,1-5.85,5.18,30,30,0,0,1-13.56,3.46c-4.78,0-35.09-9.84-37.48-12.5s-10.1-30.83-10.1-30.83" transform="translate(-12.94 -16.07)"/><path class="cls-1" d="M198.84,143.88a8.37,8.37,0,0,0,2.57-1.83c.73-1,1.34-4.39.73-5.74s-6.47-3.9-6.47-3.9a5.19,5.19,0,0,0-.25,2.44c.25,1.1,4,2.69,4,2.69l-1.34,4.88" transform="translate(-12.94 -16.07)"/><path class="cls-1" d="M195.42,143.76a3.7,3.7,0,0,0,2-3.42c-.12-1.46.12-4.64,1.1-5.25s1.83,5.13,1.83,6.6-2.44,3.54-2.44,3.54a17.42,17.42,0,0,0-2,1.22" transform="translate(-12.94 -16.07)"/><path class="cls-1" d="M192.49,146.45a3.72,3.72,0,0,0,2-3.42c-.12-1.47.12-4.64,1.1-5.25s1.83,5.13,1.83,6.59-1.83,2.81-1.83,2.81c.43,0-.83.72-3.3,1.46" transform="translate(-12.94 -16.07)"/><path class="cls-1" d="M189.28,146.75a3.23,3.23,0,0,0,2.31-2.57c.17-1.28,1-4,1.91-4.31s.63,4.74.36,6-2.75,2.59-2.75,2.59a16.48,16.48,0,0,0-1.9.69" transform="translate(-12.94 -16.07)"/><path class="cls-3" d="M138.2,182.29A20.48,20.48,0,0,0,142,171.9l-3-8.5c-24.53,4.31-52.17,1-61.68-.42L75,168.5s19.52,23.64,31.52,27S134.61,187.12,138.2,182.29Z" transform="translate(-12.94 -16.07)"/><g class="cls-16"><path class="cls-17" d="M138.2,182.29A20.48,20.48,0,0,0,142,171.9l-3-8.5c-24.53,4.31-52.17,1-61.68-.42L75,168.5s19.52,23.64,31.52,27S134.61,187.12,138.2,182.29Z" transform="translate(-12.94 -16.07)"/></g><path class="cls-7" d="M138.2,182.29A20.48,20.48,0,0,0,142,171.9l-3-8.5c-24.53,4.31-52.17,1-61.68-.42L75,168.5s19.52,23.64,31.52,27S134.61,187.12,138.2,182.29Z" transform="translate(-12.94 -16.07)"/><path class="cls-3" d="M122.39,181.4s21-17.8,38.29-24.66c0,0,17.53-8.46,21.16-1.81s-13.51,26.6-19,30-18.33,9.87-27.2,11.68-19,2.3-24.38-.6" transform="translate(-12.94 -16.07)"/><g class="cls-18"><path class="cls-17" d="M121.79,181.33s21.56-17.73,38.89-24.59c0,0,17.53-8.46,21.16-1.81s-13.51,26.6-19,30-18.33,9.87-27.2,11.68-19,2.3-24.38-.6" transform="translate(-12.94 -16.07)"/><path class="cls-17" d="M116,195.91s16-1.52,29.88-7.34,18.48-6.84,18.48-6.84-10.38,8.86-18.73,12.41A64.48,64.48,0,0,1,120.8,199a34.91,34.91,0,0,1-13.17-2.53Z" transform="translate(-12.94 -16.07)"/></g><path class="cls-7" d="M122.39,181.4s21-17.8,38.29-24.66c0,0,17.53-8.46,21.16-1.81s-13.51,26.6-19,30-18.33,9.87-27.2,11.68-19,2.3-24.38-.6" transform="translate(-12.94 -16.07)"/><path class="cls-3" d="M105.92,193.14s19.07-6.74,30.47-18.38,33.5-25.12,40.94-23.72,9.31,4.42,6.52,13-14.89,20-26.29,23.73-32.8,7.68-41.41,9.31-12.79,3.72-23.26,3.72-21.64-.7-24.66-6.75,1.86-5.81,12.56-3.72A213.21,213.21,0,0,0,105.92,193.14Z" transform="translate(-12.94 -16.07)"/><g class="cls-19"><path class="cls-17" d="M105.92,193.14s19.07-6.74,30.47-18.38,33.5-25.12,40.94-23.72,9.31,4.42,6.52,13-14.89,20-26.29,23.73-32.8,7.68-41.41,9.31-12.79,3.72-23.26,3.72-21.64-.7-24.66-6.75,1.86-5.81,12.56-3.72A213.21,213.21,0,0,0,105.92,193.14Z" transform="translate(-12.94 -16.07)"/><path class="cls-17" d="M181.83,152.11s1.52,5.57-4.06,13.42-29.11,17-42,21.77-32.16,8.36-32.16,8.36l10.64,1.77s34.26-5.61,43.34-9.64,18.19-10.87,23.25-17.45S188.66,155.9,181.83,152.11Z" transform="translate(-12.94 -16.07)"/></g><path class="cls-7" d="M105.92,193.14s19.07-6.74,30.47-18.38,33.5-25.12,40.94-23.72,9.31,4.42,6.52,13-14.89,20-26.29,23.73-32.8,7.68-41.41,9.31-12.79,3.72-23.26,3.72-21.64-.7-24.66-6.75,1.86-5.81,12.56-3.72A213.21,213.21,0,0,0,105.92,193.14Z" transform="translate(-12.94 -16.07)"/><path class="cls-3" d="M105.84,193.14a212.83,212.83,0,0,1-25-2.79c-10.7-2.09-15.58-2.33-12.56,3.72s14.19,6.75,24.66,6.75A57.48,57.48,0,0,0,107.55,199,10.79,10.79,0,0,1,105.84,193.14Z" transform="translate(-12.94 -16.07)"/><g class="cls-20"><path class="cls-5" d="M105.84,193.14a212.83,212.83,0,0,1-25-2.79c-10.7-2.09-15.58-2.33-12.56,3.72s14.19,6.75,24.66,6.75A57.48,57.48,0,0,0,107.55,199,10.79,10.79,0,0,1,105.84,193.14Z" transform="translate(-12.94 -16.07)"/><path class="cls-6" d="M105.84,193.14a212.83,212.83,0,0,1-25-2.79c-10.7-2.09-15.58-2.33-12.56,3.72s14.19,6.75,24.66,6.75A57.48,57.48,0,0,0,107.55,199,10.79,10.79,0,0,1,105.84,193.14Z" transform="translate(-12.94 -16.07)"/></g><path class="cls-7" d="M105.84,193.14a212.83,212.83,0,0,1-25-2.79c-10.7-2.09-15.58-2.33-12.56,3.72s14.19,6.75,24.66,6.75A57.48,57.48,0,0,0,107.55,199,10.79,10.79,0,0,1,105.84,193.14Z" transform="translate(-12.94 -16.07)"/><path class="cls-3" d="M100,180.65c-13.73-11.4-47.54-34-55.91-34s-11.63,9.53-11.63,9.53-.93,3.49,6,10.24,28.38,24.89,45.13,29.31S104.52,198,104.52,198" transform="translate(-12.94 -16.07)"/><g class="cls-21"><path class="cls-17" d="M100.57,180.58c-13.73-11.4-48.16-34-56.53-34s-11.63,9.53-11.63,9.53-.93,3.49,6,10.24,28.38,24.89,45.13,29.31S104.52,198,104.52,198" transform="translate(-12.94 -16.07)"/></g><path class="cls-7" d="M100,180.65c-13.73-11.4-47.54-34-55.91-34s-11.63,9.53-11.63,9.53-.93,3.49,6,10.24,28.38,24.89,45.13,29.31S104.52,198,104.52,198" transform="translate(-12.94 -16.07)"/><path class="cls-3" d="M51.36,156.25S68.91,164.09,75,168.5s19.78,17.2,27.22,21.15,14.19,6.75,19.31,6.75,29.78-3.26,33.73-1.16-2.09,7-7.44,8.83-25.13-2.32-32.1-2.79-30.48-3.72-46.76-9.3-34.66-26.75-36.76-30.71S33.92,153,33.92,153" transform="translate(-12.94 -16.07)"/><g class="cls-22"><path class="cls-17" d="M52,156.15s17,7.94,23,12.35,19.78,17.2,27.22,21.15,14.19,6.75,19.31,6.75,29.78-3.26,33.73-1.16-2.09,7-7.44,8.83-25.13-2.32-32.1-2.79-30.48-3.72-46.76-9.3-34.66-26.75-36.76-30.71,3-8.84,3-8.84" transform="translate(-12.94 -16.07)"/><path class="cls-17" d="M32.94,153.62S34.2,160,44.08,167.81s49.88,23.8,60,26.33,17.72,2.53,18.48,3,1.78,4.3-2.53,4.56-22.79-1-39.25-4.82S47.88,182,41.8,176.16,30.66,163.75,30.15,159.7A6.42,6.42,0,0,1,32.94,153.62Z" transform="translate(-12.94 -16.07)"/></g><path class="cls-7" d="M51.36,156.25S68.91,164.09,75,168.5s19.78,17.2,27.22,21.15,14.19,6.75,19.31,6.75,29.78-3.26,33.73-1.16-2.09,7-7.44,8.83-25.13-2.32-32.1-2.79-30.48-3.72-46.76-9.3-34.66-26.75-36.76-30.71S33.92,153,33.92,153" transform="translate(-12.94 -16.07)"/><path class="cls-3" d="M155.23,195.24c-3.95-2.1-28.61,1.16-33.73,1.16a17,17,0,0,1-2.41-.19,10.11,10.11,0,0,1-1.49,5.25c8.15.92,25.27,4.33,30.19,2.61C153.14,202.21,159.19,197.33,155.23,195.24Z" transform="translate(-12.94 -16.07)"/><g class="cls-23"><path class="cls-5" d="M155.23,195.24c-3.95-2.1-28.61,1.16-33.73,1.16a17,17,0,0,1-2.41-.19,10.11,10.11,0,0,1-1.49,5.25c8.15.92,25.27,4.33,30.19,2.61C153.14,202.21,159.19,197.33,155.23,195.24Z" transform="translate(-12.94 -16.07)"/><path class="cls-6" d="M155.23,195.24c-3.95-2.1-28.61,1.16-33.73,1.16a17,17,0,0,1-2.41-.19,10.11,10.11,0,0,1-1.49,5.25c8.15.92,25.27,4.33,30.19,2.61C153.14,202.21,159.19,197.33,155.23,195.24Z" transform="translate(-12.94 -16.07)"/></g><path class="cls-7" d="M155.23,195.24c-3.95-2.1-28.61,1.16-33.73,1.16a17,17,0,0,1-2.41-.19,10.11,10.11,0,0,1-1.49,5.25c8.15.92,25.27,4.33,30.19,2.61C153.14,202.21,159.19,197.33,155.23,195.24Z" transform="translate(-12.94 -16.07)"/><path class="cls-13" d="M99.51,61.92A191.9,191.9,0,0,1,85.36,75.54c-9.32,8.23-8.78,28.12-5.91,33.67s9.67,5.91,10.56,10.57,3,13.07,7.35,16.83,13.25,6.27,15-8.59-4-27.37-8.13-34.53-2.44-30.85-2.44-30.85Z" transform="translate(-12.94 -16.07)"/><path class="cls-11" d="M88,81.87c-4.8,6.93-8.39,15.57-2.89,22.36,5.65,7,18.3,17,18,24.63s-6.33,5-8.32-1.33" transform="translate(-12.94 -16.07)"/><path class="cls-11" d="M100,63c-.65,4.35-3.3,8.33-6.18,11.53C93,75.5,92,76.62,91,77.84" transform="translate(-12.94 -16.07)"/><path class="cls-11" d="M108.74,119.2a14.35,14.35,0,0,1,1,4" transform="translate(-12.94 -16.07)"/><path class="cls-11" d="M99.71,71s-8.65,10.65-7,23c1.25,9.26,9.65,14.75,14.17,21.72" transform="translate(-12.94 -16.07)"/></svg>