<svg id="Trees" xmlns="http://www.w3.org/2000/svg" viewBox="0 0 84.19 201.77"><defs><style>.cls-1{fill:#f9ff00;}.cls-2{fill:#fff;opacity:0.4;}.cls-3{fill:none;stroke:#263238;stroke-linecap:round;stroke-linejoin:round;}</style></defs><title>tree</title><path class="cls-1" d="M99.46,209.93h51.12c-1-6.26-5-5.16-5.53-14.85-.27-4.88,4.25-10.92,3.86-17.33-.32-5.28-5.53-10.69-5.93-16.73-.37-5.45,4.08-11.5,3.64-17.38-.4-5.55-5.68-10.88-6.15-16.65s3.9-11.75,3.39-17.44S138,98.62,137.4,93c-.58-5.77,3.63-12,3-17.5-.68-5.86-6.21-10.93-7-16.33-.84-6,3.08-12.43,2.16-17.63-1.12-6.36-7-11-8.29-15.65-2.32-8.74-2-17.17-4.77-17.72-2.92-.58-3.59,7.68-5.81,16.91-1.11,4.64-6.9,9.34-7.85,15.7-.77,5.16,3.32,11.42,2.65,17.41-.6,5.36-6,10.52-6.52,16.35-.49,5.48,3.88,11.53,3.45,17.26-.41,5.57-5.65,10.89-6,16.55s4.15,11.59,3.85,17.18-5.46,11.13-5.72,16.65c-.28,5.82,4.32,11.7,4.1,17.11-.25,6-5.32,11.48-5.5,16.72-.23,6.36,4.44,12.23,4.3,17.07-.32,10.51-5.13,8.33-5.3,16.79Z" transform="translate(-66.39 -8.15)"/><path class="cls-2" d="M99.46,209.93h51.12c-1-6.26-5-5.16-5.53-14.85-.27-4.88,4.25-10.92,3.86-17.33-.32-5.28-5.53-10.69-5.93-16.73-.37-5.45,4.08-11.5,3.64-17.38-.4-5.55-5.68-10.88-6.15-16.65s3.9-11.75,3.39-17.44S138,98.62,137.4,93c-.58-5.77,3.63-12,3-17.5-.68-5.86-6.21-10.93-7-16.33-.84-6,3.08-12.43,2.16-17.63-1.12-6.36-7-11-8.29-15.65-2.32-8.74-2-17.17-4.77-17.72-2.92-.58-3.59,7.68-5.81,16.91-1.11,4.64-6.9,9.34-7.85,15.7-.77,5.16,3.32,11.42,2.65,17.41-.6,5.36-6,10.52-6.52,16.35-.49,5.48,3.88,11.53,3.45,17.26-.41,5.57-5.65,10.89-6,16.55s4.15,11.59,3.85,17.18-5.46,11.13-5.72,16.65c-.28,5.82,4.32,11.7,4.1,17.11-.25,6-5.32,11.48-5.5,16.72-.23,6.36,4.44,12.23,4.3,17.07-.32,10.51-5.13,8.33-5.3,16.79Z" transform="translate(-66.39 -8.15)"/><line class="cls-3" x1="55.02" y1="16.83" x2="55.02" y2="199.41"/><polyline class="cls-3" points="63 35.97 54.68 43.16 47.87 34.08"/><polyline class="cls-3" points="63 67.75 54.68 74.94 47.87 65.86"/><polyline class="cls-3" points="63 97.64 54.68 104.83 47.87 95.75"/><polyline class="cls-3" points="63 133.2 54.68 140.39 47.87 131.31"/><polyline class="cls-3" points="63 169.15 54.68 176.33 47.87 167.25"/><path class="cls-1" d="M67.27,209.93h34.61c-.66-4.24-3.38-3.49-3.74-10.05-.18-3.31,2.88-7.4,2.61-11.74-.22-3.57-3.74-7.24-4-11.33C96.49,173.12,99.5,169,99.2,165c-.27-3.76-3.85-7.36-4.16-11.27s2.64-8,2.29-11.81-4-7.4-4.37-11.2,2.45-8.11,2-11.85c-.47-4-4.21-7.4-4.72-11-.56-4.08,2.09-8.43,1.47-11.94C91,91.61,87,88.5,86.11,85.32c-1.57-5.92-1.37-11.63-3.23-12S80.45,78.52,79,84.77c-.75,3.14-4.68,6.32-5.32,10.63-.52,3.49,2.25,7.74,1.8,11.79-.41,3.63-4.06,7.12-4.42,11.07-.33,3.71,2.63,7.81,2.34,11.69s-3.82,7.37-4.07,11.2,2.81,7.85,2.6,11.64-3.69,7.54-3.87,11.27c-.19,3.94,2.93,7.93,2.78,11.59-.17,4.06-3.6,7.77-3.73,11.32-.15,4.3,3,8.28,2.91,11.56-.21,7.11-3.46,5.64-3.58,11.36Z" transform="translate(-66.39 -8.15)"/><path class="cls-2" d="M67.27,209.93h34.61c-.66-4.24-3.38-3.49-3.74-10.05-.18-3.31,2.88-7.4,2.61-11.74-.22-3.57-3.74-7.24-4-11.33C96.49,173.12,99.5,169,99.2,165c-.27-3.76-3.85-7.36-4.16-11.27s2.64-8,2.29-11.81-4-7.4-4.37-11.2,2.45-8.11,2-11.85c-.47-4-4.21-7.4-4.72-11-.56-4.08,2.09-8.43,1.47-11.94C91,91.61,87,88.5,86.11,85.32c-1.57-5.92-1.37-11.63-3.23-12S80.45,78.52,79,84.77c-.75,3.14-4.68,6.32-5.32,10.63-.52,3.49,2.25,7.74,1.8,11.79-.41,3.63-4.06,7.12-4.42,11.07-.33,3.71,2.63,7.81,2.34,11.69s-3.82,7.37-4.07,11.2,2.81,7.85,2.6,11.64-3.69,7.54-3.87,11.27c-.19,3.94,2.93,7.93,2.78,11.59-.17,4.06-3.6,7.77-3.73,11.32-.15,4.3,3,8.28,2.91,11.56-.21,7.11-3.46,5.64-3.58,11.36Z" transform="translate(-66.39 -8.15)"/><line class="cls-3" x1="15.74" y1="76.55" x2="15.74" y2="200.18"/><polyline class="cls-3" points="21.14 89.51 15.51 94.38 10.9 88.23"/><polyline class="cls-3" points="21.14 111.03 15.51 115.89 10.9 109.75"/><polyline class="cls-3" points="21.14 131.26 15.51 136.13 10.9 129.98"/><polyline class="cls-3" points="21.14 155.34 15.51 160.21 10.9 154.06"/><polyline class="cls-3" points="21.14 179.68 15.51 184.55 10.9 178.4"/></svg>